<?xml version="1.0" standalone="no"?>
<!DOCTYPE svg PUBLIC "-//W3C//DTD SVG 1.1//EN" "http://www.w3.org/Graphics/SVG/1.1/DTD/svg11.dtd" >
<svg xmlns="http://www.w3.org/2000/svg">
<metadata>
Created by FontPrep 20130207 at Tue Oct  2 12:12:29 2018
 By Juan Saavedra Segura
(c)1991 AG Baltia
</metadata>
<defs>
<font id="f536c319a4e603646391c53bb1a2325c" horiz-adv-x='1024' >
  <font-face 
    font-family="Optima-Bold"
    font-weight="700"
    font-stretch="normal"
    units-per-em="2048"
    panose-1="0 0 0 0 0 0 0 0 0 0"
    ascent="1638"
    descent="-410"
    x-height="983"
    cap-height="1395"
    bbox="-41 -541 2111 1812"
    underline-thickness="77"
    underline-position="-250"
    unicode-range="U+0020-2122"
  />
<missing-glyph horiz-adv-x="1507" 
d="M1319 94v1319h-1131v-1319h1131zM94 0v1507h1319v-1507h-1319z" />
    <glyph glyph-name=".notdef" horiz-adv-x="1507" 
d="M1319 94v1319h-1131v-1319h1131zM94 0v1507h1319v-1507h-1319z" />
    <glyph glyph-name=".null" horiz-adv-x="0" 
 />
    <glyph glyph-name="nonmarkingreturn" horiz-adv-x="569" 
 />
    <glyph glyph-name="space" unicode=" " horiz-adv-x="569" 
 />
    <glyph glyph-name="exclam" unicode="!" horiz-adv-x="681" 
d="M172 1268q0 74 49 119t125 45t119 -47.5t43 -111.5t-51 -331l-43 -233q-31 -163 -45 -256h-58q-23 106 -81 423q-58 318 -58 392zM176 138q0 69 50 119t118 50t118 -50t50 -119t-49 -118t-119 -49t-119 49t-49 118z" />
    <glyph glyph-name="quotedbl" unicode="&#x22;" horiz-adv-x="681" 
d="M590 893q0 -94 -81 -94t-81 86q0 23 2 37v346q0 90 16.5 127t61.5 37t62.5 -40t17.5 -124v-346q2 -10 2 -29zM256 893q0 -94 -81 -94t-81 94q2 18 2 29v346q0 90 14.5 127t61.5 37t64.5 -40t17.5 -124v-346q2 -10 2 -29z" />
    <glyph glyph-name="numbersign" unicode="#" 
d="M707 803h-220l-32 -215h219zM1020 588v-152h-215l-66 -436h-153l65 436h-221l-65 -436h-154l65 436h-210v152h235l33 215h-211v151h233l62 406h153l-61 -406h219l59 406h154l-59 -406h190v-151h-213l-33 -215h193z" />
    <glyph glyph-name="dollar" unicode="$" 
d="M614 74q57 0 131 66t74 160q0 96 -72 158t-133 68v-452zM317 1067q1 -84 47 -132t132 -73v408q-82 -10 -130.5 -64.5t-48.5 -138.5zM1061 412q0 -186 -133 -313.5t-314 -127.5v-221q-31 6 -55 6h-37q-18 -4 -26 -4v219q-235 0 -408 135q25 121 51 242h39
q29 -106 117 -181t201 -93v485q-211 41 -301 115q-119 96 -119 293q0 281 295 381q59 18 125 24v164q16 -4 20 -4h62q12 0 36 4v-164q219 0 361 -110q-51 -108 -76 -205h-29q-29 86 -97 143t-159 70v-443q209 -45 312 -125q135 -104 135 -290z" />
    <glyph glyph-name="percent" unicode="%" horiz-adv-x="2048" 
d="M557 1307q-149 0 -148 -196t19 -253q31 -94 121 -94t125 108q20 66 20 187q0 248 -137 248zM540 698q-155 0 -245 90.5t-90 239.5t103.5 246.5t246.5 97.5t243 -84t101 -238q0 -154 -102 -253t-257 -99zM1493 37q90 0 125 108q20 66 20 187q0 246 -137 248
q-149 0 -148 -196t19 -253q31 -94 121 -94zM1484 -29q-155 0 -245 90.5t-90 239.5t103.5 246.5t246.5 97.5t243 -84q100 -85 101 -239q0 -154 -102 -252.5t-257 -98.5zM1358 1417h31q20 4 30 4l-712 -1482q-33 4 -49 4h-29q-21 -4 -31 -4l711 1482q33 -4 49 -4z" />
    <glyph glyph-name="ampersand" unicode="&#x26;" horiz-adv-x="1478" 
d="M508 653q-156 -103 -156 -255q0 -82 66 -167q50 -60 110 -84t124 -24q63 0 123.5 23.5t94.5 60.5q-155 181 -362 446zM850 1138q0 64 -38 111t-101 47q-147 0 -148 -149q0 -59 34 -122t93 -153q59 47 109.5 124.5t50.5 141.5zM504 -37q-100 0 -169 21.5t-136 76.5
q-115 94 -115 250q0 254 365 422q-59 88 -80 121q-70 117 -70 227q0 139 112.5 226.5t252.5 87.5t233 -56q113 -68 113 -192q0 -84 -54 -168t-206 -180l319 -389q113 130 244 389l112 -117q-158 -220 -284 -354q139 -156 280 -312v-26l-194 10l-195 -10l-104 145
q-86 -76 -205 -124t-219 -48z" />
    <glyph glyph-name="quotesingle" unicode="'" horiz-adv-x="569" 
d="M367 893q0 -94 -81 -94t-81 94q2 18 2 29v346q0 90 16.5 127t61.5 37t62.5 -40t17.5 -124v-346q2 -10 2 -29z" />
    <glyph glyph-name="parenleft" unicode="(" horiz-adv-x="681" 
d="M350 616q0 -521 262 -829l-55 -53q-219 188 -321.5 402t-102.5 505q-1 291 103 503t325 402l53 -55q-264 -298 -264 -875z" />
    <glyph glyph-name="parenright" unicode=")" horiz-adv-x="681" 
d="M332 664q0 521 -262 829l55 53q219 -188 321.5 -402t102.5 -505t-103.5 -503t-324.5 -402l-53 55q264 298 264 875z" />
    <glyph glyph-name="asterisk" unicode="*" horiz-adv-x="909" 
d="M462 641q-7 0 -37 1t-48 -1l29 279l-218 -172l-59 102l-31 37l271 123l-271 108q49 64 82 142l226 -173l-29 285q25 -4 33 -4h98q20 4 29 4l-33 -285l223 177q39 -80 84 -142l-262 -112l262 -109q-18 -27 -82 -145l-225 164l33 -279h-75z" />
    <glyph glyph-name="plus" unicode="+" horiz-adv-x="1241" 
d="M532 610v424h177v-424h428v-176h-428v-434h-177v434h-428v176h428z" />
    <glyph glyph-name="comma" unicode="," horiz-adv-x="569" 
d="M330 307q54 0 94.5 -38t40.5 -80t-21 -74q-126 -190 -350 -502l-49 22l92 379q34 139 57 193.5t52.5 77t83.5 22.5z" />
    <glyph glyph-name="hyphen" unicode="-" horiz-adv-x="681" 
d="M86 346v219h512v-219h-512z" />
    <glyph glyph-name="period" unicode="." horiz-adv-x="569" 
d="M284 -29q-71 0 -119 50.5t-48 116.5t49 117.5t116.5 51.5t119 -49t51.5 -118.5t-49 -119t-120 -49.5z" />
    <glyph glyph-name="slash" unicode="/" horiz-adv-x="796" 
d="M90 -258q-43 0 -86 -6l617 1810q43 -6 86 -6t86 6l-617 -1810q-43 6 -86 6z" />
    <glyph glyph-name="zero" unicode="0" 
d="M383 651q0 -326 29 -436q39 -152 159 -152q106 0 148 160q35 135 35 463t-38 461t-141 133q-113 0 -152.5 -151.5t-39.5 -477.5zM575.5 1372q262.5 0 382.5 -207q98 -168 98 -434t-38.5 -393t-112.5 -215q-131 -152 -336 -152q-133 0 -225 51.5t-155.5 162t-86 226
t-22.5 253.5q0 321 98 483q135 225 397.5 225z" />
    <glyph glyph-name="one" unicode="1" 
d="M608 0q-40 0 -155 -10v1157q-117 -68 -240 -123q-29 53 -84 102v17q232 75 590 252l16 -11v-1394q-87 10 -127 10z" />
    <glyph glyph-name="two" unicode="2" 
d="M94 1112q97 260 457 260q176 0 301 -84q145 -98 145 -293q0 -141 -71 -244t-179 -195q-222 -187 -331 -296l2 -10h262l317 16q-10 -112 -10 -148t10 -118h-901v88q184 172 260 254q338 360 338 624q0 140 -56 227t-162 87t-154 -95t-48 -204l-20 -4q-74 90 -160 135z" />
    <glyph glyph-name="three" unicode="3" 
d="M367 649v103q37 -4 53 -4q229 0 229 288q0 98 -33 160q-45 84 -136 84t-140 -74q-37 -55 -55 -170l-29 -2q-106 111 -137 137q68 113 168 157t239 44q199 0 313.5 -85t114.5 -219t-64 -207t-192 -118l-26 -10q-10 -14 4 -20q45 -8 53 -11q170 -49 217 -106
q61 -76 62 -211q0 -184 -155 -299t-372 -115q-279 0 -395 158q99 131 127 176l27 -2q36 -240 225 -240q107 1 173 93t67 200q0 199 -107 258q-61 35 -231 35z" />
    <glyph glyph-name="four" unicode="4" 
d="M604 551v596l-389 -584l10 -12h379zM759 0q-40 0 -155 -10v342h-534q10 82 10 99t-10 97q53 74 147 216t228.5 339.5t187.5 288.5q78 -10 125 -10t129 10v-821h170q-10 -92 -10 -111q0 -18 10 -108h-170v-342q-88 10 -128 10z" />
    <glyph glyph-name="five" unicode="5" 
d="M528 803q110 0 182 -20.5t140 -77.5q129 -111 129 -283q0 -102 -48 -191.5t-127 -146.5q-157 -113 -372 -113q-216 0 -366 115q56 82 102 209h29q60 -232 223 -232q132 -1 194 99t62 230t-70 218q-73 86 -172 86q-100 0 -178 -82l-49 29l33 717h682q-16 -126 -9 -174.5
t9 -69.5h-588l-17 -354l13 -6q88 47 198 47z" />
    <glyph glyph-name="six" unicode="6" 
d="M737 373q0 327 -186 325q-94 0 -139 -104q-33 -77 -33 -202q0 -329 174 -329q96 0 145 113q39 88 39 197zM727 1280q-72 0 -129 -35t-102 -92t-64 -113q-20 -76 -39 -148t-18 -171l14 -8q94 104 232 104q184 0 301.5 -104.5t117.5 -298.5t-139 -318.5t-344 -124.5
q-123 0 -219 48t-179 170t-83 343q0 222 70 420t216 312q144 108 359 108q61 0 102 -10q19 -41 37 -80l-12 -20q-49 18 -121 18z" />
    <glyph glyph-name="seven" unicode="7" 
d="M395 -10q-112 10 -148 10t-118 -10q458 693 688 1108l-682 -19q10 88 10 138t-10 143h934l14 -39q-292 -498 -438.5 -796t-249.5 -535z" />
    <glyph glyph-name="eight" unicode="8" 
d="M567 1280q-155 0 -155 -262q0 -105 39.5 -173.5t121.5 -68.5t123 94q31 70 31 170q0 240 -160 240zM1055 399q0 -195 -137.5 -311.5t-348.5 -116.5t-311 73t-138 156t-38 173q0 131 80 239.5t207 128.5v15q-100 20 -169 100t-69 182q0 168 129 251t307 83
q102 0 169 -14.5t136.5 -62.5t102.5 -101.5t33 -151.5t-62.5 -177.5t-173.5 -108.5v-15q127 -20 205 -116.5t78 -225.5zM385 381q0 -158 52 -238t139 -80t137 115q39 90 39 178q0 182 -52 265q-52 82 -135 81q-114 0 -157 -149q-23 -78 -23 -172z" />
    <glyph glyph-name="nine" unicode="9" 
d="M745 952q0 328 -174 328q-94 0 -143 -113q-37 -87 -37 -199t31 -196q47 -127 146 -127t145 105q32 77 32 202zM750 604v21l-15 6q-95 -105 -255 -105t-276 104t-116 273q0 119 27 196t99 147q129 126 329 126q264 0 391 -168q115 -157 115 -399q0 -349 -117 -522.5
t-250 -242.5t-279 -69q-68 1 -96 11t-42.5 13t-23 27.5t-14 44t-28.5 62.5l14 14q110 -80 180 -80q178 0 277 193q80 156 80 348z" />
    <glyph glyph-name="colon" unicode=":" horiz-adv-x="569" 
d="M284.5 -29q-69.5 0 -118.5 49.5t-49 117.5t50 118.5t117.5 50.5t118 -50t50.5 -119t-49.5 -118t-119 -49zM287 637q-70 0 -120 50t-50 119t49 118t118 49t119 -48t50 -118t-48 -120t-118 -50z" />
    <glyph glyph-name="semicolon" unicode=";" horiz-adv-x="569" 
d="M330 307q54 0 94.5 -38t40.5 -80t-21 -74q-126 -190 -350 -502l-49 22l92 379q34 139 57 193.5t52.5 77t83.5 22.5zM147 806q0 69 49.5 118t117.5 49t118.5 -48t50.5 -118t-48 -120t-118 -50t-120 50t-50 119z" />
    <glyph glyph-name="less" unicode="&#x3c;" horiz-adv-x="1241" 
d="M328 522l815 -375v-172l-1043 471v152l1043 471v-172z" />
    <glyph glyph-name="equal" unicode="=" horiz-adv-x="1241" 
d="M1137 410v-177h-1033v177h1033zM1137 811v-176h-1033v176h1033z" />
    <glyph glyph-name="greater" unicode="&#x3e;" horiz-adv-x="1241" 
d="M98 147l815 375l-815 375v172l1043 -471v-152l-1043 -471v172z" />
    <glyph glyph-name="question" unicode="?" horiz-adv-x="909" 
d="M546 524q44 0 85 29l18 -10q-8 -20 -17 -42t-16 -44q-61 -8 -122 -15q-125 0 -209 71.5t-84 161.5q1 91 29 143t94 118l100 111q39 45 55 73q17 28 17 80q0 53 -43 90t-111 37q-125 0 -180 -108h-27l-6 137q41 33 115 54.5t130 21.5q97 0 184.5 -24t147.5 -96
q60 -73 60 -167q0 -145 -162 -305t-162 -224q0 -41 30 -66.5t74 -25.5zM434.5 -29q-69.5 0 -119 49.5t-49.5 117.5t50.5 118.5t118 50.5t117.5 -50t50 -119t-49 -118t-118.5 -49z" />
    <glyph glyph-name="at" unicode="@" horiz-adv-x="1536" 
d="M772 1051q117 0 182 -99l21 80h194l-133 -502q-10 -36 -10 -68t9 -48.5t34 -16.5q84 0 173 127q89 126 89 314t-129 321q-143 150 -395 150t-415 -169t-163 -446t170 -442.5t443 -165.5q141 0 264 72.5t205 195.5h133q-90 -176 -260 -283.5t-365 -107.5q-307 0 -522 203
t-215 518t206 531.5t502 216.5t480 -176t184 -413q0 -338 -295 -513q-86 -51 -160 -51t-112.5 51t-38.5 123q-59 -86 -108 -124t-132 -38q-123 0 -192.5 82t-69.5 215q0 174 128 318.5t298 144.5zM895 823q0 119 -90 119q-106 0 -182 -164q-63 -135 -64 -260q0 -57 18.5 -89
t69.5 -32q80 0 164 122t84 304z" />
    <glyph glyph-name="A" unicode="A" horiz-adv-x="1366" 
d="M420 543h375l-183 477zM1339 -10l-176 10l-176 -10q-95 307 -145 428h-477q-108 -302 -144 -424l-96 6l-98 -6l585 1419l78 -6l78 6z" />
    <glyph glyph-name="B" unicode="B" horiz-adv-x="1251" 
d="M762 739q368 -35 368 -352q0 -185 -155 -293q-135 -94 -340 -94h-473v1395h528q178 0 281 -64q127 -78 127 -246q0 -137 -96 -222t-240 -105v-19zM469 674v-555h102q92 0 167 72.5t75 214.5t-85 204q-85 64 -259 64zM469 793h63q115 0 167 45q94 83 94 205
q0 123 -57.5 182t-162.5 59q-49 0 -104 -8v-483z" />
    <glyph glyph-name="C" unicode="C" horiz-adv-x="1366" 
d="M870 1309q-238 0 -366 -201q-111 -172 -111 -434t127 -425t361 -163q96 0 195 42t171 112l27 -13l-45 -176q-172 -88 -406 -88q-336 0 -553 190t-217 500q0 383 240 590q219 188 575 189q232 0 418 -101q-33 -135 -47 -211h-29q-57 84 -149 136.5t-191 52.5z" />
    <glyph glyph-name="D" unicode="D" horiz-adv-x="1593" 
d="M1153 739q0 537 -471 537h-201v-1157h174q233 0 355 129q143 154 143 491zM174 1395h700q307 0 474 -203q145 -178 145 -455q0 -341 -210 -539t-535 -198h-574v1395z" />
    <glyph glyph-name="E" unicode="E" horiz-adv-x="1024" 
d="M930 99q0 -19 10 -99h-780v1395h780q-10 -58 -10 -80t4 -51t6 -45q-208 28 -473 28v-440h213q126 0 252 18q-10 -58 -10 -80t4 -50.5t6 -45.5q-155 19 -252 19h-213v-521q258 0 473 29q-10 -58 -10 -77z" />
    <glyph glyph-name="F" unicode="F" horiz-adv-x="1024" 
d="M682 668h-215v-678l-154 10l-153 -10v1405h780q-10 -58 -10 -80t4 -51t6 -45q-240 28 -473 28v-440h217q91 0 248 18q-10 -58 -10 -74q0 -17 10 -102q-199 19 -250 19z" />
    <glyph glyph-name="G" unicode="G" horiz-adv-x="1593" 
d="M1296 612l154 11v-568q-331 -92 -547 -92q-350 0 -571 168q-246 186 -246 542q0 355 238 557t608 202q274 0 493 -125q-45 -102 -57 -207h-29q-70 100 -175 154.5t-228 54.5q-244 -1 -377 -189t-133 -460t129 -423t363 -151q125 0 225 57v480z" />
    <glyph glyph-name="H" unicode="H" horiz-adv-x="1593" 
d="M330 0l-154 -10v1405l154 -11q65 0 153 11v-555l314 -11q126 0 313 11v555l154 -11q65 0 153 11v-1405l-153 10l-154 -10v686l-313 10l-314 -10v-686z" />
    <glyph glyph-name="I" unicode="I" horiz-adv-x="681" 
d="M340 0l-154 -10v1405l154 -11q55 0 154 11v-1405z" />
    <glyph glyph-name="J" unicode="J" horiz-adv-x="681" 
d="M360 1384l154 11v-1110q0 -133 -11 -221t-52 -156q-121 -199 -392 -234l-30 97q115 31 151 147q27 84 27 277v1200z" />
    <glyph glyph-name="K" unicode="K" horiz-adv-x="1251" 
d="M1111 1384q20 0 97 11v-17l-336 -352l-194 -215l551 -793v-28l-154 10l-153 -10l-465 651v-651l-154 10l-153 -10v1405l153 -11q55 0 154 11v-641q295 342 532 641q102 -11 122 -11z" />
    <glyph glyph-name="L" unicode="L" horiz-adv-x="1024" 
d="M317 1384l154 11v-1248q194 0 469 29q-10 -58 -10 -77t10 -99h-776v1395z" />
    <glyph glyph-name="M" unicode="M" horiz-adv-x="1820" 
d="M375 1384l74 11q166 -368 471 -963q86 170 233 457t244 506q80 -11 81 -11l93 11q96 -861 119 -1016t61 -389l-170 10l-166 -10q0 195 -30.5 456t-57.5 498q-306 -619 -455 -944q-33 4 -45 4t-32 -4q-117 246 -244 504t-205 418q-86 -641 -86 -932q-82 10 -109 10
q-26 0 -81 -10q53 288 118.5 758.5t90.5 646.5q80 -11 96 -11z" />
    <glyph glyph-name="N" unicode="N" horiz-adv-x="1593" 
d="M172 1395h203q135 -147 419 -448t466 -511v959l81 -6l82 6v-1405l-174 2q-174 192 -350 390t-340 370l-223 233v-991l-82 6l-82 -6v1401z" />
    <glyph glyph-name="O" unicode="O" horiz-adv-x="1705" 
d="M864 1309q-217 0 -335 -168t-117 -506q0 -225 98 -375q115 -174 334 -174t336 190q116 190 116 440q0 252 -98 408q-117 185 -334 185zM1636 690q0 -299 -220 -513t-576 -214t-562 192.5t-206 524.5t216 542t602 210t587 -246q159 -197 159 -496z" />
    <glyph glyph-name="P" unicode="P" 
d="M455 1284v-565q78 1 153 21q76 20 120 95t44 185t-54 187t-136 77h-127zM147 1395h504q438 0 439 -346q0 -256 -179 -359q-145 -84 -456 -84v-616l-154 10l-154 -10v1405z" />
    <glyph glyph-name="Q" unicode="Q" horiz-adv-x="1705" 
d="M869 1432q343 0 552 -201t209 -529q0 -250 -140 -437t-380 -265q238 -152 530 -311q-150 -31 -286 -113q-229 178 -312 234l-221 153q-344 0 -550 194q-205 193 -205 533t230 541t573 201zM860 1309q-454 0 -454 -674q0 -225 98 -375q115 -174 328 -174t335.5 180
t122.5 475q0 227 -98 383q-117 185 -332 185z" />
    <glyph glyph-name="R" unicode="R" horiz-adv-x="1251" 
d="M461 1284v-549q14 -2 17 -2h36q268 0 268 295q0 185 -104 234q-51 23 -158 22h-59zM154 1395h436q141 0 206.5 -5.5t125.5 -35.5q178 -94 178 -293q0 -145 -86 -241.5t-234 -127.5q80 -139 200 -323t163 -252l80 -127l-187 10l-184 -10l-244 430l-133 227h-14v-657
l-154 10l-153 -10v1405z" />
    <glyph glyph-name="S" unicode="S" horiz-adv-x="1024" 
d="M561 1309q-115 0 -170 -54.5t-55 -146.5q0 -111 160 -199q291 -160 301 -168q161 -127 161 -325t-151.5 -325.5t-390.5 -127.5q-193 0 -330 88q42 143 59 260h39q23 -106 98.5 -165.5t181.5 -59.5t174.5 55.5t68.5 157.5q-1 131 -153 213t-298 160q-160 121 -160 318
q0 198 124 320t349 122q102 0 193.5 -31t130.5 -68q-30 -77 -66 -203h-30q-66 179 -236 179z" />
    <glyph glyph-name="T" unicode="T" 
d="M1085 1297q0 -19 4.5 -40.5t6.5 -35.5q-233 28 -367 28v-1259l-154 10l-153 -10v1259q-159 0 -381 -28q10 72 10 86q0 13 -10 88h1055q-11 -79 -11 -98z" />
    <glyph glyph-name="U" unicode="U" horiz-adv-x="1593" 
d="M489 721q0 -212 15.5 -297.5t35 -133.5t72.5 -100q94 -88 236 -88t224.5 55.5t137.5 192.5q25 59 31 168t6 256v621l82 -6l82 6v-729q0 -225 -29 -330q-45 -166 -188 -264q-149 -109 -375 -109q-225 0 -373 72q-178 88 -231 272q-33 113 -33 252v836l154 -11q65 0 153 11
v-674z" />
    <glyph glyph-name="V" unicode="V" horiz-adv-x="1366" 
d="M672 0q-16 0 -86 -10q-159 443 -289 765q-129 322 -260 640l180 -11l180 11q83 -281 363 -1014q175 420 247 621q72 200 136 393l94 -6l94 6q-386 -891 -571 -1405q-72 10 -88 10z" />
    <glyph glyph-name="W" unicode="W" horiz-adv-x="2048" 
d="M1435 0q-17 0 -102 -10q-94 344 -209 669q-16 49 -118 330q-57 -164 -116.5 -327.5t-137.5 -385.5t-101 -286q-88 10 -105 10t-102 -10q-104 400 -215.5 761t-179.5 584l-18 60l170 -11l168 11q109 -457 270 -1024q68 203 242 680q70 199 112 344l103 -6l102 6
q45 -169 165 -526t161 -498q18 59 124 396t179 628l96 -6l94 6q-276 -751 -477 -1405q-88 10 -105 10z" />
    <glyph glyph-name="X" unicode="X" horiz-adv-x="1251" 
d="M1194 -10l-178 10l-176 -10q-106 214 -271 522l-188 -295q-85 -137 -127 -223l-102 6l-103 -6q192 267 443 647l-420 754l182 -11l182 11q65 -142 254 -496q154 248 309 496l101 -6l102 6l-436 -617l27 -47q101 -183 207 -373t194 -368z" />
    <glyph glyph-name="Y" unicode="Y" horiz-adv-x="1251" 
d="M1214 1395q-337 -587 -430 -772v-633l-153 10l-154 -10v592q-83 143 -440 813l184 -11l185 11l174 -365q95 -203 129 -246q78 97 307 611l100 -6z" />
    <glyph glyph-name="Z" unicode="Z" horiz-adv-x="1251" 
d="M1190 84q0 -14 10 -84h-1151v35q381 590 725 1186v26q-134 0 -382 -11t-259 -11q10 73 10 93t-10 77h1069v-35q-235 -357 -415 -675q-181 -317 -295 -517v-21q147 0 390.5 11.5t317.5 11.5q-10 -72 -10 -86z" />
    <glyph glyph-name="bracketleft" unicode="[" horiz-adv-x="681" 
d="M170 -266v1812h430v-112l-225 10v-1608l225 10v-112h-430z" />
    <glyph glyph-name="backslash" unicode="\" horiz-adv-x="1064" 
d="M1016 0h-205l-762 1546l144 -2h38q15 2 23 2z" />
    <glyph glyph-name="bracketright" unicode="]" horiz-adv-x="681" 
d="M512 1546v-1812h-430v112l225 -10v1608l-225 -10v112h430z" />
    <glyph glyph-name="asciicircum" unicode="^" horiz-adv-x="1241" 
d="M301 569h-195l422 826h185l422 -826h-195l-319 602z" />
    <glyph glyph-name="underscore" unicode="_" horiz-adv-x="1024" 
d="M1024 -328h-1024v78h1024v-78z" />
    <glyph glyph-name="grave" unicode="`" horiz-adv-x="681" 
d="M16 1403q0 41 26 66.5t68 25.5t69.5 -16.5t62.5 -57.5l264 -305h-115l-268 166q-61 41 -70 47q-37 33 -37 74z" />
    <glyph glyph-name="a" unicode="a" horiz-adv-x="1024" 
d="M119 864q145 137 405 137q128 0 232 -59q131 -74 131 -215v-557q0 -57 21.5 -76.5t82.5 -19.5v-47q-121 -56 -188 -56q-66 0 -120 40t-79 110q-41 -72 -110.5 -111t-151.5 -39q-131 0 -212 71t-81 205q0 133 82 195t293 113q114 29 149 53q31 32 31 92t-61 114t-141 54
t-155 -45t-87 -82h-15zM449 104q155 0 155 224v198q-62 -23 -114 -41t-103 -59t-51 -158q0 -164 113 -164z" />
    <glyph glyph-name="b" unicode="b" 
d="M111 0v1546q88 -10 130 -10t152 10v-706q41 76 114 118.5t161 42.5q190 0 296 -141t107 -340q0 -255 -117 -389q-135 -160 -346 -160q-86 0 -160.5 37t-119.5 107q-35 -20 -176 -115h-41zM548.5 868q-155.5 0 -155.5 -389q0 -172 21 -254q41 -162 159 -162
q94 0 144.5 113t50.5 291t-23 256q-41 145 -196.5 145z" />
    <glyph glyph-name="c" unicode="c" horiz-adv-x="1024" 
d="M707 104q129 0 213 97l34 -29l-49 -123q-37 -33 -125 -55.5t-151 -22.5q-245 0 -391 130t-146 372t147.5 385t375.5 143t368 -92l-78 -213h-49q-12 92 -66 152t-143 61q-129 0 -198 -143q-53 -111 -54 -258q0 -404 312 -404z" />
    <glyph glyph-name="d" unicode="d" 
d="M563 868q-115 0 -164 -145q-33 -98 -32 -357.5t180 -261.5q117 0 166 150q33 98 32 248q0 366 -182 366zM883 0q-25 0 -135 -10v180q-72 -199 -282 -199t-314 158q-88 133 -88 351t96 362q106 160 301 160t276 -148v692q88 -10 128 -10t155 10v-1556q-112 10 -137 10z
" />
    <glyph glyph-name="e" unicode="e" horiz-adv-x="1024" 
d="M659 104q125 0 240 93l25 -19l-45 -115q-131 -92 -293 -92q-252 0 -383 141.5t-131 379.5t126 373.5t348 135.5q415 0 415 -516h-586q0 -381 284 -381zM678 584q0 325 -135 325q-98 0 -140 -121q-28 -83 -28 -204h303z" />
    <glyph glyph-name="f" unicode="f" horiz-adv-x="645" 
d="M325 0q-40 0 -155 -10v862h-152q4 20 5 63v25q0 10 -5 43h152q30 208 101 331q71 124 147 177t184 53h28q27 0 70 -8q-10 -58 -10 -120v-58q0 -58 2 -82l-26 -10q-112 57 -169 57t-80.5 -2.5t-36.5 -16.5q-12 -14 -22 -24t-10 -27q0 -69 90 -270h207q-4 -37 -4 -59t4 -72
h-192v-862q-88 10 -128 10z" />
    <glyph glyph-name="g" unicode="g" horiz-adv-x="1024" 
d="M496 926q-140 0 -140 -273q0 -119 36 -176t95 -57q84 0 115 100q18 59 19 172q0 234 -125 234zM70 688q0 313 458 313l209 -6h248l-2 -94l-184 6q109 -92 108 -229q0 -166 -119 -251t-313 -85h-35q-41 0 -60.5 -21.5t-19.5 -46.5q0 -108 166 -108l176 -6q301 0 299 -264
q-1 -212 -159 -324t-379 -113q-158 0 -266 56q-141 72 -142 217q0 82 45 141t123 88l31 19l-14 16q-100 35 -101 151q0 66 52.5 128.5t107.5 76.5l31 8q-260 61 -260 328zM242 -227q0 -113 80 -171t192 -58t183 68.5t71 158.5q0 129 -94 172q-59 27 -179 27t-163 -19
q-62 -27 -80 -103q-10 -23 -10 -75z" />
    <glyph glyph-name="h" unicode="h" 
d="M240 1536q40 0 155 10v-704q59 68 141 114t162 45q143 0 240 -94q53 -51 69.5 -110.5t16.5 -149.5v-657q-88 10 -128 10t-155 -10v510q0 166 -28 235q-39 94 -140 94q-123 0 -159 -135q-18 -66 -19 -233v-471q-88 10 -130 10t-152 -10v1556q87 -10 127 -10z" />
    <glyph glyph-name="i" unicode="i" horiz-adv-x="569" 
d="M123 1356q0 64 47 114t112.5 50t114.5 -48t49 -114t-48 -114t-115.5 -48t-113.5 48t-46 112zM271 973q40 0 155 10v-993q-88 10 -128 10t-155 -10v993q88 -10 128 -10z" />
    <glyph glyph-name="j" unicode="j" horiz-adv-x="569" 
d="M283 1196q-68 0 -113 47t-45 114t44 115t115 48t118 -45t47 -117t-49 -117t-117 -45zM273 973q40 0 155 10v-999q0 -104 -33 -171t-107 -125q-139 -109 -282 -108l-22 70q100 31 131 100t30 205v1028q88 -10 128 -10z" />
    <glyph glyph-name="k" unicode="k" horiz-adv-x="1024" 
d="M251 1536q42 0 152 10v-1001q6 -6 19 -2q88 87 206 225t187 215q73 -10 88 -10q16 0 86 10v-14q-49 -61 -125 -140q-207 -209 -217 -221l164 -262q114 -180 201 -340v-16l-156 10l-156 -10q-115 224 -239 409q-12 18 -24.5 38t-33.5 30v-477q-88 10 -127 10
q-40 0 -155 -10v1556q88 -10 130 -10z" />
    <glyph glyph-name="l" unicode="l" horiz-adv-x="569" 
d="M271 1536q40 0 155 10v-1556q-88 10 -128 10t-155 -10v1556q88 -10 128 -10z" />
    <glyph glyph-name="m" unicode="m" horiz-adv-x="1705" 
d="M695 1001q93 0 165 -48t105 -138q123 186 302 186t254 -92t74 -266v-653q-88 10 -130 10t-152 -10v555q0 170 -38 227t-125 57t-122 -55t-35 -164v-620q-88 10 -130 10t-152 -10v555q0 170 -38 227t-112 57q-170 0 -170 -241v-598q-88 10 -127 10q-40 0 -155 -10v993
q87 -10 130 -10q42 0 152 10v-154q45 76 128 124t176 48z" />
    <glyph glyph-name="n" unicode="n" 
d="M233 973q37 0 152 10v-152q148 170 323 170q174 0 250 -112q66 -96 66 -299v-600q-88 10 -128 10t-155 -10v510q0 166 -28 235q-39 94 -148 94t-147 -135q-23 -78 -23 -233v-471q-88 10 -127 10q-40 0 -155 -10v993q83 -10 120 -10z" />
    <glyph glyph-name="o" unicode="o" 
d="M580 909q-209 0 -209 -423t194 -423q109 0 160 154q43 127 43 309q0 382 -188 383zM1071 504q0 -234 -135 -384q-134 -150 -366 -149q-232 0 -367 133.5t-135 369.5t132 381.5t366 145.5t369.5 -131.5t135.5 -365.5z" />
    <glyph glyph-name="p" unicode="p" 
d="M237 973q40 0 150 10v-180q78 198 282 198t310 -151q92 -130 92 -368t-119 -374t-290 -137q-171 0 -265 148v-649q-88 10 -127 10q-40 0 -155 -10v1513q82 -10 122 -10zM768 493q0 179 -40 277t-138 98q-117 0 -166 -149q-33 -101 -33 -245q0 -370 187 -370
q94 10 142 110.5t48 278.5z" />
    <glyph glyph-name="q" unicode="q" 
d="M567 104q187 0 187 370q0 144 -31 241q-49 154 -168 153q-178 0 -178 -370q0 -51 8 -144q0 -88 49 -168t133 -82zM900 -520q-42 0 -152 -10v649q-95 -148 -274 -148t-289.5 137.5t-110.5 373.5t96 378t301 142t287 -199v180q83 -10 122 -10q40 0 150 10v-1513
q-88 10 -130 10z" />
    <glyph glyph-name="r" unicode="r" horiz-adv-x="796" 
d="M265 973q40 0 155 10v-254q36 127 114 200t220 72q-11 -97 -11 -278l-18 -16q-33 26 -104 26q-70 0 -131.5 -44t-65.5 -116.5t-4 -123.5v-459q-88 10 -128 10t-155 -10v993q88 -10 128 -10z" />
    <glyph glyph-name="s" unicode="s" horiz-adv-x="796" 
d="M366 76q70 0 120.5 35.5t50.5 89.5q0 76 -121 129q-203 90 -228 106q-125 88 -125 239.5t102.5 238.5t260.5 87t287 -96l-49 -180h-58q-12 70 -68.5 121t-121.5 51t-110.5 -29.5t-45.5 -89.5q0 -76 125 -127q199 -80 231 -102q125 -87 125 -241t-105.5 -245.5
t-277.5 -91.5t-295 84l31 195h51q29 -80 90 -127t131 -47z" />
    <glyph glyph-name="t" unicode="t" horiz-adv-x="681" 
d="M625 924v-37q4 -25 4 -35h-174v-584q0 -100 17.5 -142t69.5 -42t103 14v-80q-125 -47 -213 -47q-147 0 -209 95q-51 78 -51 237v549h-139q4 18 4 22v87q-4 14 -4 22h139v231q79 31 283 127v-358h174q-4 -37 -4 -59z" />
    <glyph glyph-name="u" unicode="u" 
d="M881 0q-23 0 -138 -10v149q-87 -92 -149 -130t-155 -38q-192 0 -281 127q-54 75 -54 238v647q87 -10 130 -10t153 10v-565q0 -66 3 -101.5t20 -68.5q42 -107 152 -107t149 105q23 61 22 203v534q87 -10 128 -10q40 0 155 10v-993q-112 10 -135 10z" />
    <glyph glyph-name="v" unicode="v" horiz-adv-x="1024" 
d="M496 0q-18 0 -103 -10q-165 486 -219 630q-55 144 -141 363l157 -10l158 10l230 -711q171 457 249 711l82 -6l80 6q2 -13 -19 -59q-22 -45 -72 -163q-209 -496 -296 -771q-88 10 -106 10z" />
    <glyph glyph-name="w" unicode="w" horiz-adv-x="1593" 
d="M878 973q28 0 101 10l209 -702q115 340 209 702l82 -6l80 6q-222 -569 -345 -993q-92 10 -108 10t-111 -10l-207 678q-156 -482 -210 -678q-92 10 -111 10q-18 0 -113 -10q-181 610 -319 993l149 -10l152 10l205 -702q118 359 209 702l50 -5q50 -5 78 -5z" />
    <glyph glyph-name="x" unicode="x" horiz-adv-x="1024" 
d="M59 983l166 -10l168 10q126 -234 176 -321q153 222 213 321l92 -6l93 6q-164 -199 -334 -422l112 -192q113 -190 228 -379l-168 10l-166 -10l-197 356q-152 -230 -227 -352l-82 6l-82 -6l326 452q-83 150 -141 245t-177 292z" />
    <glyph glyph-name="y" unicode="y" horiz-adv-x="1024" 
d="M39 983l156 -10l155 10q99 -280 246 -637l78 209q39 104 80 210.5t75 217.5l84 -6l84 6l-206 -469q-253 -573 -426 -1044l-86 6l-86 -6l260 528z" />
    <glyph glyph-name="z" unicode="z" horiz-adv-x="1024" 
d="M137 920l-10 63h836v-80l-181 -254q-260 -369 -362 -530q117 0 314 10t212 10q-10 -62 -10 -72t10 -67h-885v84q285 395 537 780q-113 0 -266.5 -10t-204.5 -10q10 63 10 76z" />
    <glyph glyph-name="braceleft" unicode="{" horiz-adv-x="681" 
d="M238 874v386q0 84 16 138t88.5 101t247.5 47h41q-111 -29 -150 -85t-39 -173v-379q0 -121 -43 -183t-163 -91q125 -27 166 -93t40 -194v-358q0 -111 41 -171.5t148 -84.5q-225 0 -309 59t-84 258v342q0 113 -36 164t-151 78q139 32 163 100.5t24 138.5z" />
    <glyph glyph-name="bar" unicode="|" horiz-adv-x="1241" 
d="M532 0v1546h177v-1546h-177z" />
    <glyph glyph-name="braceright" unicode="}" horiz-adv-x="681" 
d="M444 1225v-340q0 -113 36 -164t151 -76q-90 -21 -131 -68t-48.5 -80.5t-7.5 -90.5v-386q0 -84 -16 -138t-75 -92t-123 -47t-179 -9q111 27 150 83t39 173v381q0 121 42 183t164 91q-125 27 -166 92t-40 195v358q0 109 -41 170.5t-148 85.5q225 0 309 -60t84 -261z" />
    <glyph glyph-name="asciitilde" unicode="~" horiz-adv-x="1241" 
d="M391 512q-55 0 -110 -61q-29 -33 -78 -119l-99 112q78 142 149 194t148.5 52t239.5 -70.5t205 -70.5q102 0 192 166l99 -113q-128 -233 -295 -231q-68 1 -148 35t-164 70t-139 36z" />
    <glyph glyph-name="c128" horiz-adv-x="2048" 
 />
    <glyph glyph-name="c129" horiz-adv-x="2048" 
 />
    <glyph glyph-name="c141" horiz-adv-x="2048" 
 />
    <glyph glyph-name="c142" horiz-adv-x="569" 
 />
    <glyph glyph-name="c143" horiz-adv-x="2048" 
 />
    <glyph glyph-name="c144" 
d="M274 973l123 8v-623q180 228 418 623l107 -6l102 6v-989l-141 8q-49 0 -142 -8v631q-225 -287 -417 -631l-103 8l-106 -8v989q118 -8 159 -8z" />
    <glyph glyph-name="c157" horiz-adv-x="2048" 
 />
    <glyph glyph-name="c158" horiz-adv-x="2048" 
 />
    <glyph glyph-name="nonbreakingspace" unicode="&#xa0;" horiz-adv-x="1024" 
 />
    <glyph glyph-name="exclamdown" unicode="&#xa1;" horiz-adv-x="2048" 
 />
    <glyph glyph-name="cent" unicode="&#xa2;" horiz-adv-x="2048" 
 />
    <glyph glyph-name="sterling" unicode="&#xa3;" horiz-adv-x="2048" 
 />
    <glyph glyph-name="currency" unicode="&#xa4;" 
d="M625 987q-121 0 -208 -85t-87 -208t88 -207t208 -84t203.5 86t83.5 204t-83.5 206t-204.5 88zM115 702q0 154 86 275l-99 96l136 139l100 -98q125 88 283 88t282 -88l98 98l136 -139l-99 -96q90 -117 90 -281t-88 -280l99 -99l-135 -137l-99 99q-125 -91 -288 -91
t-281 91l-98 -99l-136 137l99 99q-86 132 -86 286z" />
    <glyph glyph-name="yen" unicode="&#xa5;" 
d="M587 0q-40 0 -155 -10v342h-379v164h379v77l-59 107h-320v164h232q-125 244 -176 346t-109 205l178 -11q68 0 178 11l168 -365q91 -196 125 -246q88 114 297 611l98 -6l95 6q-90 -169 -318 -551h273v-164h-346l-33 -70v-114h379v-164h-379v-342q-88 10 -128 10z" />
    <glyph glyph-name="brokenbar" unicode="&#xa6;" horiz-adv-x="1241" 
d="M532 0v580h177v-580h-177zM532 967v579h177v-579h-177z" />
    <glyph glyph-name="section" unicode="&#xa7;" 
d="M864 499q0 58 -57 107q-31 26 -143 82t-173 87.5t-120 72.5q-68 -53 -68 -131t111 -144q71 -43 268 -122q66 -31 127 -70q55 60 55 118zM557 -143q76 0 140.5 47.5t64.5 111.5t-28 96t-73 56t-184 84t-233 123q-49 31 -74 100t-25 143t49.5 153t122.5 128q-94 76 -94 193
q0 160 107.5 250t251.5 90t212 -19.5t167 -89.5q-38 -65 -89 -170h-26q-10 61 -73 115t-151 55q-88 0 -135 -41t-47 -103t56 -110q24 -21 346 -182q182 -99 182 -273q0 -82 -41 -148t-113 -130q119 -82 119 -221q0 -109 -67.5 -199t-173.5 -131q-108 -37 -204 -37
q-210 0 -366 105q29 106 37 215h37q105 -211 305 -211z" />
    <glyph glyph-name="dieresis" unicode="&#xa8;" horiz-adv-x="1024" 
d="M318 1546q-52 0 -95 41t-43 92t41 92t95 41t93.5 -38t39.5 -94t-39.5 -95t-91.5 -39zM747 1812q52 0 91 -40.5t39 -94t-37 -92.5t-91 -39t-95.5 39t-41.5 92.5t41.5 94t93.5 40.5zM930 99q0 -19 10 -99h-780v1395h780q-10 -58 -10 -80t4 -51t6 -45q-212 28 -475 28v-442
h215q86 0 252 18q-10 -50 -10 -75t4 -53.5t6 -45.5q-121 16 -252 17h-215v-519q255 0 475 29q-10 -58 -10 -77z" />
    <glyph glyph-name="copyright" unicode="&#xa9;" horiz-adv-x="1536" 
d="M367 674q0 214 125 324t325 110q128 0 234 -55l-27 -119h-16q-72 106 -196 106t-190 -103t-67 -251q0 -148 69.5 -239t200.5 -91q51 0 107.5 24.5t95.5 61.5l14 -6l-24 -98q-89 -51 -225 -51q-186 0 -306 105.5t-120 281.5zM767 1319q-249 0 -419 -182.5t-170 -440.5
t171 -439t418 -181t419 180t172 440t-171 441.5t-420 181.5zM766 -37q-295 0 -503 214t-208 519t207 520.5t504 215.5t506 -215.5t209 -520.5t-210 -519t-505 -214z" />
    <glyph glyph-name="ordfeminine" unicode="&#xaa;" horiz-adv-x="2048" 
 />
    <glyph glyph-name="guillemotleft" unicode="&#xab;" horiz-adv-x="1024" 
d="M735 145q-191 302 -260 400q109 164 260 403q31 -31 63 -49t70 -41q-129 -162 -229 -311q131 -180 143.5 -197.5t87.5 -111.5q-56 -22 -135 -93zM432 145q-191 302 -260 400q109 164 260 403q30 -31 62 -49t71 -41q-129 -162 -229 -311q131 -180 143.5 -197.5
t87.5 -111.5q-56 -22 -135 -93z" />
    <glyph glyph-name="logicalnot" unicode="&#xac;" horiz-adv-x="1241" 
d="M961 233v402h-857v176h1033v-578h-176z" />
    <glyph glyph-name="minus" unicode="&#xad;" horiz-adv-x="2048" 
 />
    <glyph glyph-name="registered" unicode="&#xae;" horiz-adv-x="1536" 
d="M670 1032v-321q102 0 148 40t46 134q0 95 -34 121t-97 26h-63zM510 1108h305q106 0 165.5 -51t59.5 -141t-48 -145.5t-136 -74.5q83 -148 203 -334l45 -75l-92 6l-92 -6l-213 385h-37v-385l-80 6l-80 -6v821zM767 1319q-249 0 -419 -180.5t-170 -439.5t170 -441t419 -182
t419 182t170 441t-170 439.5t-419 180.5zM769 -37q-296 0 -505 215t-209 520t208 519.5t504 214.5t504 -214t208 -520t-207 -520.5t-503 -214.5z" />
    <glyph glyph-name="macron" unicode="&#xaf;" horiz-adv-x="2048" 
 />
    <glyph glyph-name="degree" unicode="&#xb0;" horiz-adv-x="819" 
d="M604 1064q0 81 -57 138.5t-137 57.5t-137.5 -57.5t-57.5 -138.5t56.5 -137.5t138.5 -56.5t138 56.5t56 137.5zM717 1065q0 -127 -90 -217t-217 -90t-217.5 90t-90.5 217t90.5 217t217.5 90t217 -90t90 -217z" />
    <glyph glyph-name="plusminus" unicode="&#xb1;" horiz-adv-x="1241" 
d="M1137 0h-1033v176h1033v-176zM532 748v286h177v-286h428v-177h-428v-297h-177v297h-428v177h428z" />
    <glyph glyph-name="twosuperior" unicode="&#xb2;" horiz-adv-x="2048" 
 />
    <glyph glyph-name="threesuperior" unicode="&#xb3;" horiz-adv-x="2048" 
 />
    <glyph glyph-name="acute" unicode="&#xb4;" horiz-adv-x="681" 
d="M570 1495q48 0 73 -25.5t25 -66.5t-35 -72q-10 -8 -72 -49l-268 -166h-115l264 305q31 37 43 45q37 29 85 29z" />
    <glyph glyph-name="mu" unicode="&#xb5;" 
d="M881 0q-23 0 -138 -10v149q-87 -92 -149 -130t-162 -38q-25 0 -45 13v-514q-88 10 -128 10t-155 -10v1513q87 -10 130 -10t153 10v-565q0 -133 39 -205t129 -72q117 0 156 105q23 61 22 203v534q87 -10 128 -10q40 0 155 10v-993q-112 10 -135 10z" />
    <glyph glyph-name="paragraph" unicode="&#xb6;" horiz-adv-x="1433" 
d="M469 1098v-140q0 -131 43 -178t121 -47v567q-100 0 -132 -48t-32 -154zM1124 1300v-1488l-92 6l-94 -6v1488h-119v-1488l-92 6l-94 -6v860l-70 -4q-188 0 -296.5 94t-108.5 267t94 261q113 104 360 105h613v-95h-101z" />
    <glyph glyph-name="periodcentered" unicode="&#xb7;" horiz-adv-x="569" 
d="M287 309q-70 0 -120 50.5t-50 118.5t49 117.5t118 49.5t119 -48t50 -117.5t-48 -120t-118 -50.5z" />
    <glyph glyph-name="periodcentered" unicode="&#x2219;" horiz-adv-x="569" 
d="M287 309q-70 0 -120 50.5t-50 118.5t49 117.5t118 49.5t119 -48t50 -117.5t-48 -120t-118 -50.5z" />
    <glyph glyph-name="cedilla" unicode="&#xb8;" horiz-adv-x="1024" 
d="M678 584q0 327 -135 327q-98 0 -140 -123q-28 -83 -28 -204h303zM659 104q125 0 240 93l23 -19l-43 -115q-131 -92 -293 -92q-252 0 -383 141.5t-131 379.5t125 373.5t347 135.5q417 0 417 -516h-586q0 -381 284 -381zM299 1135q-53 0 -94 41t-41 93t39 91t92 39t94 -39
t41 -93t-39 -93t-92 -39zM729 1399q53 0 92 -39t39 -92.5t-38 -93t-93 -39.5t-95 39.5t-40 93t41 92.5t94 39z" />
    <glyph glyph-name="onesuperior" unicode="&#xb9;" horiz-adv-x="702" 
d="M45 567v103h612v-103h-612zM357 1380q-98 0 -136 -174q-6 -37 -6 -71v-23q0 -90 23 -154q33 -94 110 -94q53 0 96 52t43 239l-4 62q-6 63 -36 113t-90 50zM352 1432q64 0 131.5 -19.5t108.5 -60.5t63.5 -100.5t22.5 -116.5q0 -143 -87 -232.5t-240 -89.5t-239.5 79
t-86.5 221t90 228q39 41 106 66t131 25z" />
    <glyph glyph-name="ordmasculine" unicode="&#xba;" horiz-adv-x="2048" 
 />
    <glyph glyph-name="guillemotright" unicode="&#xbb;" horiz-adv-x="1024" 
d="M289 948q185 -293 260 -399q-121 -182 -260 -404q-31 31 -133 91q129 162 229 311q-131 180 -143.5 197.5t-87.5 111.5q58 23 135 92zM592 948q185 -293 260 -399q-121 -182 -260 -404q-31 31 -133 91q129 162 229 311q-131 180 -143.5 197.5t-87.5 111.5q58 23 135 92z
" />
    <glyph glyph-name="onequarter" unicode="&#xbc;" horiz-adv-x="2048" 
 />
    <glyph glyph-name="onehalf" unicode="&#xbd;" horiz-adv-x="2048" 
 />
    <glyph glyph-name="threequarters" unicode="&#xbe;" horiz-adv-x="2048" 
 />
    <glyph glyph-name="questiondown" unicode="&#xbf;" horiz-adv-x="2048" 
 />
    <glyph glyph-name="Agrave" unicode="&#xc0;" horiz-adv-x="1366" 
d="M420 543h375l-183 477zM1339 -8l-178 8l-174 -8q-91 289 -145 426h-477q-108 -302 -144 -424l-96 6l-98 -6l585 1419l78 -6l78 6z" />
    <glyph glyph-name="Aacute" unicode="&#xc1;" horiz-adv-x="1251" 
d="M483 678v-563q41 2 137 6.5t153.5 95t57.5 200.5t-59 185.5t-141 75.5h-148zM1071 1306q0 -40 10 -87q-218 28 -598 28v-456h217q217 0 333 -87.5t116 -259.5q0 -444 -541 -444h-432v1395h905q-10 -49 -10 -89z" />
    <glyph glyph-name="Acircumflex" unicode="&#xc2;" horiz-adv-x="1251" 
d="M176 0v1395h529q176 0 280 -66q127 -80 127 -246q0 -135 -97 -220t-239 -105v-19q147 -16 240 -80q129 -88 129 -258q0 -199 -156 -307q-135 -94 -340 -94h-473zM481 674v-555h105q92 0 166.5 72.5t74.5 214.5t-85 204q-85 64 -261 64zM481 793h66q63 0 99 8t98.5 64.5
t62.5 179.5q0 237 -219 237l-107 -6v-483z" />
    <glyph glyph-name="Atilde" unicode="&#xc3;" horiz-adv-x="1024" 
d="M948 1315q0 -22 4 -51t6 -45q-240 28 -475 28v-1255l-37 2l-270 -2v1403h782q-10 -58 -10 -80z" />
    <glyph glyph-name="Adieresis" unicode="&#xc4;" horiz-adv-x="1366" 
d="M272 147q164 -8 331 -8t315 8q-68 203 -151 424.5t-163 438.5q-230 -567 -332 -863zM995 0h-604q-141 0 -226 -11.5t-124 -60.5h-31q10 42 10 95q0 54 -10 124h88q333 766 506 1252l86 -8l88 8q179 -497 486 -1252h98l-12 -108q0 -60 12 -111h-31q-37 45 -127 58.5
t-209 13.5z" />
    <glyph glyph-name="Aring" unicode="&#xc5;" horiz-adv-x="1024" 
d="M928 99q0 -19 10 -99h-782v1395h782q-10 -58 -10 -80t4 -51t6 -45q-212 28 -475 28v-442h215q86 0 252 18q-10 -50 -10 -75t4 -53.5t6 -45.5q-121 16 -252 17h-215v-519q253 0 475 29q-10 -58 -10 -77z" />
    <glyph glyph-name="AE" unicode="&#xc6;" horiz-adv-x="1820" 
d="M143 1382q39 0 93 13q339 -432 522 -641v641q155 -26 303 0v-641q145 168 522 641q93 -23 219 0v-17q-198 -188 -409 -428q-74 -82 -121 -139l571 -793v-26l-174 8l-174 -8l-434 649v-649l-152 8q-86 0 -151 -8v649l-434 -649l-174 8l-175 -8v26l572 793
q-263 311 -531 567v17q88 -13 127 -13z" />
    <glyph glyph-name="Ccedilla" unicode="&#xc7;" horiz-adv-x="1251" 
d="M485 805q143 0 203 75t60 191t-41 184q-53 88 -163 88t-162 -68t-75 -188l-35 -2q-150 136 -163 146q80 117 194.5 163t274.5 46q238 0 367.5 -94.5t129.5 -249.5q0 -270 -301 -346q176 -37 250 -88q117 -82 117 -269t-167 -305.5t-427 -118.5q-139 0 -266 42t-213 126
q99 107 153 182l33 -2q16 -109 84 -179t192 -70t205 95q80 95 80 212q0 297 -283 299q-37 0 -124 -12v147q46 -4 77 -4z" />
    <glyph glyph-name="Egrave" unicode="&#xc8;" horiz-adv-x="1593" 
d="M330 -8q-14 2 -21 2h-59q-51 0 -74 -2v1403l154 -13l153 13v-961q173 182 401 467t378 498q33 -4 53 -4l102 4v-1407l-155 8l-152 -8v969q-178 -203 -402.5 -481.5t-377.5 -487.5z" />
    <glyph glyph-name="Eacute" unicode="&#xc9;" horiz-adv-x="1593" 
d="M802 1554q238 0 435 197l80 -104q-225 -226 -521 -226t-509 213l84 113q193 -193 431 -193zM330 -8q-14 2 -21 2h-59q-51 0 -74 -2v1403l154 -13l153 13v-961q173 182 401 467t378 498q33 -4 53 -4l102 4v-1407l-155 8l-152 -8v969q-178 -203 -402.5 -481.5
t-377.5 -487.5z" />
    <glyph glyph-name="Ecircumflex" unicode="&#xca;" horiz-adv-x="1251" 
d="M330 0l-154 -8v1403l38 -3l269 3v-641q266 305 533 641l110 -13q15 0 109 13v-17q-194 -184 -410 -428q-74 -82 -120 -139l571 -793v-26l-174 8l-174 -8l-445 649v-649z" />
    <glyph glyph-name="Edieresis" unicode="&#xcb;" horiz-adv-x="1366" 
d="M604 1397l86 -8l88 8q194 -531 549 -1403l-45 3l-315 -3q-63 212 -165 486t-198 528q-251 -612 -381 -1014l-96 6l-94 -6q98 231 260 607t311 796z" />
    <glyph glyph-name="Igrave" unicode="&#xcc;" horiz-adv-x="1818" 
d="M825 4q-10 0 -30 -4q-117 246 -244 504t-205 418q-86 -641 -86 -930l-56 4q-57 4 -94.5 0t-41.5 -4q44 242 109 697q65 454 102 706q41 -6 83 -13q19 0 84 13q202 -433 474 -963q76 150 210 410t267 553q41 -6 84 -13q15 0 90 13q43 -379 87 -754t93 -649l-172 8l-164 -8
q0 193 -30.5 454t-57.5 496q-39 -76 -167 -338t-159 -328q-32 -66 -129 -276q-37 4 -47 4z" />
    <glyph glyph-name="Iacute" unicode="&#xcd;" horiz-adv-x="1593" 
d="M330 0l-154 -8v1403l154 -13l153 13v-555l314 -11q104 0 313 11v555l152 -13l155 13v-1403l-155 8l-152 -8v684l-313 8q-82 0 -314 -8v-684z" />
    <glyph glyph-name="Icircumflex" unicode="&#xce;" horiz-adv-x="1705" 
d="M863 1309q-216 0 -334 -168t-117 -506q0 -225 98 -375q115 -174 334 -174t336 190q116 190 116 440t-98 406q-119 187 -335 187zM1636 689q0 -298 -220 -512t-576 -214t-562 192.5t-206 524.5t216 542t601 210t586 -246q161 -199 161 -497z" />
    <glyph glyph-name="Idieresis" unicode="&#xcf;" horiz-adv-x="1593" 
d="M1317 1393q37 0 78 2h22v-1403l-155 8l-152 -8v1249l-313 6l-314 -6v-1249l-153 8l-154 -8v1403l621 -2h520z" />
    <glyph glyph-name="Eth" unicode="&#xd0;" 
d="M483 1282v-563q72 0 135 14q183 53 183 279q0 121 -54.5 195.5t-136.5 74.5h-127zM176 1395h504q438 0 438 -346q0 -254 -178 -359q-148 -86 -457 -86v-612l-39 2l-268 -2v1403z" />
    <glyph glyph-name="Ntilde" unicode="&#xd1;" horiz-adv-x="1366" 
d="M823 -37q-336 0 -553 190t-217 500q0 383 240 590q219 188 575 189q232 0 418 -101l-47 -211h-29q-57 82 -150 135.5t-190 53.5q-238 0 -366 -201q-111 -172 -111 -434t127 -425t361 -163q96 0 195 42t171 112l27 -13l-45 -176q-176 -88 -406 -88z" />
    <glyph glyph-name="Ograve" unicode="&#xd2;" 
d="M51 1307q0 13 -10 88h1055q-6 -43 -13 -86q0 -23 13 -88q-233 28 -367 28v-1257l-154 8l-153 -8v1257q-159 0 -381 -28q10 73 10 86z" />
    <glyph glyph-name="Oacute" unicode="&#xd3;" horiz-adv-x="1366" 
d="M37 1395l46 -3l323 3q34 -69 202 -358q168 -290 191 -335q81 126 331 693l101 -6l98 6q-59 -107 -213 -405q-387 -752 -481 -998l-86 8l-88 -6q34 57 186 371q-59 127 -131 245t-246 398t-233 387z" />
    <glyph glyph-name="Ocircumflex" unicode="&#xd4;" horiz-adv-x="1820" 
d="M430 682q0 -188 89 -314t239 -126v905q-152 0 -240 -138.5t-88 -326.5zM1393 716q0 180 -87 305q-87 126 -241 126l-2 -897q150 0 240 143t90 323zM758 135q-320 0 -502 140q-182 139 -182 405t180 419t504 152v144l153 -13l154 13v-138q360 0 537 -174
q147 -145 147 -388t-183.5 -398.5t-502.5 -155.5l2 -149l-154 8l-153 -8v143z" />
    <glyph glyph-name="Otilde" unicode="&#xd5;" horiz-adv-x="1251" 
d="M1194 -8l-178 8l-176 -8q-63 127 -141 274t-130 246l-188 -295q-77 -117 -127 -223l-102 6l-101 -6q294 421 441 647l-420 754l182 -13l182 13q65 -142 254 -496q154 248 309 496l101 -6l100 6l-436 -617l29 -47q100 -182 201.5 -363.5t199.5 -375.5z" />
    <glyph glyph-name="Odieresis" unicode="&#xd6;" horiz-adv-x="1593" 
d="M1567 36q0 -50 12 -108h-31q-37 45 -128 58.5t-208 13.5h-413q-271 0 -623 -8v1405l154 -8l153 8v-1247l316 -7q187 0 311 7v1247l152 -8l155 8v-1250h162q-12 -61 -12 -111z" />
    <glyph glyph-name="multiply" unicode="&#xd7;" horiz-adv-x="1478" 
d="M519 528q-144 0 -272 92t-128 240v535l153 -13l154 13v-535q0 -86 80 -125q59 -29 158 -28q138 0 331 133v555l152 -13l156 13v-1403l-156 8l-152 -8v684q-127 -76 -229 -112t-247 -36z" />
    <glyph glyph-name="Oslash" unicode="&#xd8;" horiz-adv-x="1933" 
d="M1122 147q51 0 168 -6q65 0 164 6v1248l152 -9l155 9v-1405l-792 10q-363 0 -793 -10v1405l154 -9l153 9v-1248l166 -6q67 0 166 6v1248l154 -13l153 13v-1248z" />
    <glyph glyph-name="Ugrave" unicode="&#xd9;" horiz-adv-x="1933" 
d="M1911 36q0 -50 12 -108h-31q-37 45 -128 58.5t-208 13.5h-587q-333 0 -793 -8v1405l154 -8l153 8v-1247l166 -7q89 0 166 7v1247l154 -13l153 13v-1247q32 0 168 -7q87 0 164 7v1247l152 -8l155 8v-1250h162q-12 -61 -12 -111z" />
    <glyph glyph-name="Uacute" unicode="&#xda;" horiz-adv-x="1214" 
d="M557 678v-563q33 2 122 7t155 111q40 70 40 183t-54 187.5t-136 74.5h-127zM1192 444q0 -444 -530 -444h-412v1249q-113 0 -145.5 -4t-145.5 -24q10 25 10 84t-10 90h598v-604h197q438 0 438 -347z" />
    <glyph glyph-name="Ucircumflex" unicode="&#xdb;" horiz-adv-x="1779" 
d="M481 678v-563q33 2 122 7t155 111q41 70 41 183t-54.5 187.5t-136.5 74.5h-127zM1454 0l-154 -8v1403l154 -13l154 13v-1403zM481 791h197q438 0 438 -347q0 -444 -530 -444h-412v1403l154 -8l153 8v-612z" />
    <glyph glyph-name="Udieresis" unicode="&#xdc;" 
d="M463 678v-563q33 2 122 7t154 111q41 70 41 183t-54 187.5t-136 74.5h-127zM463 791h196q438 0 439 -347q0 -444 -531 -444h-411v1403l153 -8l154 8v-612z" />
    <glyph glyph-name="Yacute" unicode="&#xdd;" horiz-adv-x="1366" 
d="M502 805h463q-27 219 -136 350q-125 154 -333 154q-98 0 -189.5 -50.5t-150.5 -138.5h-29l-47 211q82 45 199.5 73t218.5 28q356 0 575 -189q240 -207 240 -590q0 -311 -217 -500.5t-553 -189.5q-234 0 -406 88l-45 176l27 13q72 -68 171 -111t195 -43q229 0 358.5 160
t129.5 420h-471q-131 0 -252 -17l10 88q0 18 -5 49t-5 37q162 -18 252 -18z" />
    <glyph glyph-name="Thorn" unicode="&#xde;" horiz-adv-x="2199" 
d="M1381 1309q-200 0 -306 -168t-106 -506q0 -227 86 -375q102 -174 305 -174t313 199q99 179 99 431t-86 406q-105 187 -305 187zM1395 1432q381 0 569 -246q147 -193 147 -494q1 -301 -207 -515t-546 -214t-534 185t-195 518l-72 4l-74 -4v-674l-153 8l-154 -8v1403
l154 -13l153 13v-566l109 -2h29q12 2 20 2q45 271 243 437t511 166z" />
    <glyph glyph-name="germandbls" unicode="&#xdf;" horiz-adv-x="1251" 
d="M791 735v547h-62q-109 0 -156 -20q-104 -45 -104 -234q0 -295 270 -295h31q15 2 21 2zM152 1061q0 200 178 293q80 41 295 41h473v-1403l-154 8l-153 -8v653h-15q-75 -119 -131 -225l-246 -428l-184 8q-33 0 -94.5 -4t-89.5 -4l80 125q273 424 360 575q-151 33 -235 126
t-84 243z" />
    <glyph glyph-name="agrave" unicode="&#xe0;" horiz-adv-x="1024" 
d="M446 104q158 0 158 222v198q-62 -20 -114 -38t-90 -47t-51 -71t-13 -105t25.5 -111t84.5 -48zM119 864q141 137 403 137q128 0 234 -59q129 -72 129 -213v-561q0 -53 22.5 -73.5t83.5 -20.5v-47q-122 -56 -190 -56t-120 39t-77 111q-41 -72 -110.5 -111t-151.5 -39
q-131 0 -211 70t-80 204q0 133 82 197t291 115q103 25 149 53q31 32 31 92t-61 114t-141 54t-155 -45t-87 -82h-15z" />
    <glyph glyph-name="aacute" unicode="&#xe1;" 
d="M590 911q-108 0 -164 -121q-55 -122 -55 -292t39 -279q55 -156 170 -156t174 156q51 133 51 309t-53.5 279.5t-161.5 103.5zM594 1001q226 0 370 -131.5t144 -363.5t-143.5 -383.5t-376.5 -151.5t-376.5 134.5t-143.5 359.5q0 580 185 755t802 175q-13 -58 -13 -82
t4.5 -48t8.5 -46q-125 27 -299 26q-270 0 -406 -110q-115 -94 -114 -254q132 120 358 120z" />
    <glyph glyph-name="acircumflex" unicode="&#xe2;" horiz-adv-x="1024" 
d="M115 981h428q162 0 252 -51q109 -61 108 -189q0 -82 -60.5 -142t-160.5 -71q133 -25 190 -67q82 -61 82 -191t-114 -202q-114 -70 -277 -70l-448 2v981zM397 879v-306h52q174 0 174 160q0 78 -42 112t-124 34h-60zM397 467v-358h64q90 0 147.5 45t57.5 137
q0 176 -205 176h-64z" />
    <glyph glyph-name="atilde" unicode="&#xe3;" horiz-adv-x="833" 
d="M397 862v-870l-141 8l-141 -8v989h704q-10 -31 -10 -69t10 -68q-189 18 -422 18z" />
    <glyph glyph-name="adieresis" unicode="&#xe4;" horiz-adv-x="1024" 
d="M240 119h397l-191 581q-59 -160 -104 -282t-102 -299zM1036 31q0 -49 11 -90h-21q-45 49 -140 54t-290 5h-178q-193 0 -285 -5t-147 -54h-19q10 30 10 89t-10 89h119l68 160q204 500 268 702l104 -8l105 8q180 -524 311 -862h105q-11 -39 -11 -88z" />
    <glyph glyph-name="aring" unicode="&#xe5;" horiz-adv-x="1024" 
d="M371 584h323q0 119 -26 204q-39 123 -119 123q-98 0 -146 -123q-32 -85 -32 -204zM676 104q124 0 239 93l23 -19l-43 -115q-131 -92 -293 -92q-254 0 -394 142.5t-140 380.5t129 372.5t353 134.5t326 -138t101 -378h-606q-1 -173 73 -277t232 -104z" />
    <glyph glyph-name="ae" unicode="&#xe6;" horiz-adv-x="1517" 
d="M772 971q82 0 127 10v-436q0 -2 19 -2q94 97 210 229t183 209l88 -8l86 8v-12q-55 -71 -191 -207t-153 -156l166 -260q104 -166 200 -340v-14l-155 8l-156 -8q-126 237 -240 407q-12 18 -24 38t-33 28v-473q-55 8 -139 8l-142 -8v473q-20 -9 -30 -25t-75 -114t-191 -334
l-156 8l-156 -8v14q96 174 201 340l166 260q-172 180 -344 363v12l86 -8l88 8q280 -322 393 -438l18 2v436q72 -10 154 -10z" />
    <glyph glyph-name="ccedilla" unicode="&#xe7;" horiz-adv-x="985" 
d="M109 197q73 -113 286 -113q98 0 166 51t68 144t-57.5 139.5t-155.5 46.5l-105 -4v121q54 -4 120 -4q65 0 108 45t43 125q0 162 -199 161q-76 0 -147.5 -28.5t-90.5 -77.5h-18q-18 72 -49 149q131 52 344 52t328.5 -65.5t115.5 -190.5q0 -98 -62.5 -153.5t-174.5 -66.5
q137 -18 213 -76.5t76 -186.5t-137.5 -208t-342.5 -80q-283 0 -393 66q12 37 27.5 80t19.5 74h17z" />
    <glyph glyph-name="egrave" unicode="&#xe8;" 
d="M274 973l123 8v-623q180 228 418 623l107 -6l102 6v-989l-141 8q-49 0 -142 -8v631q-225 -287 -417 -631l-103 8l-106 -8v989q118 -8 159 -8z" />
    <glyph glyph-name="eacute" unicode="&#xe9;" 
d="M566 1186q181 0 352 151l65 -88q-86 -84 -195.5 -129t-223.5 -45q-232 0 -408 172l67 90q162 -151 343 -151zM274 973l123 8v-623q180 228 418 623l107 -6l102 6v-989l-141 8q-49 0 -142 -8v631q-225 -287 -417 -631l-103 8l-106 -8v989q118 -8 159 -8z" />
    <glyph glyph-name="ecircumflex" unicode="&#xea;" horiz-adv-x="1024" 
d="M259 971q60 0 138 10v-436q6 -6 19 -2q94 97 210 229t183 209l88 -8l86 8v-12q-55 -71 -191 -207t-153 -156l166 -260q104 -166 201 -340v-14l-156 8l-156 -8q-130 244 -239 407q-26 42 -58 66v-473l-141 8l-141 -8v989q84 -10 144 -10z" />
    <glyph glyph-name="edieresis" unicode="&#xeb;" horiz-adv-x="985" 
d="M403 981l105 -8l104 8q138 -398 201.5 -574t159.5 -415l-158 8l-156 -8l-231 708q-156 -415 -248 -708l-84 4l-80 -4q-2 10 18.5 52.5t49.5 114.5q30 72 139 335q108 262 180 487z" />
    <glyph glyph-name="igrave" unicode="&#xec;" horiz-adv-x="1517" 
d="M799 -8l-29 2l-201 -2l-250 700q-75 -346 -126 -700l-82 4l-80 -4q169 601 262 989l27 -2l192 2l248 -674q125 336 252 674l112 -8l111 8q57 -297 109 -523t129 -466l-150 8l-152 -8l-122 700q-193 -476 -250 -700z" />
    <glyph glyph-name="iacute" unicode="&#xed;" 
d="M274 973l123 8v-408h344v408q79 -8 140 -8t94 4t49 4v-989l-141 8q-49 0 -142 -8v457h-344v-457l-141 8q-49 0 -141 -8v989q118 -8 159 -8z" />
    <glyph glyph-name="icircumflex" unicode="&#xee;" horiz-adv-x="1175" 
d="M590 911q-108 0 -164 -121q-55 -122 -55 -292t39 -279q55 -156 170 -156t174 156q51 133 51 309t-53.5 279.5t-161.5 103.5zM588 -29q-234 0 -377 134.5t-143 368.5t141 380.5t376 146.5t379 -131.5t144 -363.5t-143 -383.5t-377 -151.5z" />
    <glyph glyph-name="idieresis" unicode="&#xef;" 
d="M741 862h-344v-870l-141 8q-49 0 -141 -8v989l463 -2l446 2v-989l-141 8q-49 0 -142 -8v870z" />
    <glyph glyph-name="eth" unicode="&#xf0;" 
d="M768 491q0 176 -41 277.5t-137 101.5q-117 0 -166 -149q-33 -99 -33 -245q0 -372 187 -372q94 10 142 110.5t48 276.5zM1071 482q0 -238 -119 -374t-290 -137q-171 0 -265 148v-649q-78 10 -141 10t-141 -10v1511l137 -8l135 8v-178q37 92 107.5 145t171.5 53
q207 0 313 -151q92 -130 92 -368z" />
    <glyph glyph-name="ntilde" unicode="&#xf1;" horiz-adv-x="985" 
d="M618 911q-129 0 -196 -143q-53 -113 -53 -284t73.5 -275.5t235.5 -104.5q61 0 119.5 26t95.5 71l35 -29l-51 -121q-37 -37 -124 -58.5t-151 -21.5q-244 0 -390 130t-146 371t146 385t375 144t367 -90l-77 -213h-48q-12 92 -66 152t-145 61z" />
    <glyph glyph-name="ograve" unicode="&#xf2;" horiz-adv-x="909" 
d="M596 862v-870l-141 8l-142 -8v870q-137 0 -195 -7t-118 -11l10 69l-10 68h911l-10 -68l10 -69q-180 18 -315 18z" />
    <glyph glyph-name="oacute" unicode="&#xf3;" horiz-adv-x="1024" 
d="M365 -530q-31 6 -63 6h-42q-42 0 -67 -6l260 528l-414 983l39 -2l272 2q108 -303 246 -635l78 209q78 213 155 426l84 -4l84 4l-206 -467q-282 -648 -426 -1044z" />
    <glyph glyph-name="ocircumflex" unicode="&#xf4;" horiz-adv-x="1705" 
d="M1329 491q0 176 -41 277.5t-145 101.5t-154 -137v-516q51 -113 150 -113q94 10 142 110.5t48 276.5zM562 870q-103 0 -144 -100t-41 -289q0 -355 190 -377q99 0 150 113v516q-52 137 -155 137zM833 1536h105q35 6 51 8v-663q84 121 238 120q207 0 313 -151
q92 -130 92 -368t-119 -374t-276 -137q-157 0 -248 105v-606q-82 10 -138 10t-134 -10v606q-88 -105 -248 -105q-159 0 -277 135t-118 375t90 369q106 152 315 151q154 0 238 -120v663q54 -8 116 -8z" />
    <glyph glyph-name="otilde" unicode="&#xf5;" horiz-adv-x="1024" 
d="M59 981l166 -8l168 8q65 -117 103 -189t73 -130q104 145 213 319l92 -4l91 4q-85 -101 -201 -251t-131 -169l110 -194q115 -188 230 -375l-170 8l-164 -8l-197 354q-152 -230 -227 -352l-82 6l-82 -6l326 452q-119 209 -318 535z" />
    <glyph glyph-name="odieresis" unicode="&#xf6;" 
d="M115 981q50 -8 118 -8h115q37 6 49 8v-862h344v862q55 -8 120 -8h110q39 6 53 8v-862h104q-10 -40 -10 -94t10 -84h-20q-39 43 -110.5 51t-433.5 8t-449 -8v989z" />
    <glyph glyph-name="divide" unicode="&#xf7;" horiz-adv-x="1062" 
d="M362 614q0 -108 151 -108q75 0 153 67v408q79 -8 139 -8q61 0 94 4t49 4v-989l-141 8q-49 0 -141 -8v457q-144 -76 -318 -76q-104 0 -186 69.5t-82 169.5v369q118 -8 159 -8l123 8v-367z" />
    <glyph glyph-name="oslash" unicode="&#xf8;" horiz-adv-x="1478" 
d="M115 981q50 -8 118 -8h115q37 6 49 8v-862h201v862q46 -8 116 -8h117q37 6 50 8v-862h200v862q54 -8 120 -8h110q39 6 53 8v-989l-625 8q-302 0 -624 -8v989z" />
    <glyph glyph-name="ugrave" unicode="&#xf9;" horiz-adv-x="1478" 
d="M598 981q46 -8 116 -8h117q37 6 50 8v-862h200v862q55 -8 120 -8h110q39 6 53 8v-862h104q-10 -40 -10 -94t10 -84h-20q-45 49 -140.5 54t-289.5 5h-279q-529 0 -624 -8v989q50 -8 118 -8h115q37 6 49 8v-862h201v862z" />
    <glyph glyph-name="uacute" unicode="&#xfa;" horiz-adv-x="1024" 
d="M471 483v-397h33q76 0 134 51t58 151t-52 147.5t-134 47.5h-39zM471 981v-416h178q150 1 245 -71t95 -203t-108.5 -211t-249.5 -80h-443v862q-90 0 -196 -18q8 26 8 68t-8 69h479z" />
    <glyph glyph-name="ucircumflex" unicode="&#xfb;" horiz-adv-x="1441" 
d="M115 0v981l143 -6l139 6v-416h178q150 1 245 -71t95 -203t-108.5 -211t-249.5 -80h-442zM397 483v-397h33q76 0 134 51t58 151t-52 147.5t-134 47.5h-39zM1186 0l-142 -8v989l142 -8l141 8v-989z" />
    <glyph glyph-name="udieresis" unicode="&#xfc;" horiz-adv-x="948" 
d="M115 0v981l143 -6l139 6v-416h178q150 1 245 -71t95 -203t-108.5 -211t-249.5 -80h-442zM397 483v-397h33q76 0 134 51t58 151t-52 147.5t-134 47.5h-39z" />
    <glyph glyph-name="yacute" unicode="&#xfd;" horiz-adv-x="985" 
d="M381 1001q246 0 392.5 -143.5t146.5 -383.5t-147.5 -371.5t-389.5 -131.5q-74 0 -166 26t-158 87l-2 88l35 29q35 -43 95.5 -70t119.5 -27q152 0 230.5 95.5t78.5 263.5q-247 -7 -315 -14v124q68 -10 168 -11t145 -3q0 133 -64 243t-183 109q-88 0 -143.5 -61.5
t-67.5 -151.5h-47l-78 213q66 43 164 66.5t186 23.5z" />
    <glyph glyph-name="thorn" unicode="&#xfe;" horiz-adv-x="1593" 
d="M1026 63q197 1 197 453q-1 192 -47 293q-46 102 -136 102q-202 0 -202 -424t188 -424zM397 573h144q27 197 156.5 312.5t342.5 115.5t349.5 -131.5t136.5 -365.5t-132 -384t-360 -149q-228 0 -363.5 129t-135.5 349h-138v-457l-141 8l-141 -8v989l141 -8l141 8v-408z" />
    <glyph glyph-name="ydieresis" unicode="&#xff;" horiz-adv-x="1024" 
d="M627 514v356h-64q-90 0 -147.5 -44t-57.5 -129t60.5 -134t144.5 -49h64zM348 -8q-74 8 -165 8t-169 -8q74 92 170 221t152 203q-96 16 -170 84q-96 86 -96 217t106.5 197.5t284.5 66.5h448v-989q-62 8 -137 8t-145 -8v416h-11q-67 -90 -268 -416z" />
    <glyph glyph-name="OE" unicode="&#x152;" horiz-adv-x="2048" 
 />
    <glyph glyph-name="oe" unicode="&#x153;" horiz-adv-x="2048" 
 />
    <glyph glyph-name="Scaron" unicode="&#x160;" horiz-adv-x="2048" 
 />
    <glyph glyph-name="scaron" unicode="&#x161;" horiz-adv-x="2048" 
 />
    <glyph glyph-name="Ydieresis" unicode="&#x178;" horiz-adv-x="2048" 
 />
    <glyph glyph-name="florin" unicode="&#x192;" horiz-adv-x="2048" 
 />
    <glyph glyph-name="circumflex" unicode="&#x2c6;" horiz-adv-x="2048" 
 />
    <glyph glyph-name="tilde" unicode="&#x2dc;" horiz-adv-x="2048" 
 />
    <glyph glyph-name="endash" unicode="&#x2013;" horiz-adv-x="1024" 
d="M0 371v170h1024v-170h-1024z" />
    <glyph glyph-name="emdash" unicode="&#x2014;" horiz-adv-x="2048" 
d="M0 371v170h2048v-170h-2048z" />
    <glyph glyph-name="quoteleft" unicode="&#x2018;" horiz-adv-x="569" 
d="M210 750q-54 0 -94 38t-40 80t20 74q126 190 350 502l50 -23l-93 -379q-32 -135 -55.5 -191t-53.5 -78.5t-84 -22.5z" />
    <glyph glyph-name="quoteright" unicode="&#x2019;" horiz-adv-x="569" 
d="M359 1454q54 0 94.5 -38t40.5 -80t-21 -74q-126 -190 -350 -502l-49 22l92 379q34 139 57 193.5t52.5 77t83.5 22.5z" />
    <glyph glyph-name="quotesinglbase" unicode="&#x201a;" horiz-adv-x="2048" 
 />
    <glyph glyph-name="quotedblleft" unicode="&#x201c;" horiz-adv-x="1024" 
d="M648 750q-54 0 -94 38t-40 80t21 74q126 190 350 502l49 -23l-92 -379q-53 -227 -96.5 -259.5t-97.5 -32.5zM224 750q-54 0 -94 38t-40 80t21 74q126 190 350 502l49 -23l-92 -379q-53 -227 -96.5 -259.5t-97.5 -32.5z" />
    <glyph glyph-name="quotedblright" unicode="&#x201d;" horiz-adv-x="1024" 
d="M376 1454q54 0 94 -38t40 -80t-21 -74q-126 -190 -350 -502l-49 22l92 379q34 139 57 193.5t53 77t84 22.5zM800 1454q54 0 94 -38t40 -80t-21 -74q-126 -190 -350 -502l-49 22l92 379q34 139 57 193.5t53 77t84 22.5z" />
    <glyph glyph-name="quotedblbase" unicode="&#x201e;" horiz-adv-x="2048" 
 />
    <glyph glyph-name="dagger" unicode="&#x2020;" 
d="M578 0q-37 0 -127 -10v776q-55 0 -168 -6t-170 -6q10 92 10 109t-10 112l338 -12v432q80 -11 109 -11t128 11v-432q55 0 168 6t170 6q-10 -92 -10 -112q0 -19 10 -109l-338 12v-776q-73 10 -110 10z" />
    <glyph glyph-name="daggerdbl" unicode="&#x2021;" horiz-adv-x="2048" 
 />
    <glyph glyph-name="bullet" unicode="&#x2022;" horiz-adv-x="2048" 
 />
    <glyph glyph-name="ellipsis" unicode="&#x2026;" horiz-adv-x="2048" 
d="M1705 -29q-71 0 -119 50.5t-48 116.5t49 117.5t117 51.5t119 -49t51 -118.5t-49 -119t-120 -49.5zM1023 -29q-71 0 -119 50.5t-48 116.5t49 117.5t117 51.5t119 -49t51 -118.5t-49 -119t-120 -49.5zM341 -29q-71 0 -119 50.5t-48 116.5t49 117.5t117 51.5t119 -49
t51 -118.5t-49 -119t-120 -49.5z" />
    <glyph glyph-name="perthousand" unicode="&#x2030;" horiz-adv-x="2048" 
 />
    <glyph glyph-name="guilsinglleft" unicode="&#x2039;" horiz-adv-x="2048" 
 />
    <glyph glyph-name="guilsinglright" unicode="&#x203a;" horiz-adv-x="2048" 
 />
    <glyph glyph-name="trademark" unicode="&#x2122;" horiz-adv-x="1996" 
d="M510 1309v-748l-90 6l-92 -6v748q-102 0 -226 -17l7 51l-7 52h625l-6 -52l6 -51q-156 17 -217 17zM897 561q47 250 123 834l51 -6l51 6q133 -286 279 -572q210 406 282 572l52 -6l53 6q69 -616 106 -834l-100 6l-98 -6q0 127 -18.5 275.5t-35.5 289.5
q-199 -400 -270 -559h-45q-55 117 -149 309t-117 238q-51 -370 -51 -553l-58 6z" />
    </font>
</defs>
</svg>
