<?xml version="1.0" standalone="no"?>
<!DOCTYPE svg PUBLIC "-//W3C//DTD SVG 1.1//EN" "http://www.w3.org/Graphics/SVG/1.1/DTD/svg11.dtd" >
<svg xmlns="http://www.w3.org/2000/svg">
<metadata>
Created by FontPrep 20130207 at Tue Oct  2 12:12:31 2018
 By Juan Saavedra Segura
</metadata>
<defs>
<font id="b686697637114e416043c66a21ac3917" horiz-adv-x='1024' >
  <font-face 
    font-family="Optima"
    font-weight="400"
    font-stretch="normal"
    units-per-em="2048"
    panose-1="2 2 5 0 0 0 0 0 0 0"
    ascent="1638"
    descent="-410"
    x-height="963"
    cap-height="1395"
    bbox="-1157 -541 2048 2241"
    underline-thickness="38"
    underline-position="-122"
    unicode-range="U+0020-F02A"
  />
<missing-glyph horiz-adv-x="1536" 
d="M1247 33v1214h-958v-1214h958zM256 0v1280h1024v-1280h-1024z" />
    <glyph glyph-name=".notdef" horiz-adv-x="1536" 
d="M1247 33v1214h-958v-1214h958zM256 0v1280h1024v-1280h-1024z" />
    <glyph glyph-name=".null" horiz-adv-x="0" 
 />
    <glyph glyph-name="nonmarkingreturn" horiz-adv-x="0" 
 />
    <glyph glyph-name="space" unicode=" " horiz-adv-x="569" 
 />
    <glyph glyph-name="space" unicode="&#x2031;" horiz-adv-x="569" 
 />
    <glyph glyph-name="space" unicode="&#x2025;" horiz-adv-x="569" 
 />
    <glyph glyph-name="space" unicode="&#x2024;" horiz-adv-x="569" 
 />
    <glyph glyph-name="space" unicode="&#x2023;" horiz-adv-x="569" 
 />
    <glyph glyph-name="space" unicode="&#x201f;" horiz-adv-x="569" 
 />
    <glyph glyph-name="space" unicode="&#x201b;" horiz-adv-x="569" 
 />
    <glyph glyph-name="space" unicode="&#x2017;" horiz-adv-x="569" 
 />
    <glyph glyph-name="space" unicode="&#x2016;" horiz-adv-x="569" 
 />
    <glyph glyph-name="space" unicode="&#x2015;" horiz-adv-x="569" 
 />
    <glyph glyph-name="exclam" unicode="!" horiz-adv-x="682" 
d="M217 100q0 50 37.5 86.5t79.5 36.5t85.5 -27.5t43.5 -85.5q0 -59 -35.5 -96t-85.5 -37t-87.5 36.5t-37.5 86.5zM244 1282q0 143 95 143t99 -143q0 -45 -2 -61l-74 -867h-40l-78 867v61z" />
    <glyph glyph-name="quotedbl" unicode="&#x22;" horiz-adv-x="682" 
d="M436 1311q0 114 71 114q71 -1 71 -99q0 -46 -3 -64v-347q0 -69 -14.5 -95.5t-53.5 -26.5t-54 25.5t-15 96.5v347q-2 18 -2 49zM102 1311q0 114 71 114q71 -1 71 -99q0 -46 -2 -64v-347q0 -66 -14 -94t-54 -28t-55 25.5t-15 96.5v347q-2 18 -2 49z" />
    <glyph glyph-name="numbersign" unicode="#" horiz-adv-x="1139" 
d="M739 829h-272l-43 -272h274zM1022 557v-115h-223l-64 -442h-119l64 442h-274l-68 -442h-119l68 442h-219v115h237l43 272h-225v115h242l63 416h119l-64 -416h273l61 416h119l-62 -416h199v-115h-215l-41 -272h205z" />
    <glyph glyph-name="dollar" unicode="$" horiz-adv-x="1139" 
d="M618 1380q202 0 310 -94q-32 -68 -54 -162h-22q-76 166 -234 174v-514q53 -21 117.5 -46.5t156 -87.5t91.5 -228q0 -117 -47 -208.5t-130.5 -148.5t-187.5 -75v-228q-46 9 -61 5t-20 -5v215q-126 0 -219 21t-164 86q6 22 21 69.5t15 106.5h23q67 -101 140 -151t184 -50
v574q-110 42 -174 75.5t-119.5 105.5t-55.5 182t66 227t283 151v158l41 -6q4 0 40 6v-152zM348 1078q0 -122 53.5 -170t135.5 -87v471q-86 -19 -137.5 -80.5t-51.5 -133.5zM823 338q0 116 -52.5 162t-152.5 96v-524q126 27 165.5 114t39.5 152z" />
    <glyph glyph-name="percent" unicode="%" horiz-adv-x="1821" 
d="M240 1019q0 -115 39.5 -193t137.5 -78t140.5 93t42.5 210q0 272 -168 272q-110 0 -151 -94.5t-41 -209.5zM1206 300q0 -115 40.5 -193t135.5 -78q54 0 119.5 54t65.5 249q0 272 -168 272q-109 0 -151 -94.5t-42 -209.5zM1714 320q0 -92 -44.5 -172t-127.5 -130
q-26 -14 -75 -27.5t-83 -13.5q-96 0 -170.5 43.5t-114.5 119t-40 171.5t45 175t123 124t173 45t166 -44.5t109.5 -121.5t38.5 -169zM748 1045q0 -90 -44 -171t-120 -129.5t-170 -48.5t-168 44.5t-114 121.5t-40 172t45 173t124 122.5t172 44.5t165 -43.5t111 -119.5t39 -166
zM504 -63q-10 0 -45 -5l762 1493q28 -4 44 -4t50 4l-762 -1493q-39 5 -49 5z" />
    <glyph glyph-name="percent" unicode="&#x202f;" horiz-adv-x="1821" 
d="M240 1019q0 -115 39.5 -193t137.5 -78t140.5 93t42.5 210q0 272 -168 272q-110 0 -151 -94.5t-41 -209.5zM1206 300q0 -115 40.5 -193t135.5 -78q54 0 119.5 54t65.5 249q0 272 -168 272q-109 0 -151 -94.5t-42 -209.5zM1714 320q0 -92 -44.5 -172t-127.5 -130
q-26 -14 -75 -27.5t-83 -13.5q-96 0 -170.5 43.5t-114.5 119t-40 171.5t45 175t123 124t173 45t166 -44.5t109.5 -121.5t38.5 -169zM748 1045q0 -90 -44 -171t-120 -129.5t-170 -48.5t-168 44.5t-114 121.5t-40 172t45 173t124 122.5t172 44.5t165 -43.5t111 -119.5t39 -166
zM504 -63q-10 0 -45 -5l762 1493q28 -4 44 -4t50 4l-762 -1493q-39 5 -49 5z" />
    <glyph glyph-name="percent" unicode="&#x202e;" horiz-adv-x="1821" 
d="M240 1019q0 -115 39.5 -193t137.5 -78t140.5 93t42.5 210q0 272 -168 272q-110 0 -151 -94.5t-41 -209.5zM1206 300q0 -115 40.5 -193t135.5 -78q54 0 119.5 54t65.5 249q0 272 -168 272q-109 0 -151 -94.5t-42 -209.5zM1714 320q0 -92 -44.5 -172t-127.5 -130
q-26 -14 -75 -27.5t-83 -13.5q-96 0 -170.5 43.5t-114.5 119t-40 171.5t45 175t123 124t173 45t166 -44.5t109.5 -121.5t38.5 -169zM748 1045q0 -90 -44 -171t-120 -129.5t-170 -48.5t-168 44.5t-114 121.5t-40 172t45 173t124 122.5t172 44.5t165 -43.5t111 -119.5t39 -166
zM504 -63q-10 0 -45 -5l762 1493q28 -4 44 -4t50 4l-762 -1493q-39 5 -49 5z" />
    <glyph glyph-name="percent" unicode="&#x202d;" horiz-adv-x="1821" 
d="M240 1019q0 -115 39.5 -193t137.5 -78t140.5 93t42.5 210q0 272 -168 272q-110 0 -151 -94.5t-41 -209.5zM1206 300q0 -115 40.5 -193t135.5 -78q54 0 119.5 54t65.5 249q0 272 -168 272q-109 0 -151 -94.5t-42 -209.5zM1714 320q0 -92 -44.5 -172t-127.5 -130
q-26 -14 -75 -27.5t-83 -13.5q-96 0 -170.5 43.5t-114.5 119t-40 171.5t45 175t123 124t173 45t166 -44.5t109.5 -121.5t38.5 -169zM748 1045q0 -90 -44 -171t-120 -129.5t-170 -48.5t-168 44.5t-114 121.5t-40 172t45 173t124 122.5t172 44.5t165 -43.5t111 -119.5t39 -166
zM504 -63q-10 0 -45 -5l762 1493q28 -4 44 -4t50 4l-762 -1493q-39 5 -49 5z" />
    <glyph glyph-name="percent" unicode="&#x202c;" horiz-adv-x="1821" 
d="M240 1019q0 -115 39.5 -193t137.5 -78t140.5 93t42.5 210q0 272 -168 272q-110 0 -151 -94.5t-41 -209.5zM1206 300q0 -115 40.5 -193t135.5 -78q54 0 119.5 54t65.5 249q0 272 -168 272q-109 0 -151 -94.5t-42 -209.5zM1714 320q0 -92 -44.5 -172t-127.5 -130
q-26 -14 -75 -27.5t-83 -13.5q-96 0 -170.5 43.5t-114.5 119t-40 171.5t45 175t123 124t173 45t166 -44.5t109.5 -121.5t38.5 -169zM748 1045q0 -90 -44 -171t-120 -129.5t-170 -48.5t-168 44.5t-114 121.5t-40 172t45 173t124 122.5t172 44.5t165 -43.5t111 -119.5t39 -166
zM504 -63q-10 0 -45 -5l762 1493q28 -4 44 -4t50 4l-762 -1493q-39 5 -49 5z" />
    <glyph glyph-name="percent" unicode="&#x202b;" horiz-adv-x="1821" 
d="M240 1019q0 -115 39.5 -193t137.5 -78t140.5 93t42.5 210q0 272 -168 272q-110 0 -151 -94.5t-41 -209.5zM1206 300q0 -115 40.5 -193t135.5 -78q54 0 119.5 54t65.5 249q0 272 -168 272q-109 0 -151 -94.5t-42 -209.5zM1714 320q0 -92 -44.5 -172t-127.5 -130
q-26 -14 -75 -27.5t-83 -13.5q-96 0 -170.5 43.5t-114.5 119t-40 171.5t45 175t123 124t173 45t166 -44.5t109.5 -121.5t38.5 -169zM748 1045q0 -90 -44 -171t-120 -129.5t-170 -48.5t-168 44.5t-114 121.5t-40 172t45 173t124 122.5t172 44.5t165 -43.5t111 -119.5t39 -166
zM504 -63q-10 0 -45 -5l762 1493q28 -4 44 -4t50 4l-762 -1493q-39 5 -49 5z" />
    <glyph glyph-name="percent" unicode="&#x202a;" horiz-adv-x="1821" 
d="M240 1019q0 -115 39.5 -193t137.5 -78t140.5 93t42.5 210q0 272 -168 272q-110 0 -151 -94.5t-41 -209.5zM1206 300q0 -115 40.5 -193t135.5 -78q54 0 119.5 54t65.5 249q0 272 -168 272q-109 0 -151 -94.5t-42 -209.5zM1714 320q0 -92 -44.5 -172t-127.5 -130
q-26 -14 -75 -27.5t-83 -13.5q-96 0 -170.5 43.5t-114.5 119t-40 171.5t45 175t123 124t173 45t166 -44.5t109.5 -121.5t38.5 -169zM748 1045q0 -90 -44 -171t-120 -129.5t-170 -48.5t-168 44.5t-114 121.5t-40 172t45 173t124 122.5t172 44.5t165 -43.5t111 -119.5t39 -166
zM504 -63q-10 0 -45 -5l762 1493q28 -4 44 -4t50 4l-762 -1493q-39 5 -49 5z" />
    <glyph glyph-name="percent" unicode="&#x2029;" horiz-adv-x="1821" 
d="M240 1019q0 -115 39.5 -193t137.5 -78t140.5 93t42.5 210q0 272 -168 272q-110 0 -151 -94.5t-41 -209.5zM1206 300q0 -115 40.5 -193t135.5 -78q54 0 119.5 54t65.5 249q0 272 -168 272q-109 0 -151 -94.5t-42 -209.5zM1714 320q0 -92 -44.5 -172t-127.5 -130
q-26 -14 -75 -27.5t-83 -13.5q-96 0 -170.5 43.5t-114.5 119t-40 171.5t45 175t123 124t173 45t166 -44.5t109.5 -121.5t38.5 -169zM748 1045q0 -90 -44 -171t-120 -129.5t-170 -48.5t-168 44.5t-114 121.5t-40 172t45 173t124 122.5t172 44.5t165 -43.5t111 -119.5t39 -166
zM504 -63q-10 0 -45 -5l762 1493q28 -4 44 -4t50 4l-762 -1493q-39 5 -49 5z" />
    <glyph glyph-name="percent" unicode="&#x2028;" horiz-adv-x="1821" 
d="M240 1019q0 -115 39.5 -193t137.5 -78t140.5 93t42.5 210q0 272 -168 272q-110 0 -151 -94.5t-41 -209.5zM1206 300q0 -115 40.5 -193t135.5 -78q54 0 119.5 54t65.5 249q0 272 -168 272q-109 0 -151 -94.5t-42 -209.5zM1714 320q0 -92 -44.5 -172t-127.5 -130
q-26 -14 -75 -27.5t-83 -13.5q-96 0 -170.5 43.5t-114.5 119t-40 171.5t45 175t123 124t173 45t166 -44.5t109.5 -121.5t38.5 -169zM748 1045q0 -90 -44 -171t-120 -129.5t-170 -48.5t-168 44.5t-114 121.5t-40 172t45 173t124 122.5t172 44.5t165 -43.5t111 -119.5t39 -166
zM504 -63q-10 0 -45 -5l762 1493q28 -4 44 -4t50 4l-762 -1493q-39 5 -49 5z" />
    <glyph glyph-name="percent" unicode="&#x2027;" horiz-adv-x="1821" 
d="M240 1019q0 -115 39.5 -193t137.5 -78t140.5 93t42.5 210q0 272 -168 272q-110 0 -151 -94.5t-41 -209.5zM1206 300q0 -115 40.5 -193t135.5 -78q54 0 119.5 54t65.5 249q0 272 -168 272q-109 0 -151 -94.5t-42 -209.5zM1714 320q0 -92 -44.5 -172t-127.5 -130
q-26 -14 -75 -27.5t-83 -13.5q-96 0 -170.5 43.5t-114.5 119t-40 171.5t45 175t123 124t173 45t166 -44.5t109.5 -121.5t38.5 -169zM748 1045q0 -90 -44 -171t-120 -129.5t-170 -48.5t-168 44.5t-114 121.5t-40 172t45 173t124 122.5t172 44.5t165 -43.5t111 -119.5t39 -166
zM504 -63q-10 0 -45 -5l762 1493q28 -4 44 -4t50 4l-762 -1493q-39 5 -49 5z" />
    <glyph glyph-name="ampersand" unicode="&#x26;" horiz-adv-x="1479" 
d="M553 702q-240 -144 -240 -332t109 -248.5t203 -60.5t180 52.5t133 99.5q-247 302 -385 489zM147 313q0 252 359 432l12 7q-77 118 -107 178t-30 146t40 155t112 106t177 37t181 -58t76 -148t-39 -156t-92 -112t-148 -112q28 -35 103.5 -135.5t148.5 -183.5l109 -123
q129 188 243 404q26 -45 78 -84q-140 -213 -276 -375l256 -295q-82 8 -117 8t-125 -6q-78 113 -129 172q-183 -199 -442 -199q-171 0 -280.5 93t-109.5 249zM698 1319q-84 0 -129 -54.5t-45 -138.5q0 -117 129 -295q98 69 153.5 143.5t55.5 173.5t-57.5 135t-106.5 36z" />
    <glyph glyph-name="quotesingle" unicode="'" horiz-adv-x="569" 
d="M213 1311q0 114 55.5 114t70.5 -26.5t15 -72.5t-2 -64v-347q0 -69 -14.5 -95.5t-53.5 -26.5t-54 25.5t-15 96.5v347q-2 18 -2 49z" />
    <glyph glyph-name="parenleft" unicode="(" horiz-adv-x="569" 
d="M258 641q0 -403 89 -560.5t147 -248.5l-41 -41q-259 298 -292.5 522.5t-33.5 372.5t55 378.5t271 467.5l41 -39q-130 -180 -183 -389t-53 -463z" />
    <glyph glyph-name="parenright" unicode=")" horiz-adv-x="569" 
d="M442 672q0 -357 -103.5 -551t-221.5 -330l-41 41q102 162 143 259.5t66.5 249.5t25.5 289q0 261 -51.5 471.5t-183.5 391.5l41 39q325 -355 325 -860z" />
    <glyph glyph-name="asterisk" unicode="*" horiz-adv-x="909" 
d="M450 682q-34 0 -53 -2l29 311l-250 -182q-34 59 -47 80l-12 20l286 133l-294 132q42 48 59 104l258 -184l-29 315q78 0 117 2l-31 -321l256 190q27 -60 62 -104l-289 -132l287 -126q-26 -38 -58 -103l-260 182l35 -317q-32 2 -66 2z" />
    <glyph glyph-name="plus" unicode="+" horiz-adv-x="1241" 
d="M555 586v448h131v-448h451v-131h-451v-455h-131v455h-451v131h451z" />
    <glyph glyph-name="comma" unicode="," horiz-adv-x="569" 
d="M330 242q38 0 62 -20.5t24 -46.5t-7.5 -48.5t-37.5 -69.5l-242 -401l-35 14l144 455q16 51 35 84t57 33z" />
    <glyph glyph-name="hyphen" unicode="-" horiz-adv-x="682" 
d="M84 389v127h512v-127h-512z" />
    <glyph glyph-name="period" unicode="." horiz-adv-x="569" 
d="M162 100q0 50 38 86.5t78 36.5t85 -27t45 -86t-36 -96t-86 -37t-87 36.5t-37 86.5z" />
    <glyph glyph-name="slash" unicode="/" horiz-adv-x="569" 
d="M-8 -205q-18 0 -60 -4l584 1741q38 -4 54 -4t51 4l-584 -1741q-27 4 -45 4z" />
    <glyph glyph-name="zero" unicode="0" horiz-adv-x="1139" 
d="M586 1370q463 0 463 -682q0 -331 -129.5 -521t-362.5 -190q-120 0 -293.5 92t-173.5 583q0 492 174.5 605t321.5 113zM578 41q303 0 303 647q0 427 -110.5 523.5t-197.5 94.5q-176 -3 -245.5 -154t-69.5 -442t58.5 -480t261.5 -189z" />
    <glyph glyph-name="one" unicode="1" horiz-adv-x="1139" 
d="M574 0q-24 0 -78 -6v1237l-15 6l-227 -123q-20 48 -61 76q271 111 432 211l34 -10v-1397q-61 6 -85 6z" />
    <glyph glyph-name="two" unicode="2" horiz-adv-x="1139" 
d="M180 1176q122 194 366 194t321 -118t77 -238q0 -215 -211 -432l-403 -430l10 -23q291 0 629 27l-6 -78q0 -6 6 -78h-879v31q57 55 168 168l123 127q97 99 157.5 166t139 187.5t78.5 328.5q0 290 -240 290q-96 0 -163 -61t-87 -156l-14 -6z" />
    <glyph glyph-name="three" unicode="3" horiz-adv-x="1139" 
d="M391 712q0 12 -6 42q54 -4 78 -4q81 0 163.5 60.5t82.5 226.5t-73.5 218t-145.5 52t-136.5 -46.5t-93.5 -117.5l-10 -6l-51 110q32 39 113.5 81t183.5 42t190 -31.5t145.5 -97.5t57.5 -175t-72.5 -203t-204.5 -142q205 -17 272.5 -118t67.5 -215t-69.5 -211.5
t-187 -148.5t-275.5 -51t-297 66q12 33 24 125l13 8q122 -135 276 -135t242 101.5t88 246.5t-74.5 217t-208.5 72q-23 0 -52 -3.5t-46 -4.5q6 30 6 42z" />
    <glyph glyph-name="four" unicode="4" horiz-adv-x="1139" 
d="M682 498v657l-10 8q-129 -171 -459 -655l8 -10h461zM757 0q-25 0 -79 -6v387h-635v27q239 352 670 952q60 -6 65 -6l64 6v-862l188 8q-4 -42 -4 -66t4 -67l-188 8v-387q-60 6 -85 6z" />
    <glyph glyph-name="five" unicode="5" horiz-adv-x="1139" 
d="M643 1237h-303v-457q98 49 214 49t207 -49t144 -138.5t53 -205.5t-62 -222.5t-178 -171.5t-290 -65t-307 80l31 136l14 2q45 -73 125.5 -111.5t171.5 -38.5q144 0 224.5 110.5t80.5 268.5q0 319 -293 319q-116 0 -203 -67l-18 14v674l12 6h658l8 -16q-12 -55 -12 -150
q-144 33 -277 33z" />
    <glyph glyph-name="six" unicode="6" horiz-adv-x="1139" 
d="M303 375q0 -85 34 -162t99.5 -124.5t149.5 -47.5q129 0 195.5 110.5t66.5 260.5t-70.5 235.5t-185.5 87.5q-139 -8 -214 -98t-75 -262zM635 813q286 0 340.5 -148.5t54.5 -254.5t-56 -211t-157.5 -163.5t-248.5 -58.5t-298 113t-151 475t168 583.5t436 221.5q61 0 92 -6
l23 -72q-42 15 -97 15q-153 0 -251 -107.5t-141.5 -262.5t-45.5 -306q116 182 332 182z" />
    <glyph glyph-name="seven" unicode="7" horiz-adv-x="1139" 
d="M226 0q-22 0 -64 -6l2 22q534 873 708 1192l-8 9q-275 -5 -700 -33q6 72 6 94t-6 92h874l2 -59q-440 -724 -739 -1317q-53 6 -75 6z" />
    <glyph glyph-name="eight" unicode="8" horiz-adv-x="1139" 
d="M568 723q-79 0 -144 -49t-97 -127t-32 -162q0 -147 70.5 -245.5t209.5 -98.5t205 106t66 250q0 226 -99.5 276t-178.5 50zM575 1307q-108 0 -169 -93q-50 -67 -50 -178t70 -188q52 -60 157 -60t167 95q43 61 43 178q0 166 -83 206t-135 40zM1026 417q0 -127 -58.5 -228
t-163 -156.5t-236.5 -55.5t-234.5 45t-160.5 136.5t-58 201.5t38.5 186.5t107 131.5t151.5 76v14q-69 17 -147.5 82.5t-78.5 181.5t55.5 189.5t146 111t183.5 37.5t156.5 -15.5t122.5 -60.5q113 -85 113 -224t-83 -207.5t-147 -86.5v-14q145 -29 219 -123.5t74 -221.5z" />
    <glyph glyph-name="nine" unicode="9" horiz-adv-x="1139" 
d="M807 972q0 81 -30 162t-89.5 127t-147.5 46t-178 -76t-90 -285q0 -133 63 -227t190 -94t204.5 99.5t77.5 247.5zM475 539q-106 0 -194 48t-138.5 137.5t-50.5 215.5t58 225t161.5 152t230.5 53q235 0 344 -166t109 -418q0 -350 -128 -520t-236.5 -229.5t-229.5 -59.5
q-53 0 -102 9.5t-59 17.5q-5 47 -43 105l22 8q89 -76 192 -76t192 79.5t133 195.5q74 196 73 409q-51 -88 -139.5 -137t-194.5 -49z" />
    <glyph glyph-name="colon" unicode=":" horiz-adv-x="569" 
d="M162 838q0 50 38 87.5t88 37.5t85 -37.5t35 -87.5t-36 -85.5t-86 -35.5t-87 35.5t-37 85.5zM162 100q0 50 38 86.5t78 36.5t85 -27t45 -86t-36 -96t-86 -37t-87 36.5t-37 86.5z" />
    <glyph glyph-name="semicolon" unicode=";" horiz-adv-x="569" 
d="M199 838q0 50 37.5 87.5t87.5 37.5t85 -37.5t35 -87.5t-35 -85.5t-85 -35.5t-87.5 35.5t-37.5 85.5zM330 242q38 0 62 -20.5t24 -46.5t-7.5 -48.5t-37.5 -69.5l-242 -401l-35 14l144 455q16 51 35 84t57 33z" />
    <glyph glyph-name="less" unicode="&#x3c;" horiz-adv-x="1241" 
d="M1143 113v-127l-1043 479v110l1043 480v-127l-877 -408z" />
    <glyph glyph-name="equal" unicode="=" horiz-adv-x="1241" 
d="M1137 387v-131h-1033v131h1033zM1137 784v-131h-1033v131h1033z" />
    <glyph glyph-name="greater" unicode="&#x3e;" horiz-adv-x="1241" 
d="M98 113l877 407l-877 408v127l1043 -480v-110l-1043 -479v127z" />
    <glyph glyph-name="question" unicode="?" horiz-adv-x="797" 
d="M252 100q0 50 38 86.5t78 36.5t85 -27t45 -86t-36 -96t-86 -37t-87 36.5t-37 86.5zM311 545q0 -51 32 -85t72 -34t70 12l13 -8l-25 -57q-13 -8 -55 -8q-96 0 -166 64.5t-70 174.5q0 71 30 126t89 116l123 131q111 113 111 203q0 54 -40.5 113t-150.5 59q-47 0 -95 -26
t-77 -66l-12 102q110 63 200 63q143 0 225.5 -71.5t82.5 -194.5q0 -86 -29.5 -147.5t-93.5 -132.5l-129 -142q-54 -61 -79.5 -101t-25.5 -91z" />
    <glyph glyph-name="at" unicode="@" horiz-adv-x="1638" 
d="M1063 434q0 -18 15 -38.5t42 -20.5q60 0 132 55t123.5 161.5t51.5 224.5t-59 232.5t-186 194.5t-312 80t-334.5 -80t-235 -222.5t-85.5 -324.5t88 -324t241 -221t352 -79t322 99t183 187h125q-94 -176 -271 -282.5t-383 -106.5q-322 0 -546 203t-224 510
q0 203 98.5 374.5t271.5 270t384 98.5q297 0 488.5 -172.5t191.5 -426.5q0 -132 -71.5 -261t-179 -205.5t-197.5 -76.5t-131.5 45t-47.5 102q-72 -70 -124.5 -103.5t-146.5 -33.5q-94 -1 -176 83t-83 204q0 120 62.5 227t164 174.5t227.5 67.5t181 -115l26 94h181l-148 -536
l-5 -20q-5 -20 -5 -38zM561 532q0 -157 125 -157q65 0 130 84.5t107 197.5t42 175q0 134 -109 135q-82 0 -149.5 -74.5t-106.5 -182t-39 -178.5z" />
    <glyph glyph-name="A" unicode="A" horiz-adv-x="1366" 
d="M872 633l-227 524l-223 -524h450zM1227 0q-28 0 -109 -6q-104 301 -215 553h-520q-151 -378 -203 -553q-54 6 -74 6t-27.5 -1t-19.5 -2t-26 -3l639 1431h47l614 -1431q-78 6 -106 6z" />
    <glyph glyph-name="B" unicode="B" horiz-adv-x="1251" 
d="M375 702v-626h194q101 0 179 40.5t121.5 113.5t43.5 163q0 170 -110.5 239.5t-313.5 69.5h-114zM375 1319v-541h84q162 0 248 40q167 77 167 254t-117 212t-231 35h-151zM195 0v1395h401q311 0 384 -89.5t73 -176.5q0 -153 -88 -246t-236 -133q144 -7 259.5 -83.5
t115.5 -238.5q0 -218 -184 -346q-103 -68 -219.5 -75t-213.5 -7h-292z" />
    <glyph glyph-name="C" unicode="C" horiz-adv-x="1366" 
d="M78 702q0 224 101 388t277.5 249.5t399.5 85.5t434 -94q-26 -66 -43 -157l-14 -3q-73 87 -183.5 132t-207.5 45q-180 0 -307.5 -88.5t-191.5 -239t-64 -334.5t69 -331t194 -226.5t295 -79.5t280.5 68.5t144.5 97.5l-11 -129q-171 -117 -452 -117q-338 0 -529.5 199
t-191.5 534z" />
    <glyph glyph-name="D" unicode="D" horiz-adv-x="1593" 
d="M205 0v1395h606q147 0 253 -24t206 -106t155.5 -216.5t55.5 -279.5t-45 -304.5t-206 -302.5t-338.5 -152.5t-287.5 -9.5h-399zM1280 729q0 324 -145 458t-492 134l-258 -8v-1221l260 -12q218 0 340 61q295 149 295 588z" />
    <glyph glyph-name="E" unicode="E" 
d="M362 1298v-514h318q27 0 84.5 4.5t97.5 6.5l-6 -54l6 -57l-182 10h-318v-598q383 0 560 27q-5 -40 -6 -55t6 -68h-740v1395h727l-6 -62q0 -9 2 -25t4 -36q-76 15 -184 22l-205 4h-158z" />
    <glyph glyph-name="F" unicode="F" 
d="M274 0q-22 0 -92 -6v1401h727l-6 -62q0 -9 2 -25t4 -36q-76 15 -184 22l-205 4h-158v-514h318q27 0 84.5 4.5t97.5 6.5l-6 -54l6 -57l-182 10h-318v-700q-66 6 -88 6z" />
    <glyph glyph-name="G" unicode="G" horiz-adv-x="1593" 
d="M1382 1149q-168 199 -492 199q-100 0 -208 -42t-229 -169t-121 -432q0 -420 208 -539t398 -119t326 70v526l90 -6l90 6v-580q-278 -94 -543 -94t-435 92.5t-252.5 256.5t-82.5 358q0 365 221.5 557t564.5 192q342 0 535 -118q-22 -64 -47 -158h-23z" />
    <glyph glyph-name="H" unicode="H" horiz-adv-x="1593" 
d="M1311 0q-30 0 -84 -6v704l-430 11l-432 -11v-704q-66 6 -89 6t-92 -6v1401l90 -6l91 6v-588q369 -10 433 -10t429 10v588l90 -6l90 6v-1401q-66 6 -96 6z" />
    <glyph glyph-name="I" unicode="I" horiz-adv-x="569" 
d="M279 0q-30 0 -84 -6v1401l90 -6l90 6v-1401q-66 6 -96 6z" />
    <glyph glyph-name="J" unicode="J" horiz-adv-x="569" 
d="M406 178q0 -278 -145 -367.5t-273 -93.5l-17 56q107 4 162.5 57t73.5 134t18 188v1243l90 -6l91 6v-1217z" />
    <glyph glyph-name="K" unicode="K" horiz-adv-x="1251" 
d="M1104 0q-28 0 -115 -6q-80 115 -141 186l-447 522q-13 11 -23 11t-11 -4v-715q-66 6 -89 6t-92 -6v1401l90 -6l91 6v-633q-1 -4 13 -4q30 0 146 116l504 521q78 -6 86 -6t28 2t48 4l-465 -447l-174 -176q48 -55 221 -249t277 -314l166 -205v-10q-85 6 -113 6z" />
    <glyph glyph-name="L" unicode="L" 
d="M362 96q319 0 418 10.5t148 16.5l-6 -62q0 -1 6 -61h-746v1395l90 -6l90 6v-1299z" />
    <glyph glyph-name="M" unicode="M" horiz-adv-x="1821" 
d="M1616 0q-30 0 -90 -6q-28 352 -61 669.5t-44 387.5q-374 -665 -536 -1035h-23l-112 232q-99 205 -414 803q-19 -169 -59.5 -508t-40.5 -549q-54 6 -72 6t-26 -1t-20 -2t-28 -3q59 352 123 824.5t74 576.5h53q279 -549 394.5 -752.5t185.5 -320.5l589 1073h43
q103 -929 166 -1401q-72 6 -102 6z" />
    <glyph glyph-name="N" unicode="N" horiz-adv-x="1593" 
d="M1393 -6h-62q-41 54 -106 125l-885 979h-21v-1104q-42 6 -60 6t-54 -6v1401h80l972 -1055h21v1055q54 -6 57 -6l58 6v-1401z" />
    <glyph glyph-name="O" unicode="O" horiz-adv-x="1706" 
d="M868 -31q-370 0 -576 199t-206 526q0 164 58 301t216.5 283.5t482.5 146.5q323 0 550 -178.5t227 -544.5q0 -200 -99 -372.5t-278 -266.5t-375 -94zM1419 706q0 100 -10.5 173t-56 186t-182 203t-287.5 90q-287 0 -441.5 -187.5t-154.5 -491.5t158.5 -473t400.5 -169
q146 0 256 63.5t179.5 165t103.5 221t34 219.5z" />
    <glyph glyph-name="P" unicode="P" horiz-adv-x="1139" 
d="M436 713q40 0 109 4q152 15 237.5 104t85.5 234t-76 198t-137 59t-171 5q-110 0 -142 -2v-598q54 -4 94 -4zM342 637v-643q-66 6 -96 6t-84 -6v1401h366q200 0 315 -32.5t164.5 -104.5t49.5 -182t-27 -178t-106 -139t-306 -118q-45 -10 -118 -10q-150 6 -158 6z" />
    <glyph glyph-name="Q" unicode="Q" horiz-adv-x="1706" 
d="M1419 718q0 276 -119 427q-167 213 -444 213q-278 0 -423.5 -198t-145.5 -499q0 -300 162 -462t397 -162q165 0 280.5 75t204 232t88.5 374zM86 686q0 218 100.5 385t273.5 260.5t387 93.5t391 -81t279.5 -238.5t102.5 -365.5t-103.5 -415t-435.5 -319q51 -37 193.5 -147
t265.5 -199q-119 -53 -160 -84q-15 23 -184 172t-278 227l-50 -6q-231 2 -406.5 85.5t-275.5 248.5t-100 383z" />
    <glyph glyph-name="R" unicode="R" horiz-adv-x="1251" 
d="M276 0q-23 0 -92 -6v1401h434q235 0 345 -77.5t110 -237.5t-120 -256t-300 -130l422 -534l99 -115l38 -51q-84 6 -123.5 6t-111.5 -6q-94 132 -129 178l-242 313l-164 193h-77v-684q-66 6 -89 6zM365 756q36 0 117 -1q80 -1 172 17t164.5 95t72.5 192q0 221 -225 258
q-65 12 -301 2v-563z" />
    <glyph glyph-name="S" unicode="S" 
d="M768 356q0 127 -78 185.5t-237.5 121t-242.5 138.5t-83 231q0 189 129 291t326 102q80 0 159.5 -24.5t132.5 -73.5q-16 -36 -55 -168h-20q-31 83 -98 130.5t-147 47.5t-139 -30t-93.5 -84.5t-34.5 -124.5q0 -125 77 -183.5t240 -123t245.5 -137t82.5 -199.5
q0 -233 -145 -359.5t-361 -126.5q-82 0 -183.5 32.5t-150.5 86.5q24 67 39 182h21q131 -213 315 -213t242.5 109.5t58.5 189.5z" />
    <glyph glyph-name="T" unicode="T" horiz-adv-x="1139" 
d="M670 1296v-1306q-66 6 -89 6t-92 -6v1306q-214 0 -448 -24q6 45 6 60t-6 63h1057l-6 -62q0 -9 2 -25t4 -36q-206 24 -428 24z" />
    <glyph glyph-name="U" unicode="U" horiz-adv-x="1593" 
d="M373 610q0 -281 100 -414t343 -133q242 0 347 150.5t105 417.5v764q54 -6 57 -6l57 6v-815q0 -198 -73 -335.5t-208.5 -206.5t-316.5 -69q-285 0 -444 144q-88 79 -116.5 195t-30.5 267v820l90 -6l90 6v-785z" />
    <glyph glyph-name="V" unicode="V" horiz-adv-x="1366" 
d="M1277 1389q8 0 26.5 2t44.5 4q-59 -113 -295.5 -668.5t-296.5 -732.5q-33 6 -42 6t-42 -6q-142 297 -366 819t-257 582q96 -6 97 -6l102 6q30 -74 76 -199l137 -358l252 -621h18q20 42 57.5 119.5t57.5 128.5l215 555l123 342l14 33q71 -6 79 -6z" />
    <glyph glyph-name="W" unicode="W" horiz-adv-x="2048" 
d="M1954 1389q8 0 26.5 2t42.5 4q-60 -140 -102 -262l-391 -1139q-48 6 -66 6t-69 -6l-371 1149h-16l-398 -1149q-48 6 -68 6t-69 -6q-18 60 -41.5 140t-40.5 130l-366 1131l96 -6l94 6q9 -28 61 -217l121 -416l172 -541h19q58 170 207.5 597.5t189.5 576.5q54 -6 55 -6
l62 6q21 -77 163 -497t226 -677h18q44 111 82 234l240 772l49 168q66 -6 74 -6z" />
    <glyph glyph-name="X" unicode="X" horiz-adv-x="1251" 
d="M1077 1389q9 0 27.5 2t44.5 4q-25 -27 -35 -41l-313 -436l-101 -152l476 -772q-84 6 -113 6t-113 -6q-172 335 -354 622q-180 -270 -371 -622q-53 6 -73 6t-28.5 -1t-21 -2t-28.5 -3q28 42 86.5 126t161.5 236l227 342q-27 43 -114.5 188.5t-121.5 198.5l-202 310
q108 -6 110 -6l111 6q25 -39 48.5 -80.5t55.5 -95.5l217 -373q39 63 102 158t118 178t124 213q71 -6 80 -6z" />
    <glyph glyph-name="Y" unicode="Y" horiz-adv-x="1251" 
d="M627 0q-30 0 -84 -6v590l-502 811q114 -6 115 -6l112 6q100 -194 229.5 -417.5t159.5 -268.5q54 61 392 686q78 -6 85 -6t26.5 2t47.5 4q-79 -102 -145 -205l-225 -363q-65 -98 -115 -204v-629q-66 6 -96 6z" />
    <glyph glyph-name="Z" unicode="Z" horiz-adv-x="1251" 
d="M125 1332q0 15 -6 63h1077v-39q-507 -663 -893 -1262v-4h311q187 4 574 33l-6 -62q0 -1 6 -61h-1153v45l596 832q224 323 291 426v4l-234 -2q-137 0 -250 -8.5t-188 -14t-131 -10.5q6 45 6 60z" />
    <glyph glyph-name="bracketleft" unicode="[" horiz-adv-x="682" 
d="M276 -238v1770h322v-59h-199v-1651h199v-60h-322z" />
    <glyph glyph-name="backslash" unicode="\" 
d="M892 4q-42 0 -63 -4l-761 1532q44 -4 64 -4t63 4l761 -1532q-22 4 -64 4z" />
    <glyph glyph-name="bracketright" unicode="]" horiz-adv-x="682" 
d="M406 1532v-1770h-322v60h199v1651h-199v59h322z" />
    <glyph glyph-name="asciicircum" unicode="^" horiz-adv-x="1241" 
d="M248 563h-144l449 832h135l447 -832h-144l-370 668z" />
    <glyph glyph-name="underscore" unicode="_" 
d="M1024 -328h-1024v78h1024v-78z" />
    <glyph glyph-name="grave" unicode="`" horiz-adv-x="682" 
d="M41 1362q0 11 4 29q17 43 84 43q17 -7 29 -16t75 -72l259 -256h-72l-322 200q-9 7 -20 15t-19 15.5t-13 19.5t-5 22z" />
    <glyph glyph-name="a" unicode="a" 
d="M682 205v299l-72 -15q-163 -29 -255.5 -69.5t-92.5 -163.5q0 -96 52.5 -144.5t148.5 -48.5q38 0 86 24t68 44t42.5 40.5t22.5 33.5zM514 985q332 0 332 -344v-475q0 -74 14.5 -88.5t38.5 -14.5t62 9v-45q-59 -27 -127 -27q-131 4 -146 125l-18 -19q-129 -129 -303 -129
q-112 0 -192.5 70t-80.5 179t51.5 169t126.5 83.5t186 41.5t152 30t60.5 36t19.5 73q0 115 -62.5 177.5t-183.5 62.5t-174.5 -56.5t-62.5 -84.5h-23v114q165 113 330 113z" />
    <glyph glyph-name="b" unicode="b" horiz-adv-x="1139" 
d="M885 473q0 423 -285 426q-162 0 -234.5 -137.5t-72.5 -343.5q0 -108 34.5 -194t99.5 -133.5t150 -47.5q160 0 234 142.5t74 287.5zM651 985q137 0 230.5 -68.5t138.5 -178t45 -221.5q0 -224 -125.5 -382t-327.5 -158q-203 0 -301 146q-24 -18 -33 -25l-106 -98h-39v1532
q78 -6 82 -6l82 6v-758q141 211 354 211z" />
    <glyph glyph-name="c" unicode="c" 
d="M616 915q-167 0 -259.5 -123t-92.5 -296q0 -128 47 -231.5t132 -160.5t181 -57t159.5 33.5t136.5 99.5l12 -6l-10 -94q-140 -103 -310 -103t-288.5 66t-179 181.5t-60.5 265.5t67.5 263t188 172.5t292.5 59.5t306 -84l-47 -135h-17q-41 57 -55 68q-32 38 -89.5 59.5
t-113.5 21.5z" />
    <glyph glyph-name="d" unicode="d" horiz-adv-x="1139" 
d="M834 504q0 102 -27.5 191t-89.5 147.5t-160 58.5q-305 0 -305 -457q0 -157 67 -275t213 -118q110 0 178 71t96 175.5t28 206.5zM912.5 0q-24.5 0 -78.5 -6v196q-125 -213 -353 -213q-181 0 -295 128.5t-114 367.5q0 141 54 258.5t154.5 185.5t231.5 68q206 0 322 -199
v746q78 -6 81 -6l82 6v-1538q-60 6 -84.5 6z" />
    <glyph glyph-name="e" unicode="e" 
d="M539 922q-91 0 -183 -74.5t-106 -282.5h545q-4 158 -61 257.5t-195 99.5zM956 528q0 -21 -2 -45q-208 6 -415 6h-289q-2 -13 -2 -67t23 -123.5t95 -152.5t233 -83t308 142l-2 -107q-174 -121 -334 -121q-159 0 -269 60.5t-171 174.5t-61 264t54 264t160.5 179.5
t268.5 65.5t282.5 -117t120.5 -340z" />
    <glyph glyph-name="f" unicode="f" horiz-adv-x="569" 
d="M180 895h-141q4 12 4 39t-4 39h141l4 16q42 313 166.5 428t265.5 115q-10 -53 -10 -164l-10 -8l-41 20q-28 11 -72 11q-172 0 -172 -213q0 -84 29 -205h209q-4 -24 -4 -39t4 -39h-205v-901q-86 9 -164 0v901z" />
    <glyph glyph-name="g" unicode="g" 
d="M711 651q0 279 -219 279q-109 0 -170.5 -74t-61.5 -173t26.5 -163t78 -100.5t121.5 -36.5t121 37t77.5 99t26.5 132zM287 25q-125 21 -125 157q0 76 37 116.5t104 68.5q-132 62 -165.5 139.5t-33.5 152.5q0 326 414 326l285 -10q18 -2 60 -2t87 6v-78l-225 19
q141 -111 141 -271t-122.5 -238.5t-313.5 -78.5q-73 0 -110 -19.5t-37 -79.5t46.5 -79t149.5 -19h131q355 0 355 -272q0 -181 -143.5 -292.5t-377.5 -111.5q-143 0 -256.5 76t-113.5 225q0 107 56.5 168.5t156.5 79.5v17zM516 10q-317 0 -317 -241q0 -121 81.5 -184.5
t211.5 -63.5t227.5 64.5t97.5 197.5q0 182 -105 204.5t-196 22.5z" />
    <glyph glyph-name="h" unicode="h" horiz-adv-x="1139" 
d="M651 985q175 0 252.5 -99.5t77.5 -299.5v-592q-60 6 -85 6t-79 -6v545q0 178 -50 259t-177 81q-268 0 -268 -328v-557q-60 6 -85 6t-79 -6v1538q78 -6 82 -6l82 6v-746q113 199 329 199z" />
    <glyph glyph-name="i" unicode="i" horiz-adv-x="569" 
d="M385 1273q0 -40 -28.5 -68.5t-66.5 -28.5t-67.5 29t-29.5 68t29.5 67t67.5 28t66.5 -27.5t28.5 -67.5zM282 0q-25 0 -79 -6v979q78 -6 82 -6l82 6v-979q-60 6 -85 6z" />
    <glyph glyph-name="j" unicode="j" horiz-adv-x="569" 
d="M401 1324q0 -40 -28.5 -68.5t-66.5 -28.5t-67.5 29t-29.5 68t29.5 67t67.5 28t66.5 -27.5t28.5 -67.5zM379 -16q0 -147 -24.5 -250.5t-104.5 -182.5q-107 -92 -236 -92l-14 66l18 -4q56 0 126.5 71.5t70.5 399.5v981q78 -6 82 -6l82 6v-989z" />
    <glyph glyph-name="k" unicode="k" 
d="M326 614q0 -60 10 -67q57 0 178 121l127 129l160 176q78 -6 82 -6l80 6v-15q-32 -29 -163 -136t-288 -259l481 -559v-10q-78 6 -101 6h-24l-28 -2q-27 -2 -49 -4q-78 104 -392 461q-29 32 -47 32q-26 0 -26 -75v-418q-60 6 -85 6t-79 -6v1538q78 -6 82 -6l82 6v-918z" />
    <glyph glyph-name="l" unicode="l" horiz-adv-x="569" 
d="M282 0q-25 0 -79 -6v1538q78 -6 82 -6l82 6v-1538q-60 6 -85 6z" />
    <glyph glyph-name="m" unicode="m" horiz-adv-x="1706" 
d="M612 985q103 0 186 -54.5t113 -148.5q121 203 312 203t265.5 -99.5t74.5 -299.5v-592q-60 6 -85 6t-79 -6v545q0 104 -26.5 222t-201.5 118q-139 0 -187 -94.5t-48 -237.5v-553q-60 6 -85 6t-79 -6v600q0 146 -52 215.5t-159 69.5t-160.5 -39t-72.5 -102t-19 -148v-596
q-61 6 -81 6t-83 -6v979q78 -6 82 -6l82 6v-176q110 188 303 188z" />
    <glyph glyph-name="n" unicode="n" horiz-adv-x="1139" 
d="M651 985q177 0 253.5 -96.5t76.5 -302.5v-592q-60 6 -85 6t-79 -6v545q0 105 -28.5 222.5t-189.5 117.5q-160 0 -218.5 -102t-58.5 -308v-475q-60 6 -85 6t-79 -6v979q78 -6 82 -6l82 6v-187q113 199 329 199z" />
    <glyph glyph-name="o" unicode="o" horiz-adv-x="1139" 
d="M570 922q-102 0 -210 -95t-108 -354q0 -258 104 -345t214 -87t181.5 75t103.5 180.5t32 191.5t-15 159t-50 135.5t-92.5 101t-159.5 38.5zM72 468q0 243 148.5 380t371.5 137q140 0 247.5 -61t167.5 -174.5t60 -237.5q0 -236 -136 -385.5t-376 -149.5q-133 0 -244 61.5
t-175 179t-64 250.5z" />
    <glyph glyph-name="p" unicode="p" horiz-adv-x="1139" 
d="M299 766h4q50 97 117.5 158t242.5 61t286.5 -136.5t111.5 -332.5q0 -249 -122.5 -394t-326.5 -145t-309 197h-4v-704q-60 6 -85 6t-79 -6v1503q78 -6 82 -6l82 6v-207zM299 457q0 -175 75.5 -284.5t225.5 -109.5q99 0 190 86.5t91 345.5t-90.5 339.5t-196.5 80.5
t-200.5 -98.5t-94.5 -359.5z" />
    <glyph glyph-name="q" unicode="q" horiz-adv-x="1139" 
d="M912.5 -524q-24.5 0 -78.5 -6v700h-5q-94 -193 -308 -193t-330.5 146.5t-116.5 359.5q0 143 48 257.5t140 179.5t221 65q203 0 269.5 -96.5t76.5 -126.5h5v211q78 -6 81 -6l82 6v-1503q-60 6 -84.5 6zM537 915q-283 0 -283 -403q0 -190 67 -319.5t238 -129.5
q88 0 179.5 83t95.5 313q-4 271 -103.5 363.5t-193.5 92.5z" />
    <glyph glyph-name="r" unicode="r" horiz-adv-x="682" 
d="M594 985q40 0 63 -10l-28 -172q-9 2 -42 17.5t-62 15.5q-77 0 -125 -54t-61 -108t-13 -150v-530q-60 6 -85 6t-79 -6v979q78 -6 82 -6l82 6v-205l10 25q121 192 258 192z" />
    <glyph glyph-name="s" unicode="s" horiz-adv-x="797" 
d="M372 41q59 0 105.5 24t75.5 67t29 95q0 92 -56.5 126.5t-181 70.5t-185.5 87t-61 182t94.5 211.5t239.5 80.5q70 0 136 -17t96 -36q-29 -64 -50 -146h-18q-30 77 -83 106.5t-91 29.5q-80 0 -133 -45t-53 -129t55.5 -119t178 -74.5t186 -91t63.5 -158.5t-55 -181
t-142.5 -110.5t-179.5 -36.5q-145 0 -256 66q38 115 43 150h16q40 -65 104 -108.5t123 -43.5z" />
    <glyph glyph-name="t" unicode="t" horiz-adv-x="569" 
d="M311 973h217q-4 -30 -4 -44t4 -34h-217v-588q0 -117 30 -187.5t122 -70.5q20 0 92 14v-49q-101 -37 -165 -37q-126 0 -184.5 71t-58.5 251v596h-127q5 14 5 40t-5 38h127v203l164 63v-266z" />
    <glyph glyph-name="u" unicode="u" horiz-adv-x="1139" 
d="M884 0q-25 0 -79 -6v176q-101 -193 -326 -193q-172 0 -255 94t-83 300v602q78 -6 82 -6l82 6v-553q0 -226 78.5 -284t172.5 -58t171.5 68t77.5 262v565q78 -6 82 -6l82 6v-979q-60 6 -85 6z" />
    <glyph glyph-name="v" unicode="v" 
d="M504 0q-20 0 -62 -6q-71 207 -219 556t-182 423q84 -6 92 -6l90 6q98 -323 305 -789q36 50 39 58l123 288l164 443l66 -6q9 0 26 2t39 4q-157 -327 -267 -593.5t-151 -385.5q-43 6 -63 6z" />
    <glyph glyph-name="w" unicode="w" horiz-adv-x="1593" 
d="M1088 0q-14 0 -50 -6q-53 198 -130 415.5t-122 327.5q-107 -208 -278 -743q-42 6 -58 6q-17 0 -53 -6q-182 569 -362 979l90 -6l90 6q127 -436 260 -760q65 139 149.5 366t137.5 394l53 -6l53 6q111 -407 262 -762q244 575 302 762q60 -6 68 -6q7 0 23 2t38 4
q-74 -147 -201 -439t-211 -540q-47 6 -61 6z" />
    <glyph glyph-name="x" unicode="x" 
d="M893 967q7 0 25.5 2t42.5 4q-216 -234 -381 -441l383 -518v-20q-73 6 -97 6q-25 0 -96 -6q-129 214 -289 422q-213 -288 -295 -422q-42 6 -62 6t-61 -6v20q282 349 369 463l-373 496q102 -6 105 -6l104 6q47 -82 127.5 -197t136.5 -184l115 147l172 234q67 -6 74 -6z" />
    <glyph glyph-name="y" unicode="y" 
d="M928 967q8 0 25.5 2t39.5 4q-79 -175 -295 -650.5t-366 -852.5q-54 6 -70 6t-24 -1t-19.5 -2t-25.5 -3q204 400 274 532l-414 971q96 -6 99 -6l96 6q112 -346 305 -760q124 254 307 760q60 -6 68 -6z" />
    <glyph glyph-name="z" unicode="z" 
d="M156 910q0 10 -6 53h784v-19l-637 -862v-6q180 0 364.5 12.5t258.5 17.5q-9 -62 0 -106h-875v18q227 278 653 865v6q-189 0 -334.5 -13t-213.5 -18q6 42 6 52z" />
    <glyph glyph-name="braceleft" unicode="{" horiz-adv-x="682" 
d="M422 358v-340q0 -149 54 -196t116 -60q-182 0 -250 65.5t-68 242.5v333q0 112 -30 163.5t-125 78.5q92 27 123.5 79.5t31.5 156.5v364q0 122 35.5 183.5t102.5 82.5t180 21q-95 -23 -132.5 -83.5t-37.5 -174.5v-363q0 -78 -19 -156t-147 -110q129 -35 147.5 -117.5
t18.5 -169.5z" />
    <glyph glyph-name="bar" unicode="|" horiz-adv-x="682" 
d="M274 0v1532h132v-1532h-132z" />
    <glyph glyph-name="braceright" unicode="}" horiz-adv-x="682" 
d="M260 16v342q0 128 33 193.5t133 91.5q-128 32 -147 110t-19 158v363q0 112 -37 173t-133 85q110 0 214 -32.5t104 -256.5v-364q0 -136 47 -177.5t108 -58.5q-96 -25 -125.5 -76.5t-29.5 -163.5v-333q0 -121 -29.5 -188.5t-97 -93.5t-191.5 -26q94 20 132 82t38 172z" />
    <glyph glyph-name="asciitilde" unicode="~" horiz-adv-x="1241" 
d="M862 389q-47 0 -92.5 14t-114.5 42t-90 37t-72 29.5t-111 20.5q-61 0 -105.5 -46.5t-100.5 -141.5l-72 82q60 108 127 173t156 65t212.5 -56t169 -73t95.5 -17t109 54.5t92 121.5l72 -82q-72 -134 -150 -178.5t-125 -44.5z" />
    <glyph glyph-name="Zcaron" horiz-adv-x="1251" 
d="M897 1788h59l-225 -289h-100l-225 289h61l215 -182zM125 1332q0 15 -6 63h1077v-39q-507 -663 -893 -1262v-4h311q187 4 574 33l-6 -62q0 -1 6 -61h-1153v45l596 832q224 323 291 426v4l-234 -2q-137 0 -250 -8.5t-188 -14t-131 -10.5q6 45 6 60z" />
    <glyph glyph-name="ogonek" horiz-adv-x="682" 
d="M319 -233q77 0 150 73l33 -43q-127 -114 -232 -114q-55 0 -93 39t-38 89t30.5 97.5t72.5 71.5h75q-31 -24 -56 -60t-25 -70t24 -58.5t59 -24.5z" />
    <glyph glyph-name="caron" horiz-adv-x="682" 
d="M582 1432h67l-252 -342h-112l-252 342h69l240 -215z" />
    <glyph glyph-name="Lslash" 
d="M362 96q319 0 418 10.5t148 16.5l-6 -62q0 -1 6 -61h-746v637l-182 -94v102l182 94v656l90 -6l90 6v-533l261 133v-102l-261 -133v-664z" />
    <glyph glyph-name="ordmasculine" horiz-adv-x="696" 
d="M51 702h594v-61h-594v61zM354 1389q-108 0 -160.5 -81.5t-52.5 -171.5t21.5 -148t68.5 -94t119 -36t138.5 65t66.5 210q0 101 -46.5 178.5t-154.5 77.5zM25 1140q0 76 44 143.5t121.5 104.5t171.5 37q146 1 228 -85t82 -214q0 -85 -47 -165q-94 -140 -285 -140
q-66 1 -118 21t-72 34t-50 42q-43 46 -59 96t-16 126z" />
    <glyph glyph-name="fraction" horiz-adv-x="342" 
d="M-136 -41q-18 0 -46 -4l571 1440q28 -4 45 -4t45 4l-569 -1440q-28 4 -46 4z" />
    <glyph glyph-name="breve" horiz-adv-x="682" 
d="M57 1409h54q14 -92 75.5 -148.5t153.5 -56.5q191 0 229 205h58q-17 -201 -112 -260t-203 -59t-181.5 90t-73.5 229z" />
    <glyph glyph-name="dotlessi" horiz-adv-x="569" 
d="M282 0q-25 0 -79 -6v979q78 -6 82 -6l82 6v-979q-60 6 -85 6z" />
    <glyph glyph-name="dotlessi" unicode="&#x131;" horiz-adv-x="569" 
d="M282 0q-25 0 -79 -6v979q78 -6 82 -6l82 6v-979q-60 6 -85 6z" />
    <glyph glyph-name="zcaron" 
d="M758 1362h59l-225 -289h-100l-226 289h62l215 -182zM156 910q0 10 -6 53h784v-19l-637 -862v-6q180 0 364.5 12.5t258.5 17.5q-9 -62 0 -106h-875v18q227 278 653 865v6q-189 0 -334.5 -13t-213.5 -18q6 42 6 52z" />
    <glyph glyph-name="Ydieresis" horiz-adv-x="1251" 
d="M464 1509q-30 0 -66 21t-36 66t28.5 73.5t66.5 28.5t66 -28t28 -67t-28.5 -66.5t-58.5 -27.5zM832 1509q-30 0 -65.5 20.5t-35.5 66.5q0 45 27.5 73.5t67.5 28.5t67 -28.5t27 -66.5t-29 -66t-59 -28zM627 0q-30 0 -84 -6v590l-502 811q114 -6 115 -6l112 6
q100 -194 229.5 -417.5t159.5 -268.5q54 61 392 686q78 -6 85 -6t26.5 2t47.5 4q-79 -102 -145 -205l-225 -363q-65 -98 -115 -204v-629q-66 6 -96 6z" />
    <glyph glyph-name="Ydieresis" unicode="&#x178;" horiz-adv-x="1251" 
d="M464 1509q-30 0 -66 21t-36 66t28.5 73.5t66.5 28.5t66 -28t28 -67t-28.5 -66.5t-58.5 -27.5zM832 1509q-30 0 -65.5 20.5t-35.5 66.5q0 45 27.5 73.5t67.5 28.5t67 -28.5t27 -66.5t-29 -66t-59 -28zM627 0q-30 0 -84 -6v590l-502 811q114 -6 115 -6l112 6
q100 -194 229.5 -417.5t159.5 -268.5q54 61 392 686q78 -6 85 -6t26.5 2t47.5 4q-79 -102 -145 -205l-225 -363q-65 -98 -115 -204v-629q-66 6 -96 6z" />
    <glyph glyph-name="fl" unicode="&#xa0;" horiz-adv-x="1139" 
d="M784 1532q78 -6 82 -6l82 6v-1542q-80 8 -164 0v1542zM286 -4q-25 0 -79 -6v905h-141q4 12 4 39t-4 39h141q29 314 148.5 437.5t238.5 123.5q27 0 41 -2q-8 -66 -8 -164l-13 -8l-41 20q-27 11 -71 11q-87 0 -127.5 -60.5t-40.5 -154.5t33 -203h208q-4 -30 -4 -40t4 -38
h-204v-905q-60 6 -85 6z" />
    <glyph glyph-name="exclamdown" unicode="&#xa1;" horiz-adv-x="682" 
d="M442 -289q0 -143 -96 -143q-59 0 -79.5 41t-21.5 95t1 69l76 864h40l80 -864v-62zM217 892q0 52 37.5 88t87.5 36t85.5 -37t35.5 -87t-35.5 -86t-85.5 -36t-87.5 35t-37.5 87z" />
    <glyph glyph-name="cent" unicode="&#xa2;" horiz-adv-x="1139" 
d="M139 483q0 226 153 364t380 138q19 0 63 -4l72 233q27 -17 72 -20l-68 -223q51 -8 104.5 -29.5t81.5 -42.5l-47 -135h-16l-20 28q-20 27 -35 39q-41 41 -91 62l-245 -809q70 -33 151 -33t147.5 30.5t147.5 90.5l-8 -92q-139 -103 -328 -103q-73 0 -139 13l-78 -256
q-24 22 -74 22l78 254q-123 54 -212 168.5t-89 304.5zM674 918q-114 0 -194 -59t-120.5 -156.5t-40.5 -209.5t40 -209.5t116 -156.5l240 786q-38 5 -41 5z" />
    <glyph glyph-name="sterling" unicode="&#xa3;" horiz-adv-x="1139" 
d="M100 66q0 18 -6 67q233 0 272.5 116t39.5 232l-15 199q-65 0 -205 -8v90q72 -10 195 -10q-14 70 -14 168q0 215 104.5 345t306.5 130q95 0 176 -37q84 -44 88 -74q-24 -30 -45 -56.5t-41 -45.5l-8 28q-22 48 -68 80.5t-96 32.5q-254 0 -254 -317q2 -22 2 -43l7 -115
l8 -98q192 0 309 16v-90q-66 2 -130.5 3.5t-84 2t-92.5 0.5q6 -43 6 -88q0 -133 -51 -254.5t-150 -204.5h68l432 17l188 8l-6 -80q0 -8 6 -80h-948q6 48 6 66z" />
    <glyph glyph-name="currency" unicode="&#xa4;" horiz-adv-x="1139" 
d="M574 1098q-104 0 -194 -51t-142 -140t-52 -195t52 -193.5t140.5 -138t193.5 -50.5t192.5 52.5t138.5 142t51 189.5t-51 189.5t-138 142t-191 52.5zM61 722q0 176 109 300l-111 113l91 90l110 -113q134 111 310 111t309 -109l108 109l88 -88l-108 -109q112 -134 112 -311
t-116 -314l108 -110l-88 -88l-109 108q-126 -106 -303 -106q-176 0 -307 106l-108 -108l-90 86l110 110q-115 147 -115 323z" />
    <glyph glyph-name="yen" unicode="&#xa5;" horiz-adv-x="1139" 
d="M1044 1399q6 0 24 2t44 4q-23 -38 -62.5 -100t-72.5 -115l-180 -316h211v-100h-269q-24 -45 -77 -151v-74h346v-100h-346v-455q-60 6 -87 6t-81 -6v455h-375v100h375v35l-111 190h-264v100h211l-303 531q102 -6 103 -6l110 6q55 -125 183 -370.5t177 -325.5
q43 53 166.5 295t198.5 401q73 -6 79 -6z" />
    <glyph glyph-name="brokenbar" unicode="&#xa6;" horiz-adv-x="682" 
d="M274 1532h132v-574h-132v574zM274 0v573h132v-573h-132z" />
    <glyph glyph-name="section" unicode="&#xa7;" 
d="M807 497q0 129 -170 208l-213 96q-100 43 -129 78q-78 -71 -78 -139q1 -68 37 -113t86.5 -74t144.5 -72l152 -63l113 -62q57 92 57 141zM125 664q0 140 137 245q-55 99 -55 189t47 166.5t129 118.5t184 42q167 0 275 -114q-35 -43 -62 -119h-18q-29 74 -86.5 120
t-139.5 46t-130 -36q-94 -71 -93 -153q0 -83 39.5 -130.5t108.5 -77.5l256 -113q82 -37 131 -104.5t49 -155.5q0 -136 -117 -262q78 -84 78 -169q0 -172 -122.5 -286.5t-307.5 -114.5q-138 0 -289 84q25 97 25 174h18q103 -184 310 -184q68 0 127.5 36.5t96 90.5t36.5 106
t-31.5 103.5t-153.5 101.5l-108 47q-115 49 -178.5 86t-109.5 102t-46 161z" />
    <glyph glyph-name="dieresis" unicode="&#xa8;" horiz-adv-x="682" 
d="M140 1128q-36 0 -65.5 29t-29.5 66t27.5 65.5t65.5 28.5t66.5 -28t28.5 -67t-28.5 -66.5t-64.5 -27.5zM542 1128q-36 0 -66 30t-30 66t27 64.5t67 28.5t67.5 -28.5t27.5 -65.5t-28.5 -66t-64.5 -29z" />
    <glyph glyph-name="copyright" unicode="&#xa9;" horiz-adv-x="1536" 
d="M340 700q0 126 60.5 217.5t165 139t236.5 47.5t259 -53q-16 -38 -25 -95h-8q-9 14 -66.5 50t-166.5 36q-144 0 -230 -97.5t-86 -248.5q0 -108 41.5 -186t112 -118t153.5 -40t144.5 24.5t120.5 57.5l-13 -78q-102 -65 -285 -65q-182 0 -297.5 110.5t-115.5 298.5zM746 72
q271 0 454.5 184.5t183.5 439.5q0 256 -182 441.5t-456 185.5q-144 0 -285.5 -85.5t-224 -230.5t-82.5 -311t83 -310t224 -229t285 -85zM766 -31q-197 0 -364 98t-264 265.5t-97 363.5t97.5 364.5t264.5 266.5t363 98t365.5 -98t267.5 -265t98 -365t-98 -365t-267 -265
t-366 -98z" />
    <glyph glyph-name="ordfeminine" unicode="&#xaa;" horiz-adv-x="664" 
d="M51 641v61h561v-61h-561zM442 956v181l-51 -9q-83 -13 -128 -23t-83.5 -37.5t-38.5 -81.5t39.5 -85t102.5 -30t118 49q41 25 41 36zM551 834q-91 0 -105 75q-62 -51 -111.5 -69.5t-121.5 -18.5t-130 42.5t-58 107.5q0 39 23 78t70 59t87.5 27.5t117.5 18t97 20.5
t24.5 22.5t4.5 34.5q0 68 -44.5 106.5t-120.5 38.5t-121 -28.5t-59 -59.5h-14v70q111 67 230 67t179 -47.5t60 -158.5v-236q0 -19 -2 -41q0 -70 49 -70q25 0 33 5v-27q-32 -16 -88 -16z" />
    <glyph glyph-name="guillemotleft" unicode="&#xab;" 
d="M737 70l-245 389l258 379q30 -39 75 -54l-229 -323l219 -338q-47 -14 -78 -53zM444 70l-245 389l258 379q30 -39 75 -54l-229 -323l219 -338q-47 -14 -78 -53z" />
    <glyph glyph-name="logicalnot" unicode="&#xac;" horiz-adv-x="1241" 
d="M1006 231v422h-902v131h1033v-553h-131z" />
    <glyph glyph-name="minus" unicode="&#xad;" horiz-adv-x="1241" 
d="M1137 455h-1033v131h1033v-131z" />
    <glyph glyph-name="registered" unicode="&#xae;" horiz-adv-x="1536" 
d="M606 1028v-278h133q82 0 132.5 41.5t50.5 109.5q0 121 -138 127h-178zM1039 313q-17 0 -68 -6q-39 56 -76 101l-145 174l-97 106h-47v-381q-38 6 -48 6t-58 -6v783h258q270 0 270 -175q0 -91 -72 -144.5t-178 -72.5l252 -299l57 -63l23 -29q-54 6 -71 6zM770 72
q164 0 305.5 85t224 229t82.5 312t-82.5 311.5t-224.5 228.5t-285 85t-254.5 -48t-199 -136.5t-136 -203.5t-48.5 -259t83.5 -288.5t227 -230t307.5 -85.5zM770 -31q-197 0 -366 98t-267 266t-98 340t57.5 306.5t158 233.5t234 155.5t281.5 56.5t281 -56.5t232.5 -156
t155.5 -233t56 -281.5t-55.5 -281.5t-156.5 -234.5t-234.5 -157t-278.5 -56z" />
    <glyph glyph-name="macron" unicode="&#xaf;" horiz-adv-x="682" 
d="M614 1174h-544v102h544v-102z" />
    <glyph glyph-name="ring" unicode="&#xb0;" horiz-adv-x="682" 
d="M394 1069q-54 0 -101.5 27.5t-76 74.5t-28.5 101t28 101t76 75.5t102 28.5t100.5 -28.5t74 -75.5t27.5 -101t-27.5 -101t-74 -74.5t-100.5 -27.5zM394 1399q-50 0 -89 -39t-39 -88t39 -87t88 -38t87 38t38 87t-37 88t-87 39z" />
    <glyph glyph-name="plusminus" unicode="&#xb1;" horiz-adv-x="1241" 
d="M1137 0h-1033v131h1033v-131zM555 709v325h131v-325h451v-131h-451v-332h-131v332h-451v131h451z" />
    <glyph glyph-name="twosuperior" unicode="&#xb2;" horiz-adv-x="682" 
d="M487 1153q0 174 -155 174q-60 0 -106 -37t-66 -96l-45 59q79 117 215 117q280 0 280 -215q0 -125 -137 -258l-240 -235l-22 -23l6 -14q146 0 410 16q-6 -23 -6 -47t6 -45h-572v18q35 31 109 101l80 75q128 122 185.5 203.5t57.5 206.5z" />
    <glyph glyph-name="threesuperior" unicode="&#xb3;" horiz-adv-x="682" 
d="M449 1162q0 166 -138 165q-47 0 -89.5 -27t-59.5 -67l-6 -2l-35 65q21 24 74 49t118 25t124 -18.5t96.5 -58t37.5 -105.5t-47 -122t-133 -83v-4q95 -5 158 -53t63 -135q0 -118 -97.5 -187t-225.5 -69t-217 38q12 27 16 76l8 4q72 -75 176 -75t160.5 59t56.5 145t-48 129
t-134 43q-12 0 -33 -2t-30 -2l4 25l-4 24q25 0 49 -2q80 0 118 52.5t38 112.5z" />
    <glyph glyph-name="acute" unicode="&#xb4;" horiz-adv-x="682" 
d="M643 1360q0 -18 -8 -25q-7 -15 -22 -25t-29 -20l-322 -200h-69l256 256q35 35 47 46q13 11 28.5 25.5t30.5 16.5q69 0 82 -43q6 -13 6 -31z" />
    <glyph glyph-name="mu" unicode="&#xb5;" horiz-adv-x="1139" 
d="M305 420q0 -226 78.5 -284t172.5 -58t171.5 68t77.5 262v565q78 -6 82 -6l82 6v-979q-60 6 -85 6t-79 -6v176h-4q-95 -193 -322 -193q-100 0 -174 56v-563q-60 6 -80 6t-84 -6v1503q78 -6 82 -6l82 6v-553z" />
    <glyph glyph-name="paragraph" unicode="&#xb6;" horiz-adv-x="1638" 
d="M514 1090v-134q0 -239 166 -239l29 2v610q-150 0 -172.5 -80t-22.5 -159zM1082.5 -203q-22.5 0 -64.5 -6v1538h-180v-1538q-42 6 -64.5 6t-64.5 -6v873l-74 -7q-183 0 -290 95.5t-107 279.5q0 103 54 216.5t180.5 130t219.5 16.5h455v-1604q-42 6 -64.5 6z" />
    <glyph glyph-name="periodcentered" unicode="&#xb7;" horiz-adv-x="569" 
d="M162 520q0 50 38 86.5t78 36.5t85 -27t45 -86t-36 -96t-86 -37t-87 36.5t-37 86.5z" />
    <glyph glyph-name="periodcentered" unicode="&#x2219;" horiz-adv-x="569" 
d="M162 520q0 50 38 86.5t78 36.5t85 -27t45 -86t-36 -96t-86 -37t-87 36.5t-37 86.5z" />
    <glyph glyph-name="cedilla" unicode="&#xb8;" horiz-adv-x="682" 
d="M317 -369q37 0 72 22t35 64q0 80 -107 80q-9 0 -47 -10l-32 10l90 203h69l-61 -135q37 10 67 10q71 0 117.5 -38.5t46.5 -104.5t-59 -119q-72 -49 -174 -49t-182 30l28 62q100 -25 137 -25z" />
    <glyph glyph-name="onesuperior" unicode="&#xb9;" horiz-adv-x="682" 
d="M396.5 532q-14.5 0 -50.5 -6v742l-8 4l-150 -74q-17 33 -38 45q163 61 280 127l23 -6v-838q-42 6 -56.5 6z" />
    <glyph glyph-name="degree" unicode="&#xba;" horiz-adv-x="819" 
d="M635 1062q0 61 -31 113t-83.5 82.5t-128.5 30.5t-142 -66t-66 -160t66 -159t160 -65q60 0 112 30t82.5 81.5t30.5 112.5zM717 1052q0 -72 -41.5 -142.5t-112.5 -112t-153 -41.5q-128 0 -218 90t-90 217q0 82 41 152.5t112.5 112.5t143.5 42t128.5 -23.5t99.5 -66.5
t66.5 -99.5t23.5 -128.5z" />
    <glyph glyph-name="guillemotright" unicode="&#xbb;" 
d="M287 838l245 -389l-258 -379q-32 40 -75 53l229 323l-219 338q49 16 78 54zM580 838l245 -389l-258 -379q-32 40 -75 53l229 323l-219 338q49 16 78 54z" />
    <glyph glyph-name="onequarter" unicode="&#xbc;" horiz-adv-x="1708" 
d="M1333 299v395l-6 4q-80 -96 -299 -393l6 -6h299zM1385 0q-13 0 -52 -6v235h-411v17q181 245 434 571q42 -6 43 -6l41 6v-518l123 6q-4 -24 -4 -37t4 -43l-123 4v-235q-42 6 -55 6zM392.5 532q-14.5 0 -50.5 -6v742l-8 4l-150 -74q-17 33 -39 45q166 62 281 127l23 -6
v-838q-42 6 -56.5 6zM526 -41q-15 0 -49 -4l572 1440q28 -4 44 -4t46 4l-570 -1440q-28 4 -43 4z" />
    <glyph glyph-name="onehalf" unicode="&#xbd;" horiz-adv-x="1708" 
d="M1266 821q280 0 280 -215q0 -125 -137 -258l-240 -235l-22 -23l6 -14q146 0 410 16q-7 -28 -7 -48t7 -44h-572v18q35 31 109 101l80 76q126 118 184.5 201t58.5 208q0 174 -155 174q-60 0 -106 -37t-66 -96l-45 60q79 116 215 116zM392.5 532q-14.5 0 -50.5 -6v742l-8 4
l-150 -74q-17 33 -39 45q166 62 281 127l23 -6v-838q-42 6 -56.5 6zM496 -41q-15 0 -47 -4l571 1440q28 -4 45 -4t45 4l-569 -1440q-30 4 -45 4z" />
    <glyph glyph-name="threequarters" unicode="&#xbe;" horiz-adv-x="1708" 
d="M1370 299v395l-6 4q-71 -82 -168.5 -215.5t-130.5 -177.5l6 -6h299zM1426 0q-8 0 -56 -6v235h-412v17q161 218 435 571q42 -6 43 -6l41 6v-518l122 6v-80l-122 4v-235q-43 6 -51 6zM485 1174q0 73 -35 113t-92 40t-99.5 -27t-59.5 -67l-6 -2l-35 65q21 24 74 49t118 25
t124 -18.5t96.5 -58t37.5 -105.5t-47 -122t-133 -83v-4q95 -5 158 -53t63 -135q0 -118 -97.5 -187t-225.5 -69t-217 38q12 27 16 76l8 4q72 -75 176 -75t160.5 59t56.5 145t-48 129t-134 43q-12 0 -33 -2t-30 -2l4 25l-4 24q25 0 49 -2q79 0 117 52t38 125zM575 -41
q-15 0 -49 -4l572 1440q28 -4 45 -4t45 4l-570 -1440q-28 4 -43 4z" />
    <glyph glyph-name="questiondown" unicode="&#xbf;" horiz-adv-x="797" 
d="M311 894q0 50 37.5 86t87.5 36t85.5 -37t35.5 -87t-35.5 -86t-85.5 -36t-87.5 37t-37.5 87zM485 442q0 50 -29.5 86.5t-69.5 36.5t-75 -12l-12 8l25 57q20 11 69 11q95 0 158 -70t63 -156t-30.5 -143t-87.5 -115l-123 -131q-58 -58 -84.5 -103t-26.5 -113t58 -112
t116 -44t112.5 28.5t76.5 63.5l12 -101q-116 -65 -206 -65t-196 52.5t-106 225.5q0 76 30 136.5t93 130.5l129 141q45 49 74.5 93.5t29.5 94.5z" />
    <glyph glyph-name="Agrave" unicode="&#xc0;" horiz-adv-x="1366" 
d="M874 1554h-65l-279 175q-12 9 -25 18t-20 20q-2 17 -2 50q14 38 74 38q25 -6 86 -71zM872 633l-227 524l-223 -524h450zM1227 0q-28 0 -109 -6q-104 301 -215 553h-520q-151 -378 -203 -553q-54 6 -74 6t-27.5 -1t-19.5 -2t-26 -3l639 1431h47l614 -1431q-78 6 -106 6z
" />
    <glyph glyph-name="Aacute" unicode="&#xc1;" horiz-adv-x="1366" 
d="M872 1720l-284 -182h-62q230 229 266 265t56 40q61 0 72 -39q0 -42 -5 -50t-11.5 -13.5t-14.5 -10t-17 -10.5zM872 633l-227 524l-223 -524h450zM1227 0q-28 0 -109 -6q-104 301 -215 553h-520q-151 -378 -203 -553q-54 6 -74 6t-27.5 -1t-19.5 -2t-26 -3l639 1431h47
l614 -1431q-78 6 -106 6z" />
    <glyph glyph-name="Acircumflex" unicode="&#xc2;" horiz-adv-x="1366" 
d="M471 1495h-61l225 293h100l226 -293h-60l-215 186zM872 633l-227 524l-223 -524h450zM1227 0q-28 0 -109 -6q-104 301 -215 553h-520q-151 -378 -203 -553q-54 6 -74 6t-27.5 -1t-19.5 -2t-26 -3l639 1431h47l614 -1431q-78 6 -106 6z" />
    <glyph glyph-name="Atilde" unicode="&#xc3;" horiz-adv-x="1366" 
d="M528 1610q-71 0 -98 -82h-41q17 78 68.5 129t122.5 51q39 0 108 -34q101 -48 140 -48q38 0 61 31q9 9 33 57h53q-18 -76 -68 -131t-127 -55q-42 0 -73 13t-57 26t-58 28t-64 15zM872 633l-227 524l-223 -524h450zM1227 0q-28 0 -109 -6q-104 301 -215 553h-520
q-151 -378 -203 -553q-54 6 -74 6t-27.5 -1t-19.5 -2t-26 -3l639 1431h47l614 -1431q-78 6 -106 6z" />
    <glyph glyph-name="Adieresis" unicode="&#xc4;" horiz-adv-x="1366" 
d="M509 1536q-30 0 -65.5 20.5t-35.5 65.5t28 73.5t66 28.5t66 -28t28 -66t-28.5 -66t-58.5 -28zM870 1536q-24 0 -59 20.5t-35 65.5t27 73.5t67 28.5t67.5 -28.5t27.5 -58.5t-13 -52.5t-35.5 -35.5t-46.5 -13zM872 633l-227 524l-223 -524h450zM1227 0q-28 0 -109 -6
q-104 301 -215 553h-520q-151 -378 -203 -553q-54 6 -74 6t-27.5 -1t-19.5 -2t-26 -3l639 1431h47l614 -1431q-78 6 -106 6z" />
    <glyph glyph-name="Aring" unicode="&#xc5;" horiz-adv-x="1366" 
d="M694 1518q-60 0 -115 53.5t-55 126.5t54.5 127.5t115.5 54.5t102.5 -25t66 -66.5t24.5 -90.5t-24.5 -90t-66.5 -65.5t-102 -24.5zM706 1812q-44 0 -78 -33t-34 -79t35 -78.5t79 -32.5t76.5 33.5t32.5 77.5t-33.5 78t-77.5 34zM872 633l-227 524l-223 -524h450zM1227 0
q-28 0 -109 -6q-104 301 -215 553h-520q-151 -378 -203 -553q-54 6 -74 6t-27.5 -1t-19.5 -2t-26 -3l639 1431h47l614 -1431q-78 6 -106 6z" />
    <glyph glyph-name="AE" unicode="&#xc6;" horiz-adv-x="1706" 
d="M934 596v649q-15 -3 -21 -8l-407 -641h428zM1114 1298v-518h256q31 0 92.5 5t89.5 6l-6 -54l6 -57q-110 10 -182 10h-256v-594q135 0 361 8q62 4 157 19l-6 -62q0 -1 6 -61h-698v510h-475q-58 -86 -153.5 -261.5t-131.5 -254.5q-66 6 -85.5 6t-28.5 -1t-21.5 -2t-28.5 -3
l924 1401h686l-6 -62q0 -9 2 -25t4 -36q-76 15 -184 22l-205 4h-117z" />
    <glyph glyph-name="Ccedilla" unicode="&#xc7;" horiz-adv-x="1366" 
d="M78 702q0 224 101 388t277.5 249.5t399.5 85.5t434 -94q-26 -66 -43 -157l-14 -3q-73 87 -183.5 132t-207.5 45q-180 0 -307.5 -88.5t-191.5 -239t-64 -334.5t69 -331t194 -226.5t295 -79.5t280.5 68.5t144.5 97.5l-11 -129q-171 -117 -452 -117q-95 0 -180 17l-50 -109
q28 8 76 8t89.5 -34.5t41.5 -93.5t-51 -103q-63 -43 -155 -43t-160 27l24 55q98 -21 125 -21t57.5 20t30.5 56q0 72 -94 72l-41 -8l-29 8l80 178h3q-179 48 -333.5 208.5t-154.5 495.5z" />
    <glyph glyph-name="Egrave" unicode="&#xc8;" 
d="M713 1503h-66l-278 174q-38 25 -45 39q-2 17 -2 49q12 39 73 39q17 -4 30 -15t56 -56zM362 1298v-514h318q27 0 84.5 4.5t97.5 6.5l-6 -54l6 -57l-182 10h-318v-598q383 0 560 27q-5 -40 -6 -55t6 -68h-740v1395h727l-6 -62q0 -9 2 -25t4 -36q-76 15 -184 22l-205 4h-158
z" />
    <glyph glyph-name="Eacute" unicode="&#xc9;" 
d="M772 1679l-285 -182h-61l229 229q39 40 45 44t21.5 17.5t26.5 14.5q62 0 71 -39q-1 -41 -5 -49t-42 -35zM362 1298v-514h318q27 0 84.5 4.5t97.5 6.5l-6 -54l6 -57l-182 10h-318v-598q383 0 560 27q-5 -40 -6 -55t6 -68h-740v1395h727l-6 -62q0 -9 2 -25t4 -36
q-76 15 -184 22l-205 4h-158z" />
    <glyph glyph-name="Ecircumflex" unicode="&#xca;" 
d="M322 1491h-62l225 293h101l225 -293h-59l-215 186zM362 1298v-514h318q27 0 84.5 4.5t97.5 6.5l-6 -54l6 -57l-182 10h-318v-598q383 0 560 27q-5 -40 -6 -55t6 -68h-740v1395h727l-6 -62q0 -9 2 -25t4 -36q-76 15 -184 22l-205 4h-158z" />
    <glyph glyph-name="Edieresis" unicode="&#xcb;" 
d="M359 1501q-30 0 -65.5 20.5t-35.5 73.5t35 74t66 21t59 -28t28 -67t-28.5 -66.5t-58.5 -27.5zM721 1501q-23 0 -58.5 20.5t-35.5 73.5t35 74t59 21t59 -20.5t35 -74.5q0 -53 -35.5 -73.5t-58.5 -20.5zM362 1298v-514h318q27 0 84.5 4.5t97.5 6.5l-6 -54l6 -57l-182 10
h-318v-598q383 0 560 27q-5 -40 -6 -55t6 -68h-740v1395h727l-6 -62q0 -9 2 -25t4 -36q-76 15 -184 22l-205 4h-158z" />
    <glyph glyph-name="Igrave" unicode="&#xcc;" horiz-adv-x="569" 
d="M498 1524h-66l-278 174q-39 27 -45 39q-3 16 -3 49q15 39 74 39q17 -5 27 -13t59 -59zM279 0q-30 0 -84 -6v1401l90 -6l90 6v-1401q-66 6 -96 6z" />
    <glyph glyph-name="Iacute" unicode="&#xcd;" horiz-adv-x="569" 
d="M506 1690l-285 -183h-61l229 230q35 33 45 45q6 3 22 16t25 14q62 0 72 -38q0 -48 -10 -58t-16.5 -13.5t-20.5 -12.5zM279 0q-30 0 -84 -6v1401l90 -6l90 6v-1401q-66 6 -96 6z" />
    <glyph glyph-name="Icircumflex" unicode="&#xce;" horiz-adv-x="569" 
d="M90 1532h-61l225 293h100l226 -293h-60l-215 186zM279 0q-30 0 -84 -6v1401l90 -6l90 6v-1401q-66 6 -96 6z" />
    <glyph glyph-name="Idieresis" unicode="&#xcf;" horiz-adv-x="569" 
d="M102 1538q-24 0 -59 20.5t-35 65.5t27.5 73.5t66.5 28.5t67 -28t28 -59t-13 -53t-35.5 -35t-46.5 -13zM471 1538q-23 0 -58.5 20.5t-35.5 65.5t27.5 73.5t66.5 28.5t66.5 -28.5t27.5 -58.5t-13 -52.5t-35.5 -35.5t-45.5 -13zM279 0q-30 0 -84 -6v1401l90 -6l90 6v-1401
q-66 6 -96 6z" />
    <glyph glyph-name="Eth" unicode="&#xd0;" horiz-adv-x="1593" 
d="M446 791h312v-91h-312v-608q130 -10 279 -8t260 57q295 149 295 579q0 429 -186.5 515t-388.5 86l-259 -8v-522zM266 791v604h545q147 0 253 -24t206 -106t155.5 -216.5t55.5 -279.5t-45 -304.5t-206 -302.5t-338.5 -152.5t-287.5 -9.5h-338v700h-164v91h164z" />
    <glyph glyph-name="Ntilde" unicode="&#xd1;" horiz-adv-x="1593" 
d="M678 1606q-70 0 -98 -82h-41q15 77 67.5 128.5t122.5 51.5q42 0 126 -41t123 -41q38 0 60 31q13 12 33 57h53q-18 -79 -68 -132.5t-110 -53.5t-90 13t-56 26t-58 28t-64 15zM1393 -6h-62q-41 54 -106 125l-885 979h-21v-1104q-42 6 -60 6t-54 -6v1401h80l972 -1055h21
v1055q54 -6 57 -6l58 6v-1401z" />
    <glyph glyph-name="Ograve" unicode="&#xd2;" horiz-adv-x="1706" 
d="M1075 1534h-65l-279 174q-12 9 -25 18t-20 21q-2 16 -2 49q12 39 74 39q16 -4 29 -14t57 -58zM868 -31q-370 0 -576 199t-206 526q0 164 58 301t216.5 283.5t482.5 146.5q323 0 550 -178.5t227 -544.5q0 -200 -99 -372.5t-278 -266.5t-375 -94zM1419 706q0 100 -10.5 173
t-56 186t-182 203t-287.5 90q-287 0 -441.5 -187.5t-154.5 -491.5t158.5 -473t400.5 -169q146 0 256 63.5t179.5 165t103.5 221t34 219.5z" />
    <glyph glyph-name="Oacute" unicode="&#xd3;" horiz-adv-x="1706" 
d="M1094 1710l-285 -182h-61l229 229q16 16 25.5 24.5t19.5 18.5q31 31 47 33q63 0 72 -39q1 -42 -5 -52t-42 -32zM868 -31q-370 0 -576 199t-206 526q0 164 58 301t216.5 283.5t482.5 146.5q323 0 550 -178.5t227 -544.5q0 -200 -99 -372.5t-278 -266.5t-375 -94zM1419 706
q0 100 -10.5 173t-56 186t-182 203t-287.5 90q-287 0 -441.5 -187.5t-154.5 -491.5t158.5 -473t400.5 -169q146 0 256 63.5t179.5 165t103.5 221t34 219.5z" />
    <glyph glyph-name="Ocircumflex" unicode="&#xd4;" horiz-adv-x="1706" 
d="M635 1495h-62l226 293h100l225 -293h-59l-215 186zM868 -31q-370 0 -576 199t-206 526q0 164 58 301t216.5 283.5t482.5 146.5q323 0 550 -178.5t227 -544.5q0 -200 -99 -372.5t-278 -266.5t-375 -94zM1419 706q0 100 -10.5 173t-56 186t-182 203t-287.5 90
q-287 0 -441.5 -187.5t-154.5 -491.5t158.5 -473t400.5 -169q146 0 256 63.5t179.5 165t103.5 221t34 219.5z" />
    <glyph glyph-name="Otilde" unicode="&#xd5;" horiz-adv-x="1706" 
d="M698 1610q-71 0 -98 -82h-41q17 78 68.5 129t122.5 51q39 0 108 -34q101 -48 140 -48q38 0 61 31q9 9 33 57h53q-18 -76 -68 -131t-127 -55q-42 0 -73 13t-57 26t-58 28t-64 15zM868 -31q-370 0 -576 199t-206 526q0 164 58 301t216.5 283.5t482.5 146.5
q323 0 550 -178.5t227 -544.5q0 -200 -99 -372.5t-278 -266.5t-375 -94zM1419 706q0 100 -10.5 173t-56 186t-182 203t-287.5 90q-287 0 -441.5 -187.5t-154.5 -491.5t158.5 -473t400.5 -169q146 0 256 63.5t179.5 165t103.5 221t34 219.5z" />
    <glyph glyph-name="Odieresis" unicode="&#xd6;" horiz-adv-x="1706" 
d="M683 1505q-30 0 -65.5 20.5t-35.5 73.5t35 74t66 21t59 -28t28 -67t-28.5 -66.5t-58.5 -27.5zM1044 1505q-24 0 -59 20.5t-35 73.5t35 74t59 21t59.5 -20.5t35.5 -73.5q0 -54 -35.5 -74.5t-59.5 -20.5zM868 -31q-370 0 -576 199t-206 526q0 164 58 301t216.5 283.5
t482.5 146.5q323 0 550 -178.5t227 -544.5q0 -200 -99 -372.5t-278 -266.5t-375 -94zM1419 706q0 100 -10.5 173t-56 186t-182 203t-287.5 90q-287 0 -441.5 -187.5t-154.5 -491.5t158.5 -473t400.5 -169q146 0 256 63.5t179.5 165t103.5 221t34 219.5z" />
    <glyph glyph-name="multiply" unicode="&#xd7;" horiz-adv-x="1241" 
d="M524 516l-420 422l93 94l421 -424l422 424l97 -92l-426 -424l426 -426l-97 -90l-422 424l-421 -424l-93 92z" />
    <glyph glyph-name="Oslash" unicode="&#xd8;" horiz-adv-x="1706" 
d="M317 147q-231 196 -231 563q0 190 100.5 358t274 262.5t383.5 94.5q319 0 499 -151q83 89 179 213q8 -18 57 -51l-188 -197q229 -187 229 -516q0 -223 -99 -394.5t-277.5 -265.5t-403.5 -94q-284 0 -478 142q-148 -174 -180 -215q-25 36 -55 47l29 28zM847 1358
q-131 0 -240.5 -55t-214.5 -198t-105 -420t121 -431l854 938q-152 166 -415 166zM846 37q154 0 266.5 67.5t209.5 219.5t97 383q0 139 -26 245t-95 191l-854 -936q160 -170 402 -170z" />
    <glyph glyph-name="Ugrave" unicode="&#xd9;" horiz-adv-x="1593" 
d="M979 1524h-66l-278 174q-39 27 -45 39q-2 16 -2 49q13 39 74 39q16 -4 29 -14t57 -58zM373 610q0 -281 100 -414t343 -133q242 0 347 150.5t105 417.5v764q54 -6 57 -6l57 6v-815q0 -198 -73 -335.5t-208.5 -206.5t-316.5 -69q-285 0 -444 144q-88 79 -116.5 195
t-30.5 267v820l90 -6l90 6v-785z" />
    <glyph glyph-name="Uacute" unicode="&#xda;" horiz-adv-x="1593" 
d="M1090 1690l-285 -183h-62l230 230q28 26 45 45l18 14q18 15 29 16q61 0 72 -38q0 -40 -4 -48t-11 -14.5t-12.5 -9.5t-19.5 -12zM373 610q0 -281 100 -414t343 -133q242 0 347 150.5t105 417.5v764q54 -6 57 -6l57 6v-815q0 -198 -73 -335.5t-208.5 -206.5t-316.5 -69
q-285 0 -444 144q-88 79 -116.5 195t-30.5 267v820l90 -6l90 6v-785z" />
    <glyph glyph-name="Ucircumflex" unicode="&#xdb;" horiz-adv-x="1593" 
d="M586 1516h-62l226 292h100l225 -292h-59l-215 186zM373 610q0 -281 100 -414t343 -133q242 0 347 150.5t105 417.5v764q54 -6 57 -6l57 6v-815q0 -198 -73 -335.5t-208.5 -206.5t-316.5 -69q-285 0 -444 144q-88 79 -116.5 195t-30.5 267v820l90 -6l90 6v-785z" />
    <glyph glyph-name="Udieresis" unicode="&#xdc;" horiz-adv-x="1593" 
d="M646 1491q-30 0 -65.5 20.5t-35.5 65.5t27.5 73.5t65.5 28.5t66.5 -28.5t28.5 -66.5t-28.5 -65.5t-58.5 -27.5zM1008 1491q-24 0 -59.5 20.5t-35.5 65.5t27.5 73.5t67.5 28.5t67 -28.5t27 -58.5t-13 -52.5t-35 -35.5t-46 -13zM373 610q0 -281 100 -414t343 -133
q242 0 347 150.5t105 417.5v764q54 -6 57 -6l57 6v-815q0 -198 -73 -335.5t-208.5 -206.5t-316.5 -69q-285 0 -444 144q-88 79 -116.5 195t-30.5 267v820l90 -6l90 6v-785z" />
    <glyph glyph-name="Yacute" unicode="&#xdd;" horiz-adv-x="1251" 
d="M887 1700l-285 -182h-61l229 229q28 26 45 45q10 8 23 19t24 12q62 0 72 -39q0 -41 -4 -47t-8.5 -12t-12.5 -11t-22 -14zM627 0q-30 0 -84 -6v590l-502 811q114 -6 115 -6l112 6q100 -194 229.5 -417.5t159.5 -268.5q54 61 392 686q78 -6 85 -6t26.5 2t47.5 4
q-79 -102 -145 -205l-225 -363q-65 -98 -115 -204v-629q-66 6 -96 6z" />
    <glyph glyph-name="Thorn" unicode="&#xde;" horiz-adv-x="1139" 
d="M436 539q40 -1 124 5q85 6 196.5 62t111.5 215q0 94 -57 153t-174 68q-43 5 -153 5t-142 -3v-501q54 -4 94 -4zM246 0q-30 0 -84 -6v1401l90 -6l90 6v-285h227q182 0 287.5 -24.5t153 -85t47.5 -156.5t-50.5 -203t-388.5 -164q-48 -8 -122 -8l-154 4v-479q-66 6 -96 6z
" />
    <glyph glyph-name="germandbls" unicode="&#xdf;" horiz-adv-x="1139" 
d="M909 272q0 90 -56 148.5t-164 124t-161 116.5t-53 122t32 118t99 116t102 126.5t35 123.5t-40 134.5t-150 68.5t-162 -63t-67 -164t-15 -256v-993q-61 6 -81 6t-83 -6v991q0 547 404 547q127 0 217 -69.5t90 -168.5q0 -67 -31.5 -121t-93 -119t-88.5 -101.5t-27 -89.5
t45 -91.5t156.5 -110.5t169 -138.5t57.5 -166.5t-64 -188.5t-160 -139.5t-188 -51t-190 50q9 21 47 118q73 -88 203 -88q90 0 153.5 62.5t63.5 152.5z" />
    <glyph glyph-name="agrave" unicode="&#xe0;" 
d="M709 1094h-66l-278 174q-12 9 -25 17.5t-21 21.5q-2 16 -2 49q15 39 74 39q17 -4 32 -17t54 -55zM682 205v299l-72 -15q-163 -29 -255.5 -69.5t-92.5 -163.5q0 -96 52.5 -144.5t148.5 -48.5q38 0 86 24t68 44t42.5 40.5t22.5 33.5zM514 985q332 0 332 -344v-475
q0 -74 14.5 -88.5t38.5 -14.5t62 9v-45q-59 -27 -127 -27q-131 4 -146 125l-18 -19q-129 -129 -303 -129q-112 0 -192.5 70t-80.5 179t51.5 169t126.5 83.5t186 41.5t152 30t60.5 36t19.5 73q0 115 -62.5 177.5t-183.5 62.5t-174.5 -56.5t-62.5 -84.5h-23v114
q165 113 330 113z" />
    <glyph glyph-name="aacute" unicode="&#xe1;" 
d="M696 1270l-284 -183h-62l230 230q12 11 23 23t19 18t23 20t27 15q61 0 71 -39q0 -41 -4 -47q-7 -16 -43 -37zM682 205v299l-72 -15q-163 -29 -255.5 -69.5t-92.5 -163.5q0 -96 52.5 -144.5t148.5 -48.5q38 0 86 24t68 44t42.5 40.5t22.5 33.5zM514 985q332 0 332 -344
v-475q0 -74 14.5 -88.5t38.5 -14.5t62 9v-45q-59 -27 -127 -27q-131 4 -146 125l-18 -19q-129 -129 -303 -129q-112 0 -192.5 70t-80.5 179t51.5 169t126.5 83.5t186 41.5t152 30t60.5 36t19.5 73q0 115 -62.5 177.5t-183.5 62.5t-174.5 -56.5t-62.5 -84.5h-23v114
q165 113 330 113z" />
    <glyph glyph-name="acircumflex" unicode="&#xe2;" 
d="M293 1067h-62l226 293h100l225 -293h-59l-215 186zM682 205v299l-72 -15q-163 -29 -255.5 -69.5t-92.5 -163.5q0 -96 52.5 -144.5t148.5 -48.5q38 0 86 24t68 44t42.5 40.5t22.5 33.5zM514 985q332 0 332 -344v-475q0 -74 14.5 -88.5t38.5 -14.5t62 9v-45
q-59 -27 -127 -27q-131 4 -146 125l-18 -19q-129 -129 -303 -129q-112 0 -192.5 70t-80.5 179t51.5 169t126.5 83.5t186 41.5t152 30t60.5 36t19.5 73q0 115 -62.5 177.5t-183.5 62.5t-174.5 -56.5t-62.5 -84.5h-23v114q165 113 330 113z" />
    <glyph glyph-name="atilde" unicode="&#xe3;" 
d="M680 1186q49 0 86 88h53q-19 -80 -68.5 -133.5t-109.5 -53.5t-93.5 15.5t-86.5 41.5t-88 25q-70 0 -99 -82h-41q17 80 68.5 130.5t122.5 50.5q40 0 105 -32q66 -32 93 -42q27 -8 58 -8zM682 205v299l-72 -15q-163 -29 -255.5 -69.5t-92.5 -163.5q0 -96 52.5 -144.5
t148.5 -48.5q38 0 86 24t68 44t42.5 40.5t22.5 33.5zM514 985q332 0 332 -344v-475q0 -74 14.5 -88.5t38.5 -14.5t62 9v-45q-59 -27 -127 -27q-131 4 -146 125l-18 -19q-129 -129 -303 -129q-112 0 -192.5 70t-80.5 179t51.5 169t126.5 83.5t186 41.5t152 30t60.5 36
t19.5 73q0 115 -62.5 177.5t-183.5 62.5t-174.5 -56.5t-62.5 -84.5h-23v114q165 113 330 113z" />
    <glyph glyph-name="adieresis" unicode="&#xe4;" 
d="M351 1077q-30 0 -65.5 20.5t-35.5 73.5t35 74t66 21t59 -28t28 -67t-28.5 -66.5t-58.5 -27.5zM706 1077q-30 0 -59 29t-29 59t13 52.5t35.5 35.5t46.5 13t59 -20.5t35 -74.5q0 -53 -35.5 -73.5t-65.5 -20.5zM682 205v299l-72 -15q-163 -29 -255.5 -69.5t-92.5 -163.5
q0 -96 52.5 -144.5t148.5 -48.5q38 0 86 24t68 44t42.5 40.5t22.5 33.5zM514 985q332 0 332 -344v-475q0 -74 14.5 -88.5t38.5 -14.5t62 9v-45q-59 -27 -127 -27q-131 4 -146 125l-18 -19q-129 -129 -303 -129q-112 0 -192.5 70t-80.5 179t51.5 169t126.5 83.5t186 41.5
t152 30t60.5 36t19.5 73q0 115 -62.5 177.5t-183.5 62.5t-174.5 -56.5t-62.5 -84.5h-23v114q165 113 330 113z" />
    <glyph glyph-name="aring" unicode="&#xe5;" 
d="M526 1090q-60 0 -115 53.5t-55 126.5t54.5 127.5t115.5 54.5t102.5 -25t66 -66.5t24.5 -90.5t-24.5 -90t-66.5 -65.5t-102 -24.5zM538 1384q-44 0 -78 -33t-34 -79t35 -78.5t79 -32.5t76.5 33.5t32.5 77.5t-33.5 78t-77.5 34zM682 205v299l-72 -15q-163 -29 -255.5 -69.5
t-92.5 -163.5q0 -96 52.5 -144.5t148.5 -48.5q38 0 86 24t68 44t42.5 40.5t22.5 33.5zM514 985q332 0 332 -344v-475q0 -74 14.5 -88.5t38.5 -14.5t62 9v-45q-59 -27 -127 -27q-131 4 -146 125l-18 -19q-129 -129 -303 -129q-112 0 -192.5 70t-80.5 179t51.5 169t126.5 83.5
t186 41.5t152 30t60.5 36t19.5 73q0 115 -62.5 177.5t-183.5 62.5t-174.5 -56.5t-62.5 -84.5h-23v114q165 113 330 113z" />
    <glyph glyph-name="ae" unicode="&#xe6;" horiz-adv-x="1593" 
d="M666 356v144q-32 -7 -144.5 -25t-174.5 -51t-85.5 -73.5t-23.5 -118.5t53.5 -123.5t127.5 -45.5t160.5 48t86.5 245zM1522 530q0 -21 -2 -47q-193 6 -430 6h-271q-2 -12 -2 -40q0 -102 39.5 -190t118 -142t179.5 -54q201 0 327 132l-15 -105q-15 -9 -99 -61t-226 -52
q-141 0 -255 58t-175 180q-59 -152 -162.5 -195t-177.5 -43q-139 0 -222 66.5t-83 180.5t53 171.5t123 78t172 36.5t154 29.5t96 50.5q4 26 4 79q0 103 -60 166.5t-155 63.5q-94 0 -150 -29t-87.5 -63t-37.5 -51h-18v110q37 37 118.5 78t204.5 41t199.5 -50.5t110.5 -107.5
q113 158 317 158q241 0 326.5 -144.5t85.5 -310.5zM1362 634q0 54 -30 126t-88 117t-142 45t-173.5 -75t-103.5 -282h535q2 15 2 69z" />
    <glyph glyph-name="ccedilla" unicode="&#xe7;" 
d="M479 -131q48 0 89.5 -34.5t41.5 -94.5t-51 -102q-64 -44 -154 -44t-161 27l24 55q93 -20 123 -20q29 0 59.5 19t30.5 57q0 71 -94 71l-41 -8l-29 8l80 179h62l-56 -121q28 8 76 8zM616 915q-167 0 -259.5 -123t-92.5 -296q0 -128 47 -231.5t132 -160.5t181 -57
t159.5 33.5t136.5 99.5l12 -6l-10 -94q-140 -103 -310 -103t-288.5 66t-179 181.5t-60.5 265.5t67.5 263t188 172.5t292.5 59.5t306 -84l-47 -135h-17q-41 57 -55 68q-32 38 -89.5 59.5t-113.5 21.5z" />
    <glyph glyph-name="egrave" unicode="&#xe8;" 
d="M735 1083h-65l-279 174q-8 6 -23.5 16.5t-21.5 22.5q-2 17 -2 50q13 38 74 38q24 -6 47 -30.5t39 -40.5zM539 922q-91 0 -183 -74.5t-106 -282.5h545q-4 158 -61 257.5t-195 99.5zM956 528q0 -21 -2 -45q-208 6 -415 6h-289q-2 -13 -2 -67t23 -123.5t95 -152.5t233 -83
t308 142l-2 -107q-174 -121 -334 -121q-159 0 -269 60.5t-171 174.5t-61 264t54 264t160.5 179.5t268.5 65.5t282.5 -117t120.5 -340z" />
    <glyph glyph-name="eacute" unicode="&#xe9;" 
d="M723 1260l-285 -183h-61l229 230q35 33 45 45q6 3 22 16t25 14q63 0 72 -39q0 -47 -10 -57t-16.5 -13.5t-20.5 -12.5zM539 922q-91 0 -183 -74.5t-106 -282.5h545q-4 158 -61 257.5t-195 99.5zM956 528q0 -21 -2 -45q-208 6 -415 6h-289q-2 -13 -2 -67t23 -123.5
t95 -152.5t233 -83t308 142l-2 -107q-174 -121 -334 -121q-159 0 -269 60.5t-171 174.5t-61 264t54 264t160.5 179.5t268.5 65.5t282.5 -117t120.5 -340z" />
    <glyph glyph-name="ecircumflex" unicode="&#xea;" 
d="M303 1067h-61l225 293h100l226 -293h-60l-215 186zM539 922q-91 0 -183 -74.5t-106 -282.5h545q-4 158 -61 257.5t-195 99.5zM956 528q0 -21 -2 -45q-208 6 -415 6h-289q-2 -13 -2 -67t23 -123.5t95 -152.5t233 -83t308 142l-2 -107q-174 -121 -334 -121
q-159 0 -269 60.5t-171 174.5t-61 264t54 264t160.5 179.5t268.5 65.5t282.5 -117t120.5 -340z" />
    <glyph glyph-name="edieresis" unicode="&#xeb;" 
d="M344 1087q-36 0 -65 29t-29 66t28 65.5t66 28.5t66 -28t28 -67t-29 -66.5t-65 -27.5zM714 1087q-36 0 -66 30t-30 66t29 64.5t67 28.5t65.5 -28.5t27.5 -65.5t-28.5 -66t-64.5 -29zM539 922q-91 0 -183 -74.5t-106 -282.5h545q-4 158 -61 257.5t-195 99.5zM956 528
q0 -21 -2 -45q-208 6 -415 6h-289q-2 -13 -2 -67t23 -123.5t95 -152.5t233 -83t308 142l-2 -107q-174 -121 -334 -121q-159 0 -269 60.5t-171 174.5t-61 264t54 264t160.5 179.5t268.5 65.5t282.5 -117t120.5 -340z" />
    <glyph glyph-name="igrave" unicode="&#xec;" horiz-adv-x="569" 
d="M498 1110h-66l-278 174q-12 9 -25 18t-20 21q-3 16 -3 49q14 39 74 39q17 -5 27 -13t59 -59zM282 0q-25 0 -79 -6v979q78 -6 82 -6l82 6v-979q-60 6 -85 6z" />
    <glyph glyph-name="iacute" unicode="&#xed;" horiz-adv-x="569" 
d="M506 1307l-285 -183h-61l229 230q35 33 45 45q6 3 22.5 16.5t24.5 14.5q62 0 72 -39q0 -48 -10 -58t-16.5 -13.5t-20.5 -12.5zM282 0q-25 0 -79 -6v979q78 -6 82 -6l82 6v-979q-60 6 -85 6z" />
    <glyph glyph-name="icircumflex" unicode="&#xee;" horiz-adv-x="569" 
d="M68 1124h-62l225 293h101l225 -293h-59l-215 187zM282 0q-25 0 -79 -6v979q78 -6 82 -6l82 6v-979q-60 6 -85 6z" />
    <glyph glyph-name="idieresis" unicode="&#xef;" horiz-adv-x="569" 
d="M97 1110q-30 0 -65.5 20.5t-35.5 65.5t28 73.5t66 28.5t66 -28t28 -66t-28.5 -66t-58.5 -28zM459 1110q-23 0 -58.5 20.5t-35.5 65.5t27.5 73.5t66.5 28.5t66.5 -28.5t27.5 -58.5t-13 -52.5t-35.5 -35.5t-45.5 -13zM282 0q-25 0 -79 -6v979q78 -6 82 -6l82 6v-979
q-60 6 -85 6z" />
    <glyph glyph-name="eth" unicode="&#xf0;" horiz-adv-x="1139" 
d="M1067 526q0 -135 -59.5 -261.5t-176.5 -207t-266 -80.5t-258.5 64t-172 182t-62.5 248q0 240 148.5 377t371.5 137q115 0 215 -47q-64 183 -201 352l-209 -133l-37 60l199 126q-87 97 -170 152l29 37q106 -27 229 -133l213 133l37 -59l-197 -123q161 -160 264 -371.5
t103 -452.5zM570 41q110 0 181.5 75t103.5 180.5t32 191.5q0 179 -71.5 306.5t-225.5 127.5q-122 0 -230 -95t-108 -354q0 -258 104 -345t214 -87z" />
    <glyph glyph-name="ntilde" unicode="&#xf1;" horiz-adv-x="1139" 
d="M784 1188q49 0 86 88h54q-18 -76 -68 -131t-112 -55t-100.5 18.5t-85.5 40.5t-81 22q-71 0 -98 -81h-41q15 77 67.5 128.5t122.5 51.5q42 0 106 -32q63 -32 91 -41t59 -9zM651 985q177 0 253.5 -96.5t76.5 -302.5v-592q-60 6 -85 6t-79 -6v545q0 105 -28.5 222.5
t-189.5 117.5q-160 0 -218.5 -102t-58.5 -308v-475q-60 6 -85 6t-79 -6v979q78 -6 82 -6l82 6v-187q113 199 329 199z" />
    <glyph glyph-name="ograve" unicode="&#xf2;" horiz-adv-x="1139" 
d="M793 1094h-66l-278 174q-12 9 -25 17.5t-21 21.5q-2 16 -2 49q15 39 74 39q16 -4 30 -15t56 -57zM570 922q-102 0 -210 -95t-108 -354q0 -258 104 -345t214 -87t181.5 75t103.5 180.5t32 191.5t-15 159t-50 135.5t-92.5 101t-159.5 38.5zM72 468q0 243 148.5 380
t371.5 137q140 0 247.5 -61t167.5 -174.5t60 -237.5q0 -236 -136 -385.5t-376 -149.5q-133 0 -244 61.5t-175 179t-64 250.5z" />
    <glyph glyph-name="oacute" unicode="&#xf3;" horiz-adv-x="1139" 
d="M770 1270l-285 -183h-61l229 230q32 30 45 45q6 3 21.5 16.5t25.5 14.5q62 0 72 -39q1 -41 -3 -47t-9 -12t-13 -11t-22 -14zM570 922q-102 0 -210 -95t-108 -354q0 -258 104 -345t214 -87t181.5 75t103.5 180.5t32 191.5t-15 159t-50 135.5t-92.5 101t-159.5 38.5z
M72 468q0 243 148.5 380t371.5 137q140 0 247.5 -61t167.5 -174.5t60 -237.5q0 -236 -136 -385.5t-376 -149.5q-133 0 -244 61.5t-175 179t-64 250.5z" />
    <glyph glyph-name="ocircumflex" unicode="&#xf4;" horiz-adv-x="1139" 
d="M354 1065h-61l225 293h100l226 -293h-60l-215 186zM570 922q-102 0 -210 -95t-108 -354q0 -258 104 -345t214 -87t181.5 75t103.5 180.5t32 191.5t-15 159t-50 135.5t-92.5 101t-159.5 38.5zM72 468q0 243 148.5 380t371.5 137q140 0 247.5 -61t167.5 -174.5t60 -237.5
q0 -236 -136 -385.5t-376 -149.5q-133 0 -244 61.5t-175 179t-64 250.5z" />
    <glyph glyph-name="otilde" unicode="&#xf5;" horiz-adv-x="1139" 
d="M723 1186q49 0 86 88h53q-19 -80 -68.5 -133.5t-109.5 -53.5t-93.5 15.5t-86.5 41.5t-88 25q-70 0 -99 -82h-41q17 80 68.5 130.5t122.5 50.5q40 0 105 -32q66 -32 93 -42q27 -8 58 -8zM570 922q-102 0 -210 -95t-108 -354q0 -258 104 -345t214 -87t181.5 75t103.5 180.5
t32 191.5t-15 159t-50 135.5t-92.5 101t-159.5 38.5zM72 468q0 243 148.5 380t371.5 137q140 0 247.5 -61t167.5 -174.5t60 -237.5q0 -236 -136 -385.5t-376 -149.5q-133 0 -244 61.5t-175 179t-64 250.5z" />
    <glyph glyph-name="odieresis" unicode="&#xf6;" horiz-adv-x="1139" 
d="M402 1065q-30 0 -65.5 20.5t-35.5 65.5t27.5 73.5t65.5 28.5t66.5 -28.5t28.5 -66.5t-28.5 -65.5t-58.5 -27.5zM764 1065q-23 0 -58.5 20.5t-35.5 65.5t27.5 73.5t66.5 28.5t66.5 -28.5t27.5 -58.5t-13 -52.5t-35.5 -35.5t-45.5 -13zM570 922q-102 0 -210 -95t-108 -354
q0 -258 104 -345t214 -87t181.5 75t103.5 180.5t32 191.5t-15 159t-50 135.5t-92.5 101t-159.5 38.5zM72 468q0 243 148.5 380t371.5 137q140 0 247.5 -61t167.5 -174.5t60 -237.5q0 -236 -136 -385.5t-376 -149.5q-133 0 -244 61.5t-175 179t-64 250.5z" />
    <glyph glyph-name="divide" unicode="&#xf7;" horiz-adv-x="1241" 
d="M621 -25q-50 0 -87.5 36.5t-37.5 86.5t38 86.5t78 36.5t84.5 -27t44.5 -86t-35 -96t-85 -37zM621 819q-50 0 -87.5 35.5t-37.5 87.5t38 87.5t78 35.5t84.5 -27t44.5 -87t-35 -96t-85 -36zM1137 455h-1033v131h1033v-131z" />
    <glyph glyph-name="oslash" unicode="&#xf8;" horiz-adv-x="1139" 
d="M569 41q83 0 148.5 50t106.5 130.5t51 148.5t10 137q0 138 -51 247l-515 -574q92 -139 250 -139zM568 922q-94 0 -170 -67t-112 -173.5t-36 -227.5t41 -212l506 565q-19 44 -77 79.5t-152 35.5zM1065 487q0 -215 -142 -362.5t-370 -147.5q-118 0 -200.5 42t-116.5 69
l-150 -182q-15 35 -55 57l162 168q-94 105 -108.5 194.5t-14.5 166.5q0 148 67 259.5t186 172.5t265 61t286 -90l150 174q11 -28 57 -51l-157 -164q70 -56 105.5 -158.5t35.5 -208.5z" />
    <glyph glyph-name="ugrave" unicode="&#xf9;" horiz-adv-x="1139" 
d="M748 1102h-66l-279 174q-12 9 -24.5 17.5t-20.5 21.5q-2 16 -2 49q14 39 74 39q16 -5 26 -13t60 -59zM884 0q-25 0 -79 -6v176q-101 -193 -326 -193q-172 0 -255 94t-83 300v602q78 -6 82 -6l82 6v-553q0 -226 78.5 -284t172.5 -58t171.5 68t77.5 262v565q78 -6 82 -6
l82 6v-979q-60 6 -85 6z" />
    <glyph glyph-name="uacute" unicode="&#xfa;" horiz-adv-x="1139" 
d="M838 1268l-285 -183h-61l229 230q28 26 45 45q10 8 23 19t24 12q62 0 72 -39q0 -41 -4 -48t-10 -13t-12.5 -10t-20.5 -13zM884 0q-25 0 -79 -6v176q-101 -193 -326 -193q-172 0 -255 94t-83 300v602q78 -6 82 -6l82 6v-553q0 -226 78.5 -284t172.5 -58t171.5 68t77.5 262
v565q78 -6 82 -6l82 6v-979q-60 6 -85 6z" />
    <glyph glyph-name="ucircumflex" unicode="&#xfb;" horiz-adv-x="1139" 
d="M362 1114h-61l225 293h101l225 -293h-59l-215 186zM884 0q-25 0 -79 -6v176q-101 -193 -326 -193q-172 0 -255 94t-83 300v602q78 -6 82 -6l82 6v-553q0 -226 78.5 -284t172.5 -58t171.5 68t77.5 262v565q78 -6 82 -6l82 6v-979q-60 6 -85 6z" />
    <glyph glyph-name="udieresis" unicode="&#xfc;" horiz-adv-x="1139" 
d="M392 1079q-30 0 -65.5 20.5t-35.5 66.5q0 45 27.5 73.5t65.5 28.5t66.5 -28t28.5 -67t-28.5 -66.5t-58.5 -27.5zM754 1079q-23 0 -59 21t-36 66t27.5 73.5t67.5 28.5t67 -29t27 -59t-13 -52.5t-35.5 -35.5t-45.5 -13zM884 0q-25 0 -79 -6v176q-101 -193 -326 -193
q-172 0 -255 94t-83 300v602q78 -6 82 -6l82 6v-553q0 -226 78.5 -284t172.5 -58t171.5 68t77.5 262v565q78 -6 82 -6l82 6v-979q-60 6 -85 6z" />
    <glyph glyph-name="yacute" unicode="&#xfd;" 
d="M836 1268l-285 -183h-62l230 230q28 26 45 45q10 8 23 19t24 12q62 0 72 -39q0 -41 -4 -48t-10 -13t-12.5 -10t-20.5 -13zM928 967q8 0 25.5 2t39.5 4q-79 -175 -295 -650.5t-366 -852.5q-54 6 -70 6t-24 -1t-19.5 -2t-25.5 -3q204 400 274 532l-414 971q96 -6 99 -6
l96 6q112 -346 305 -760q124 254 307 760q60 -6 68 -6z" />
    <glyph glyph-name="thorn" unicode="&#xfe;" horiz-adv-x="1139" 
d="M299 457q0 -175 75.5 -284.5t225.5 -109.5q99 0 190 86.5t91 345.5t-90.5 339.5t-196.5 80.5t-200.5 -98.5t-94.5 -359.5zM299 766h4q50 97 117.5 158t242.5 61t286.5 -136.5t111.5 -332.5q0 -249 -122.5 -394t-326.5 -145t-309 197h-4v-592q-60 6 -85 6t-79 -6v1813
q78 -6 82 -6l82 6v-629z" />
    <glyph glyph-name="ydieresis" unicode="&#xff;" 
d="M398 1085q-30 0 -65.5 20.5t-35.5 66.5q0 45 27.5 73.5t65.5 28.5t66.5 -28t28.5 -67t-28.5 -66.5t-58.5 -27.5zM760 1085q-23 0 -58.5 20.5t-35.5 66.5q0 45 27.5 73.5t66.5 28.5t66.5 -29t27.5 -59t-13 -52.5t-35.5 -35.5t-45.5 -13zM928 967q8 0 25.5 2t39.5 4
q-79 -175 -295 -650.5t-366 -852.5q-54 6 -70 6t-24 -1t-19.5 -2t-25.5 -3q204 400 274 532l-414 971q96 -6 99 -6l96 6q112 -346 305 -760q124 254 307 760q60 -6 68 -6z" />
    <glyph glyph-name="aahoa" unicode="&#x102;" horiz-adv-x="1366" 
d="M680 1507q-110 0 -175 81t-65 204l52 2q12 -82 67 -132t135 -50q171 0 203 182h51q-21 -287 -268 -287zM872 633l-227 524l-223 -524h450zM1227 0q-28 0 -109 -6q-104 301 -215 553h-520q-151 -378 -203 -553q-54 6 -74 6t-27.5 -1t-19.5 -2t-26 -3l639 1431h47
l614 -1431q-78 6 -106 6z" />
    <glyph glyph-name="aath" unicode="&#x103;" 
d="M512 1069q-110 0 -175 81t-65 204l52 2q12 -83 66.5 -132.5t135.5 -49.5q171 0 203 182h51q-21 -287 -268 -287zM682 205v299l-72 -15q-163 -29 -255.5 -69.5t-92.5 -163.5q0 -96 52.5 -144.5t148.5 -48.5q38 0 86 24t68 44t42.5 40.5t22.5 33.5zM514 985q332 0 332 -344
v-475q0 -74 14.5 -88.5t38.5 -14.5t62 9v-45q-59 -27 -127 -27q-131 4 -146 125l-18 -19q-129 -129 -303 -129q-112 0 -192.5 70t-80.5 179t51.5 169t126.5 83.5t186 41.5t152 30t60.5 36t19.5 73q0 115 -62.5 177.5t-183.5 62.5t-174.5 -56.5t-62.5 -84.5h-23v114
q165 113 330 113z" />
    <glyph glyph-name="dhoa" unicode="&#x110;" horiz-adv-x="1593" 
d="M446 791h312v-91h-312v-608q130 -10 279 -8t260 57q295 149 295 579q0 429 -186.5 515t-388.5 86l-259 -8v-522zM266 791v604h545q147 0 253 -24t206 -106t155.5 -216.5t55.5 -279.5t-45 -304.5t-206 -302.5t-338.5 -152.5t-287.5 -9.5h-338v700h-164v91h164z" />
    <glyph glyph-name="dth" unicode="&#x111;" horiz-adv-x="1139" 
d="M834 504q0 102 -27.5 191t-89.5 147.5t-160 58.5q-305 0 -305 -457q0 -157 67 -275t213 -118q110 0 178 71t96 175.5t28 206.5zM997 1286h119v-82h-119v-1210q-60 6 -84.5 6t-78.5 -6v196q-125 -213 -353 -213q-181 0 -295 128.5t-114 367.5q0 141 54 258.5t154.5 185.5
t231.5 68q206 0 322 -199v418h-338v82h338v246q78 -6 81 -6l82 6v-246z" />
    <glyph glyph-name="dth" unicode="&#x20ab;" horiz-adv-x="1139" 
d="M834 504q0 102 -27.5 191t-89.5 147.5t-160 58.5q-305 0 -305 -457q0 -157 67 -275t213 -118q110 0 178 71t96 175.5t28 206.5zM997 1286h119v-82h-119v-1210q-60 6 -84.5 6t-78.5 -6v196q-125 -213 -353 -213q-181 0 -295 128.5t-114 367.5q0 141 54 258.5t154.5 185.5
t231.5 68q206 0 322 -199v418h-338v82h338v246q78 -6 81 -6l82 6v-246z" />
    <glyph glyph-name="ihoanga" unicode="&#x128;" horiz-adv-x="569" 
d="M131 1579q-72 0 -98 -82h-41q15 77 67.5 128.5t122.5 51.5q47 0 129 -41q81 -41 119 -41t62 31q12 12 32 57h54q-18 -76 -68 -131t-127 -55q-44 0 -95 23.5t-88 41t-69 17.5zM279 0q-30 0 -84 -6v1401l90 -6l90 6v-1401q-66 6 -96 6z" />
    <glyph glyph-name="ithnga" unicode="&#x129;" horiz-adv-x="569" 
d="M152 1196q-73 0 -99 -82h-41q17 78 68.5 129t122.5 51q45 0 107 -32q98 -50 139 -50q40 0 63 31q15 15 33 57h53q-18 -76 -68 -131t-127 -55q-44 0 -95 23.5t-88 41t-68 17.5zM282 0q-25 0 -79 -6v979q78 -6 82 -6l82 6v-979q-60 6 -85 6z" />
    <glyph glyph-name="OE" unicode="&#x152;" horiz-adv-x="2048" 
d="M1224.5 1122q-94.5 133 -192.5 184.5t-226 51.5q-257 0 -405.5 -191.5t-148.5 -497.5t149.5 -463.5t384.5 -168.5q266 12 399.5 198.5t133.5 469.5q0 284 -94.5 417zM772 -31q-326 0 -523.5 191t-197.5 516q0 238 96.5 406.5t266.5 255.5t385 87t337 -69t183 -146
l-21 185h670l-6 -62q0 -9 2 -25t4 -36q-76 15 -184 22l-164 4h-141v-516h272q27 0 84.5 4.5t97.5 6.5l-6 -54l6 -57l-182 10h-272v-596q343 0 520 27l-6 -62q0 -1 6 -61h-701l11 197q-94 -114 -236.5 -171t-300.5 -57z" />
    <glyph glyph-name="oe" unicode="&#x153;" horiz-adv-x="1821" 
d="M1581 565q0 155 -54 256t-192 101q-267 0 -299 -357h545zM883 492q0 104 -31 202.5t-100.5 163t-176.5 64.5q-175 0 -254 -142t-79 -331t82 -294t233 -114q111 0 184 68t107.5 173.5t34.5 209.5zM950 158q-116 -181 -410 -181q-140 0 -253 64.5t-169.5 180.5t-56.5 260
t67 259t183.5 179.5t245.5 64.5q269 0 404 -182q130 182 376 182q247 -4 327.5 -144t80.5 -309q0 -23 -2 -49q-175 6 -424 6h-285q-8 -32 -8 -99t41.5 -147t125 -130t182.5 -50q188 0 329 130l-14 -99q-151 -117 -330 -117q-125 0 -234.5 44.5t-175.5 136.5z" />
    <glyph glyph-name="Scaron" unicode="&#x160;" 
d="M766 1806h59l-225 -288h-100l-226 288h62l215 -182zM768 356q0 127 -78 185.5t-237.5 121t-242.5 138.5t-83 231q0 189 129 291t326 102q80 0 159.5 -24.5t132.5 -73.5q-16 -36 -55 -168h-20q-31 83 -98 130.5t-147 47.5t-139 -30t-93.5 -84.5t-34.5 -124.5
q0 -125 77 -183.5t240 -123t245.5 -137t82.5 -199.5q0 -233 -145 -359.5t-361 -126.5q-82 0 -183.5 32.5t-150.5 86.5q24 67 39 182h21q131 -213 315 -213t242.5 109.5t58.5 189.5z" />
    <glyph glyph-name="scaron" unicode="&#x161;" horiz-adv-x="797" 
d="M627 1370h59l-225 -289h-101l-225 289h62l215 -182zM372 41q59 0 105.5 24t75.5 67t29 95q0 92 -56.5 126.5t-181 70.5t-185.5 87t-61 182t94.5 211.5t239.5 80.5q70 0 136 -17t96 -36q-29 -64 -50 -146h-18q-30 77 -83 106.5t-91 29.5q-80 0 -133 -45t-53 -129
t55.5 -119t178 -74.5t186 -91t63.5 -158.5t-55 -181t-142.5 -110.5t-179.5 -36.5q-145 0 -256 66q38 115 43 150h16q40 -65 104 -108.5t123 -43.5z" />
    <glyph glyph-name="uhoanga" unicode="&#x168;" horiz-adv-x="1593" 
d="M633 1579q-72 0 -98 -82h-41q15 77 67.5 128.5t122.5 51.5q43 0 127 -41t121 -41q38 0 61 31q13 12 33 57h53q-18 -79 -68 -132.5t-110 -53.5t-111 23.5t-88 41t-69 17.5zM373 610q0 -281 100 -414t343 -133q242 0 347 150.5t105 417.5v764q54 -6 57 -6l57 6v-815
q0 -198 -73 -335.5t-208.5 -206.5t-316.5 -69q-285 0 -444 144q-88 79 -116.5 195t-30.5 267v820l90 -6l90 6v-785z" />
    <glyph glyph-name="uthnga" unicode="&#x169;" horiz-adv-x="1139" 
d="M401 1157q-72 0 -98 -82h-41q17 79 68.5 129.5t122.5 50.5q45 0 107 -32q96 -49 138 -49q41 0 64 30q11 12 33 58h53q-29 -114 -86.5 -150.5t-96.5 -36.5t-61.5 6t-94.5 41q-73 35 -108 35zM884 0q-25 0 -79 -6v176q-101 -193 -326 -193q-172 0 -255 94t-83 300v602
q78 -6 82 -6l82 6v-553q0 -226 78.5 -284t172.5 -58t171.5 68t77.5 262v565q78 -6 82 -6l82 6v-979q-60 6 -85 6z" />
    <glyph glyph-name="florin" unicode="&#x192;" horiz-adv-x="1139" 
d="M287 819h211q14 116 51.5 224.5t105 217.5t234.5 109q17 0 37 -10q-13 -68 -13 -102t5 -64l-17 -6q-66 53 -114 53q-81 0 -100.5 -61.5t-27.5 -163.5l-12 -197h223q-8 -26 -8 -82h-219l-55 -538q-13 -139 -47.5 -250.5t-61.5 -163.5q-93 -178 -315 -178q16 66 16 155
q21 -6 50 -16t61 -10q86 0 107 68t32 204l59 729h-213q11 27 11 82z" />
    <glyph glyph-name="ochoa" unicode="&#x1a0;" horiz-adv-x="1706" 
d="M840 -31h-2q-341 0 -547.5 199t-206.5 526q0 164 58 301t216.5 283.5t489.5 146.5q330 0 470 -110t191 -189q103 108 103 217q0 84 84 84q23 0 39 -24.5t16 -64.5t-74 -139.5t-123 -137.5q66 -153 66 -356t-99 -375.5t-277.5 -266.5t-403.5 -94zM1419 706
q0 100 -10.5 173t-56 186t-182 203t-287.5 90q-287 0 -441.5 -187.5t-154.5 -491.5t158.5 -473t400.5 -169q146 0 256 63.5t179.5 165t103.5 221t34 219.5z" />
    <glyph glyph-name="octh" unicode="&#x1a1;" horiz-adv-x="1167" 
d="M242 461q0 -246 104 -333t214 -87t181.5 75t103.5 180.5t32 191.5q0 179 -71.5 306.5t-238.5 127.5q-166 0 -245.5 -134.5t-79.5 -326.5zM61 468q0 241 148.5 379t372.5 138q169 0 283.5 -89t144.5 -187q88 93 88 202q0 84 84 84q23 0 39 -24.5t16 -64.5t-74 -139.5
t-123 -137.5q17 -62 17 -152t-33 -182t-136 -205t-343 -113q-133 0 -244.5 62t-175.5 179t-64 250z" />
    <glyph glyph-name="uchoa" unicode="&#x1af;" horiz-adv-x="1593" 
d="M373 610q0 -281 100 -414t343 -133q242 0 347 150.5t105 417.5v764q54 -6 57 -6l57 6v-285q88 93 88 203q0 84 84 84q24 0 40 -24.5t16 -64.5t-84 -135.5t-144 -142.5v-450q0 -198 -73 -335.5t-208.5 -206.5t-316.5 -69q-285 0 -444 144q-88 79 -116.5 195t-30.5 267v820
l90 -6l90 6v-785z" />
    <glyph glyph-name="ucth" unicode="&#x1b0;" horiz-adv-x="1139" 
d="M1057 889q0 84 84 84q23 0 39 -24.5t16 -64.5t-85 -137t-142 -141v-612q-60 6 -85 6t-79 -6v176q-101 -193 -326 -193q-172 0 -255 94t-83 300v602q78 -6 82 -6l82 6v-553q0 -226 78.5 -284t172.5 -58t171.5 68t77.5 262v565q78 -6 82 -6l82 6v-287q88 95 88 203z" />
    <glyph glyph-name="circumflex" unicode="&#x2c6;" horiz-adv-x="682" 
d="M102 1090h-69l252 342h112l252 -342h-67l-240 217z" />
    <glyph glyph-name="tilde" unicode="&#x2dc;" horiz-adv-x="682" 
d="M176 1235q-77 0 -113 -94h-57q19 87 77 143.5t138 56.5q53 0 145 -47t139 -47q46 0 73 35q15 15 38 68h60q-22 -88 -78.5 -148.5t-140.5 -60.5q-51 0 -87.5 17t-99 47t-94.5 30z" />
    <glyph glyph-name="abhuyenth" unicode="&#x300;" horiz-adv-x="0" 
d="M-244 1356h-65l-279 174q-12 9 -25 18t-20 21q-2 16 -2 49q13 39 74 39q16 -4 29 -14t57 -58z" />
    <glyph glyph-name="absacth" unicode="&#x301;" horiz-adv-x="0" 
d="M0 1460l-285 -182h-61l229 229q74 74 92 76q63 0 72 -39q0 -41 -4 -48q-8 -14 -43 -36z" />
    <glyph glyph-name="absacth" unicode="&#x302;" horiz-adv-x="0" 
d="M0 1460l-285 -182h-61l229 229q74 74 92 76q63 0 72 -39q0 -41 -4 -48q-8 -14 -43 -36z" />
    <glyph glyph-name="abngath" unicode="&#x303;" horiz-adv-x="0" 
d="M-651 1534q-70 0 -99 -82h-41q17 78 69 129t122 51q43 0 127 -41t121 -41q38 0 61 31q13 12 33 57h53q-18 -79 -68 -132.5t-110 -53.5t-89.5 13t-55.5 26t-58.5 28t-64.5 15z" />
    <glyph glyph-name="abhoith" unicode="&#x309;" horiz-adv-x="0" 
d="M-296 1622q-56 0 -89 -33l-6 45q65 23 120 23t118 -18t63 -78q0 -30 -16.5 -52t-55.5 -49l-67 -47l-32 -19q-32 -19 -32 -42q7 -43 72 -43q9 0 35 4l-23 -33q-6 -2 -48 -2t-84 23.5t-42 55.5t18.5 52t51.5 41l73 47q64 39 64 67t-32 43t-88 15z" />
    <glyph glyph-name="ananghoa" unicode="&#x323;" horiz-adv-x="0" 
d="M-596 -216q0 -40 -29 -68.5t-67 -28.5t-67 29t-29 68t29 67t67 28t67 -27.5t29 -67.5z" />
    <glyph glyph-name="ananghoa" unicode="&#xf02b;" horiz-adv-x="0" 
d="M-596 -216q0 -40 -29 -68.5t-67 -28.5t-67 29t-29 68t29 67t67 28t67 -27.5t29 -67.5z" />
    <glyph glyph-name="ananghoa" unicode="&#xf029;" horiz-adv-x="0" 
d="M-596 -216q0 -40 -29 -68.5t-67 -28.5t-67 29t-29 68t29 67t67 28t67 -27.5t29 -67.5z" />
    <glyph glyph-name="ananghoa" unicode="&#xf022;" horiz-adv-x="0" 
d="M-596 -216q0 -40 -29 -68.5t-67 -28.5t-67 29t-29 68t29 67t67 28t67 -27.5t29 -67.5z" />
    <glyph glyph-name="ananghoa" unicode="&#xf021;" horiz-adv-x="0" 
d="M-596 -216q0 -40 -29 -68.5t-67 -28.5t-67 29t-29 68t29 67t67 28t67 -27.5t29 -67.5z" />
    <glyph glyph-name="ananghoa" unicode="&#xf020;" horiz-adv-x="0" 
d="M-596 -216q0 -40 -29 -68.5t-67 -28.5t-67 29t-29 68t29 67t67 28t67 -27.5t29 -67.5z" />
    <glyph glyph-name="ananghoa" unicode="&#xf01f;" horiz-adv-x="0" 
d="M-596 -216q0 -40 -29 -68.5t-67 -28.5t-67 29t-29 68t29 67t67 28t67 -27.5t29 -67.5z" />
    <glyph glyph-name="ananghoa" unicode="&#xf01e;" horiz-adv-x="0" 
d="M-596 -216q0 -40 -29 -68.5t-67 -28.5t-67 29t-29 68t29 67t67 28t67 -27.5t29 -67.5z" />
    <glyph glyph-name="ahuyenhoa" unicode="&#x340;" horiz-adv-x="0" 
d="M-489 1544h-66l-279 174q-8 6 -21.5 15.5t-23.5 23.5q-2 17 -2 49q14 39 74 39q25 -6 86 -71z" />
    <glyph glyph-name="ahuyenhoa" unicode="&#xf00c;" horiz-adv-x="0" 
d="M-489 1544h-66l-279 174q-8 6 -21.5 15.5t-23.5 23.5q-2 17 -2 49q14 39 74 39q25 -6 86 -71z" />
    <glyph glyph-name="asachoa" unicode="&#x341;" horiz-adv-x="0" 
d="M-461 1710l-284 -182h-62l229 229q22 22 36 34q14 13 29.5 27t27.5 15q62 0 71 -39q0 -41 -4 -47q-7 -16 -43 -37z" />
    <glyph glyph-name="asachoa" unicode="&#xf007;" horiz-adv-x="0" 
d="M-461 1710l-284 -182h-62l229 229q22 22 36 34q14 13 29.5 27t27.5 15q62 0 71 -39q0 -41 -4 -47q-7 -16 -43 -37z" />
    <glyph glyph-name="angahoa" unicode="&#x342;" horiz-adv-x="0" 
d="M-795 1620q-71 0 -98 -82h-41q17 78 68.5 129t122.5 51q45 0 125 -41t120 -41t64 31q9 9 33 57h53q-18 -76 -68 -131t-127 -55q-42 0 -72.5 13t-56.5 26t-58.5 28t-64.5 15z" />
    <glyph glyph-name="angahoa" unicode="&#xf030;" horiz-adv-x="0" 
d="M-795 1620q-71 0 -98 -82h-41q17 78 68.5 129t122.5 51q45 0 125 -41t120 -41t64 31q9 9 33 57h53q-18 -76 -68 -131t-127 -55q-42 0 -72.5 13t-56.5 26t-58.5 28t-64.5 15z" />
    <glyph glyph-name="angahoa" unicode="&#xf02e;" horiz-adv-x="0" 
d="M-795 1620q-71 0 -98 -82h-41q17 78 68.5 129t122.5 51q45 0 125 -41t120 -41t64 31q9 9 33 57h53q-18 -76 -68 -131t-127 -55q-42 0 -72.5 13t-56.5 26t-58.5 28t-64.5 15z" />
    <glyph glyph-name="angahoa" unicode="&#xf01c;" horiz-adv-x="0" 
d="M-795 1620q-71 0 -98 -82h-41q17 78 68.5 129t122.5 51q45 0 125 -41t120 -41t64 31q9 9 33 57h53q-18 -76 -68 -131t-127 -55q-42 0 -72.5 13t-56.5 26t-58.5 28t-64.5 15z" />
    <glyph glyph-name="angahoa" unicode="&#xf017;" horiz-adv-x="0" 
d="M-795 1620q-71 0 -98 -82h-41q17 78 68.5 129t122.5 51q45 0 125 -41t120 -41t64 31q9 9 33 57h53q-18 -76 -68 -131t-127 -55q-42 0 -72.5 13t-56.5 26t-58.5 28t-64.5 15z" />
    <glyph glyph-name="angahoa" unicode="&#xf016;" horiz-adv-x="0" 
d="M-795 1620q-71 0 -98 -82h-41q17 78 68.5 129t122.5 51q45 0 125 -41t120 -41t64 31q9 9 33 57h53q-18 -76 -68 -131t-127 -55q-42 0 -72.5 13t-56.5 26t-58.5 28t-64.5 15z" />
    <glyph glyph-name="ahoanang" unicode="&#x1ea0;" horiz-adv-x="1366" 
d="M717 -230q0 -40 -28.5 -69t-67.5 -29t-68 29t-29 69t29 67.5t68 27.5t67.5 -27.5t28.5 -67.5zM872 633l-227 524l-223 -524h450zM1227 0q-28 0 -109 -6q-104 301 -215 553h-520q-151 -378 -203 -553q-54 6 -74 6t-27.5 -1t-19.5 -2t-26 -3l639 1431h47l614 -1431
q-78 6 -106 6z" />
    <glyph glyph-name="athnang" unicode="&#x1ea1;" 
d="M592 -226q0 -40 -28.5 -69t-67.5 -29t-68 29t-29 69t29 67.5t68 27.5t67.5 -27.5t28.5 -67.5zM682 205v299l-72 -15q-163 -29 -255.5 -69.5t-92.5 -163.5q0 -96 52.5 -144.5t148.5 -48.5q38 0 86 24t68 44t42.5 40.5t22.5 33.5zM514 985q332 0 332 -344v-475
q0 -74 14.5 -88.5t38.5 -14.5t62 9v-45q-59 -27 -127 -27q-131 4 -146 125l-18 -19q-129 -129 -303 -129q-112 0 -192.5 70t-80.5 179t51.5 169t126.5 83.5t186 41.5t152 30t60.5 36t19.5 73q0 115 -62.5 177.5t-183.5 62.5t-174.5 -56.5t-62.5 -84.5h-23v114
q165 113 330 113z" />
    <glyph glyph-name="ahoahoi" unicode="&#x1ea2;" horiz-adv-x="1366" 
d="M701 1872q-54 0 -91 -33l-6 45q71 23 138 23t115 -26.5t48 -64.5t-17.5 -59.5t-53.5 -46.5l-68 -47l-32 -19q-32 -19 -32 -42q9 -43 72 -43q11 0 35 4l-23 -33q-6 -2 -48 -2t-84 23.5t-42 55.5t18.5 52t51.5 41l74 47q63 38 63 66t-32 43.5t-86 15.5zM872 633l-227 524
l-223 -524h450zM1227 0q-28 0 -109 -6q-104 301 -215 553h-520q-151 -378 -203 -553q-54 6 -74 6t-27.5 -1t-19.5 -2t-26 -3l639 1431h47l614 -1431q-78 6 -106 6z" />
    <glyph glyph-name="athhoi" unicode="&#x1ea3;" 
d="M579 1118q18 0 44 4l-23 -32q-6 -3 -48 -3t-84 23.5t-42 55.5t18.5 52.5t51.5 41.5l73 47q64 37 64 65t-32.5 44t-86.5 16t-90 -33l-6 45q68 22 136 22t116.5 -25t48.5 -63t-17 -60.5t-55 -47.5l-67 -47q-46 -27 -55 -38t-7 -27t22.5 -28t38.5 -12zM682 205v299l-72 -15
q-163 -29 -255.5 -69.5t-92.5 -163.5q0 -96 52.5 -144.5t148.5 -48.5q38 0 86 24t68 44t42.5 40.5t22.5 33.5zM514 985q332 0 332 -344v-475q0 -74 14.5 -88.5t38.5 -14.5t62 9v-45q-59 -27 -127 -27q-131 4 -146 125l-18 -19q-129 -129 -303 -129q-112 0 -192.5 70
t-80.5 179t51.5 169t126.5 83.5t186 41.5t152 30t60.5 36t19.5 73q0 115 -62.5 177.5t-183.5 62.5t-174.5 -56.5t-62.5 -84.5h-23v114q165 113 330 113z" />
    <glyph glyph-name="abhoasac" unicode="&#x1ea4;" horiz-adv-x="1366" 
d="M1202 1909l-284 -183h-62l229 230q32 30 45 45q6 3 21 16.5t27 14.5q61 0 71 -39q0 -41 -4 -47q-7 -16 -43 -37zM471 1495h-61l225 293h100l226 -293h-60l-215 186zM872 633l-227 524l-223 -524h450zM1227 0q-28 0 -109 -6q-104 301 -215 553h-520q-151 -378 -203 -553
q-54 6 -74 6t-27.5 -1t-19.5 -2t-26 -3l639 1431h47l614 -1431q-78 6 -106 6z" />
    <glyph glyph-name="abthsac" unicode="&#x1ea5;" 
d="M1024 1481l-285 -183h-61l229 230q35 33 45 45q6 3 21.5 16.5t25.5 14.5q62 0 72 -39q1 -41 -3 -47t-9 -12t-13 -11t-22 -14zM293 1067h-62l226 293h100l225 -293h-59l-215 186zM682 205v299l-72 -15q-163 -29 -255.5 -69.5t-92.5 -163.5q0 -96 52.5 -144.5t148.5 -48.5
q38 0 86 24t68 44t42.5 40.5t22.5 33.5zM514 985q332 0 332 -344v-475q0 -74 14.5 -88.5t38.5 -14.5t62 9v-45q-59 -27 -127 -27q-131 4 -146 125l-18 -19q-129 -129 -303 -129q-112 0 -192.5 70t-80.5 179t51.5 169t126.5 83.5t186 41.5t152 30t60.5 36t19.5 73
q0 115 -62.5 177.5t-183.5 62.5t-174.5 -56.5t-62.5 -84.5h-23v114q165 113 330 113z" />
    <glyph glyph-name="abhoahuyen" unicode="&#x1ea6;" horiz-adv-x="1366" 
d="M969 1804h-66l-278 174q-38 26 -45 39q-2 17 -2 49q12 39 73 39q17 -4 30 -15t56 -56zM471 1495h-61l225 293h100l226 -293h-60l-215 186zM872 633l-227 524l-223 -524h450zM1227 0q-28 0 -109 -6q-104 301 -215 553h-520q-151 -378 -203 -553q-54 6 -74 6t-27.5 -1
t-19.5 -2t-26 -3l639 1431h47l614 -1431q-78 6 -106 6z" />
    <glyph glyph-name="abthhuyen" unicode="&#x1ea7;" 
d="M791 1376h-66l-279 174q-8 6 -21.5 15.5t-23.5 23.5q-2 17 -2 49q14 39 74 39q25 -6 86 -71zM293 1067h-62l226 293h100l225 -293h-59l-215 186zM682 205v299l-72 -15q-163 -29 -255.5 -69.5t-92.5 -163.5q0 -96 52.5 -144.5t148.5 -48.5q38 0 86 24t68 44t42.5 40.5
t22.5 33.5zM514 985q332 0 332 -344v-475q0 -74 14.5 -88.5t38.5 -14.5t62 9v-45q-59 -27 -127 -27q-131 4 -146 125l-18 -19q-129 -129 -303 -129q-112 0 -192.5 70t-80.5 179t51.5 169t126.5 83.5t186 41.5t152 30t60.5 36t19.5 73q0 115 -62.5 177.5t-183.5 62.5
t-174.5 -56.5t-62.5 -84.5h-23v114q165 113 330 113z" />
    <glyph glyph-name="abhoahoi" unicode="&#x1ea8;" horiz-adv-x="1366" 
d="M1000 1726q14 0 47 5l-23 -33q-6 -2 -48 -2t-84 23.5t-42 55.5t18.5 52t51.5 41l73 47q64 37 64 65t-32.5 44t-86.5 16t-90 -33l-6 45q71 23 138 23t115 -25.5t48 -63.5t-17 -59.5t-55 -48.5l-67 -47q-46 -27 -55 -38t-7 -27t23 -28t35 -12zM471 1495h-61l225 293h100
l226 -293h-60l-215 186zM872 633l-227 524l-223 -524h450zM1227 0q-28 0 -109 -6q-104 301 -215 553h-520q-151 -378 -203 -553q-54 6 -74 6t-27.5 -1t-19.5 -2t-26 -3l639 1431h47l614 -1431q-78 6 -106 6z" />
    <glyph glyph-name="abthhoi" unicode="&#x1ea9;" 
d="M828 1298q20 0 40 5l-22 -33q-6 -2 -48 -2t-84 24t-42 64t69 84l74 47q64 37 64 65t-32.5 44t-86.5 16t-90 -33l-6 45q69 23 136 23t116 -25.5t49 -63.5t-17 -59.5t-55 -48.5l-68 -47q-9 -6 -36 -23t-25 -38q2 -20 23 -32t41 -12zM293 1067h-62l226 293h100l225 -293h-59
l-215 186zM682 205v299l-72 -15q-163 -29 -255.5 -69.5t-92.5 -163.5q0 -96 52.5 -144.5t148.5 -48.5q38 0 86 24t68 44t42.5 40.5t22.5 33.5zM514 985q332 0 332 -344v-475q0 -74 14.5 -88.5t38.5 -14.5t62 9v-45q-59 -27 -127 -27q-131 4 -146 125l-18 -19
q-129 -129 -303 -129q-112 0 -192.5 70t-80.5 179t51.5 169t126.5 83.5t186 41.5t152 30t60.5 36t19.5 73q0 115 -62.5 177.5t-183.5 62.5t-174.5 -56.5t-62.5 -84.5h-23v114q165 113 330 113z" />
    <glyph glyph-name="abhoanga" unicode="&#x1eaa;" horiz-adv-x="1366" 
d="M530 1972q-72 0 -98 -82h-41q17 79 68 130t123 51q43 -1 106 -33q97 -50 139 -49q41 0 64 30q11 12 33 58h53q-29 -114 -86.5 -150.5t-96.5 -36.5t-61.5 6t-94.5 41q-73 35 -108 35zM471 1495h-61l225 293h100l226 -293h-60l-215 186zM872 633l-227 524l-223 -524h450z
M1227 0q-28 0 -109 -6q-104 301 -215 553h-520q-151 -378 -203 -553q-54 6 -74 6t-27.5 -1t-19.5 -2t-26 -3l639 1431h47l614 -1431q-78 6 -106 6z" />
    <glyph glyph-name="abthnga" unicode="&#x1eab;" 
d="M659 1561q49 0 86 88h54q-29 -114 -86.5 -150.5t-96.5 -36.5t-61.5 6t-94.5 41t-108 35q-72 0 -98 -82h-41q15 79 67.5 129.5t122.5 50.5q46 0 108 -32q63 -32 90 -40t58 -9zM293 1067h-62l226 293h100l225 -293h-59l-215 186zM682 205v299l-72 -15
q-163 -29 -255.5 -69.5t-92.5 -163.5q0 -96 52.5 -144.5t148.5 -48.5q38 0 86 24t68 44t42.5 40.5t22.5 33.5zM514 985q332 0 332 -344v-475q0 -74 14.5 -88.5t38.5 -14.5t62 9v-45q-59 -27 -127 -27q-131 4 -146 125l-18 -19q-129 -129 -303 -129q-112 0 -192.5 70
t-80.5 179t51.5 169t126.5 83.5t186 41.5t152 30t60.5 36t19.5 73q0 115 -62.5 177.5t-183.5 62.5t-174.5 -56.5t-62.5 -84.5h-23v114q165 113 330 113z" />
    <glyph glyph-name="abhoanang" unicode="&#x1eac;" horiz-adv-x="1366" 
d="M739 -218q0 -40 -28.5 -68.5t-66.5 -28.5t-67.5 29t-29.5 68t29.5 67t67.5 28t66.5 -27.5t28.5 -67.5zM471 1495h-61l225 293h100l226 -293h-60l-215 186zM872 633l-227 524l-223 -524h450zM1227 0q-28 0 -109 -6q-104 301 -215 553h-520q-151 -378 -203 -553
q-54 6 -74 6t-27.5 -1t-19.5 -2t-26 -3l639 1431h47l614 -1431q-78 6 -106 6z" />
    <glyph glyph-name="abthnang" unicode="&#x1ead;" 
d="M602 -226q0 -40 -29 -69t-67 -29t-67 29t-29 69t29 67.5t67 27.5t67 -27.5t29 -67.5zM293 1067h-62l226 293h100l225 -293h-59l-215 186zM682 205v299l-72 -15q-163 -29 -255.5 -69.5t-92.5 -163.5q0 -96 52.5 -144.5t148.5 -48.5q38 0 86 24t68 44t42.5 40.5t22.5 33.5z
M514 985q332 0 332 -344v-475q0 -74 14.5 -88.5t38.5 -14.5t62 9v-45q-59 -27 -127 -27q-131 4 -146 125l-18 -19q-129 -129 -303 -129q-112 0 -192.5 70t-80.5 179t51.5 169t126.5 83.5t186 41.5t152 30t60.5 36t19.5 73q0 115 -62.5 177.5t-183.5 62.5t-174.5 -56.5
t-62.5 -84.5h-23v114q165 113 330 113z" />
    <glyph glyph-name="aahoasac" unicode="&#x1eae;" horiz-adv-x="1366" 
d="M977 2028l-285 -183h-61l229 230q35 33 45 45q6 3 22 16t25 14q63 0 72 -39q0 -47 -10 -57t-16.5 -13.5t-20.5 -12.5zM680 1507q-110 0 -175 81t-65 204l52 2q12 -82 67 -132t135 -50q171 0 203 182h51q-21 -287 -268 -287zM872 633l-227 524l-223 -524h450zM1227 0
q-28 0 -109 -6q-104 301 -215 553h-520q-151 -378 -203 -553q-54 6 -74 6t-27.5 -1t-19.5 -2t-26 -3l639 1431h47l614 -1431q-78 6 -106 6z" />
    <glyph glyph-name="aathsac" unicode="&#x1eaf;" 
d="M809 1589l-285 -182h-61l229 229q74 74 92 76q63 0 72 -39q0 -41 -4 -48q-8 -14 -43 -36zM512 1069q-110 0 -175 81t-65 204l52 2q12 -83 66.5 -132.5t135.5 -49.5q171 0 203 182h51q-21 -287 -268 -287zM682 205v299l-72 -15q-163 -29 -255.5 -69.5t-92.5 -163.5
q0 -96 52.5 -144.5t148.5 -48.5q38 0 86 24t68 44t42.5 40.5t22.5 33.5zM514 985q332 0 332 -344v-475q0 -74 14.5 -88.5t38.5 -14.5t62 9v-45q-59 -27 -127 -27q-131 4 -146 125l-18 -19q-129 -129 -303 -129q-112 0 -192.5 70t-80.5 179t51.5 169t126.5 83.5t186 41.5
t152 30t60.5 36t19.5 73q0 115 -62.5 177.5t-183.5 62.5t-174.5 -56.5t-62.5 -84.5h-23v114q165 113 330 113z" />
    <glyph glyph-name="aahoahuyen" unicode="&#x1eb0;" horiz-adv-x="1366" 
d="M764 1831h-66l-278 174q-39 27 -45 39q-2 16 -2 49q12 39 73 39q16 -4 26 -12t60 -60zM680 1507q-110 0 -175 81t-65 204l52 2q12 -82 67 -132t135 -50q171 0 203 182h51q-21 -287 -268 -287zM872 633l-227 524l-223 -524h450zM1227 0q-28 0 -109 -6q-104 301 -215 553
h-520q-151 -378 -203 -553q-54 6 -74 6t-27.5 -1t-19.5 -2t-26 -3l639 1431h47l614 -1431q-78 6 -106 6z" />
    <glyph glyph-name="aathhuyen" unicode="&#x1eb1;" 
d="M596 1393h-66l-278 174q-12 9 -25 18t-20 21q-2 16 -2 49q13 39 74 39q24 -6 47 -31t39 -41zM512 1069q-110 0 -175 81t-65 204l52 2q12 -83 66.5 -132.5t135.5 -49.5q171 0 203 182h51q-21 -287 -268 -287zM682 205v299l-72 -15q-163 -29 -255.5 -69.5t-92.5 -163.5
q0 -96 52.5 -144.5t148.5 -48.5q38 0 86 24t68 44t42.5 40.5t22.5 33.5zM514 985q332 0 332 -344v-475q0 -74 14.5 -88.5t38.5 -14.5t62 9v-45q-59 -27 -127 -27q-131 4 -146 125l-18 -19q-129 -129 -303 -129q-112 0 -192.5 70t-80.5 179t51.5 169t126.5 83.5t186 41.5
t152 30t60.5 36t19.5 73q0 115 -62.5 177.5t-183.5 62.5t-174.5 -56.5t-62.5 -84.5h-23v114q165 113 330 113z" />
    <glyph glyph-name="aahoahoi" unicode="&#x1eb2;" horiz-adv-x="1366" 
d="M801 2122q0 58 -119 57q-57 0 -90 -33l-6 45q65 23 120 23t118 -18t63 -78q0 -30 -16.5 -52t-55.5 -49l-67 -47l-32 -19q-32 -19 -32 -42q7 -43 72 -43q9 0 35 4l-23 -33q-6 -2 -48 -2t-84 23.5t-42 55.5t18.5 52t51.5 41l73 47q64 40 64 68zM680 1507q-110 0 -175 81
t-65 204l52 2q12 -82 67 -132t135 -50q171 0 203 182h51q-21 -287 -268 -287zM872 633l-227 524l-223 -524h450zM1227 0q-28 0 -109 -6q-104 301 -215 553h-520q-151 -378 -203 -553q-54 6 -74 6t-27.5 -1t-19.5 -2t-26 -3l639 1431h47l614 -1431q-78 6 -106 6z" />
    <glyph glyph-name="aathhoi" unicode="&#x1eb3;" 
d="M633 1704q0 58 -117 57q-55 0 -92 -32l-6 45q68 22 122 22t116.5 -18t62.5 -78q0 -30 -16.5 -52t-55.5 -49l-67 -47q-20 -12 -42 -25t-22 -36q7 -43 72 -43q9 0 35 4l-23 -33q-6 -2 -48 -2t-84 23.5t-42 55.5t17 51.5t53 41.5l73 47q64 40 64 68zM512 1069
q-110 0 -175 81t-65 204l52 2q12 -83 66.5 -132.5t135.5 -49.5q171 0 203 182h51q-21 -287 -268 -287zM682 205v299l-72 -15q-163 -29 -255.5 -69.5t-92.5 -163.5q0 -96 52.5 -144.5t148.5 -48.5q38 0 86 24t68 44t42.5 40.5t22.5 33.5zM514 985q332 0 332 -344v-475
q0 -74 14.5 -88.5t38.5 -14.5t62 9v-45q-59 -27 -127 -27q-131 4 -146 125l-18 -19q-129 -129 -303 -129q-112 0 -192.5 70t-80.5 179t51.5 169t126.5 83.5t186 41.5t152 30t60.5 36t19.5 73q0 115 -62.5 177.5t-183.5 62.5t-174.5 -56.5t-62.5 -84.5h-23v114
q165 113 330 113z" />
    <glyph glyph-name="aahoanga" unicode="&#x1eb4;" horiz-adv-x="1366" 
d="M934 2083h53q-19 -80 -68.5 -133.5t-113.5 -53.5t-126 31t-87 41t-51 10q-70 0 -99 -82h-41q17 80 68.5 130.5t122.5 50.5q40 1 103 -31q101 -50 152 -51q50 0 87 88zM680 1507q-110 0 -175 81t-65 204l52 2q12 -82 67 -132t135 -50q171 0 203 182h51q-21 -287 -268 -287
zM872 633l-227 524l-223 -524h450zM1227 0q-28 0 -109 -6q-104 301 -215 553h-520q-151 -378 -203 -553q-54 6 -74 6t-27.5 -1t-19.5 -2t-26 -3l639 1431h47l614 -1431q-78 6 -106 6z" />
    <glyph glyph-name="aathnga" unicode="&#x1eb5;" 
d="M373 1540q-70 0 -99 -82h-41q17 80 69 130t122 50q43 0 111 -33q100 -49 137 -49q38 0 61 31q15 15 33 58h53q-19 -80 -68.5 -133.5t-109.5 -53.5t-93.5 15t-86.5 41t-88 26zM512 1069q-110 0 -175 81t-65 204l52 2q12 -83 66.5 -132.5t135.5 -49.5q171 0 203 182h51
q-21 -287 -268 -287zM682 205v299l-72 -15q-163 -29 -255.5 -69.5t-92.5 -163.5q0 -96 52.5 -144.5t148.5 -48.5q38 0 86 24t68 44t42.5 40.5t22.5 33.5zM514 985q332 0 332 -344v-475q0 -74 14.5 -88.5t38.5 -14.5t62 9v-45q-59 -27 -127 -27q-131 4 -146 125l-18 -19
q-129 -129 -303 -129q-112 0 -192.5 70t-80.5 179t51.5 169t126.5 83.5t186 41.5t152 30t60.5 36t19.5 73q0 115 -62.5 177.5t-183.5 62.5t-174.5 -56.5t-62.5 -84.5h-23v114q165 113 330 113z" />
    <glyph glyph-name="aahoanang" unicode="&#x1eb6;" horiz-adv-x="1366" 
d="M729 -218q0 -40 -28.5 -68.5t-66.5 -28.5t-67.5 29t-29.5 68t29.5 67t67.5 28t66.5 -27.5t28.5 -67.5zM680 1507q-110 0 -175 81t-65 204l52 2q12 -82 67 -132t135 -50q171 0 203 182h51q-21 -287 -268 -287zM872 633l-227 524l-223 -524h450zM1227 0q-28 0 -109 -6
q-104 301 -215 553h-520q-151 -378 -203 -553q-54 6 -74 6t-27.5 -1t-19.5 -2t-26 -3l639 1431h47l614 -1431q-78 6 -106 6z" />
    <glyph glyph-name="aathnang" unicode="&#x1eb7;" 
d="M592 -226q0 -40 -28.5 -69t-67.5 -29t-68 29t-29 69t29 67.5t68 27.5t67.5 -27.5t28.5 -67.5zM512 1069q-110 0 -175 81t-65 204l52 2q12 -83 66.5 -132.5t135.5 -49.5q171 0 203 182h51q-21 -287 -268 -287zM682 205v299l-72 -15q-163 -29 -255.5 -69.5t-92.5 -163.5
q0 -96 52.5 -144.5t148.5 -48.5q38 0 86 24t68 44t42.5 40.5t22.5 33.5zM514 985q332 0 332 -344v-475q0 -74 14.5 -88.5t38.5 -14.5t62 9v-45q-59 -27 -127 -27q-131 4 -146 125l-18 -19q-129 -129 -303 -129q-112 0 -192.5 70t-80.5 179t51.5 169t126.5 83.5t186 41.5
t152 30t60.5 36t19.5 73q0 115 -62.5 177.5t-183.5 62.5t-174.5 -56.5t-62.5 -84.5h-23v114q165 113 330 113z" />
    <glyph glyph-name="ehoanang" unicode="&#x1eb8;" 
d="M657 -224q0 -40 -28.5 -69t-66.5 -29t-67.5 29t-29.5 69t29.5 67.5t67.5 27.5t66.5 -27.5t28.5 -67.5zM362 1298v-514h318q27 0 84.5 4.5t97.5 6.5l-6 -54l6 -57l-182 10h-318v-598q383 0 560 27q-5 -40 -6 -55t6 -68h-740v1395h727l-6 -62q0 -9 2 -25t4 -36
q-76 15 -184 22l-205 4h-158z" />
    <glyph glyph-name="ethnang" unicode="&#x1eb9;" 
d="M618 -226q0 -40 -29 -69t-67 -29t-67 29t-29 69t29 67.5t67 27.5t67 -27.5t29 -67.5zM539 922q-91 0 -183 -74.5t-106 -282.5h545q-4 158 -61 257.5t-195 99.5zM956 528q0 -21 -2 -45q-208 6 -415 6h-289q-2 -13 -2 -67t23 -123.5t95 -152.5t233 -83t308 142l-2 -107
q-174 -121 -334 -121q-159 0 -269 60.5t-171 174.5t-61 264t54 264t160.5 179.5t268.5 65.5t282.5 -117t120.5 -340z" />
    <glyph glyph-name="ehoahoi" unicode="&#x1eba;" 
d="M657 1788q1 53 -117 53q-58 0 -91 -33l-7 45q65 23 120 23t118 -18t63 -78q0 -32 -17 -54t-54 -47l-68 -47q-43 -26 -53.5 -37.5t-8.5 -26.5t22.5 -27.5t39.5 -12.5t43 4l-22 -33q-7 -2 -49 -2t-83.5 23.5t-41.5 65.5t69 83l74 47q63 39 63 72zM362 1298v-514h318
q27 0 84.5 4.5t97.5 6.5l-6 -54l6 -57l-182 10h-318v-598q383 0 560 27q-5 -40 -6 -55t6 -68h-740v1395h727l-6 -62q0 -9 2 -25t4 -36q-76 15 -184 22l-205 4h-158z" />
    <glyph glyph-name="ethhoi" unicode="&#x1ebb;" 
d="M618 1372q0 60 -118 60q-54 0 -90 -33l-7 45q67 22 135 22t117.5 -25t49.5 -63t-17 -60.5t-55 -47.5l-68 -47q-9 -6 -36 -23t-25 -38q2 -20 22 -32t39 -12t43 4l-22 -32q-6 -3 -48 -3t-84 23.5t-42 64.5t69 85l74 47q63 37 63 65zM539 922q-91 0 -183 -74.5t-106 -282.5
h545q-4 158 -61 257.5t-195 99.5zM956 528q0 -21 -2 -45q-208 6 -415 6h-289q-2 -13 -2 -67t23 -123.5t95 -152.5t233 -83t308 142l-2 -107q-174 -121 -334 -121q-159 0 -269 60.5t-171 174.5t-61 264t54 264t160.5 179.5t268.5 65.5t282.5 -117t120.5 -340z" />
    <glyph glyph-name="ehoanga" unicode="&#x1ebc;" 
d="M397 1579q-72 0 -98 -82h-41q17 78 68.5 129t122.5 51q45 0 125 -41t120 -41t64 31q9 9 33 57h53q-18 -76 -68 -131t-127 -55q-44 0 -95 23.5t-88 41t-69 17.5zM362 1298v-514h318q27 0 84.5 4.5t97.5 6.5l-6 -54l6 -57l-182 10h-318v-598q383 0 560 27q-5 -40 -6 -55
t6 -68h-740v1395h727l-6 -62q0 -9 2 -25t4 -36q-76 15 -184 22l-205 4h-158z" />
    <glyph glyph-name="ethnga" unicode="&#x1ebd;" 
d="M358 1169q-72 0 -98 -82h-41q17 79 68 130t123 51q41 0 104 -32q100 -50 141 -50t64 31q11 11 33 57h53q-30 -112 -87 -149.5t-96 -37.5t-61.5 6t-94.5 41q-73 35 -108 35zM539 922q-91 0 -183 -74.5t-106 -282.5h545q-4 158 -61 257.5t-195 99.5zM956 528q0 -21 -2 -45
q-208 6 -415 6h-289q-2 -13 -2 -67t23 -123.5t95 -152.5t233 -83t308 142l-2 -107q-174 -121 -334 -121q-159 0 -269 60.5t-171 174.5t-61 264t54 264t160.5 179.5t268.5 65.5t282.5 -117t120.5 -340z" />
    <glyph glyph-name="ebhoasac" unicode="&#x1ebe;" 
d="M1053 1905l-285 -183h-61l229 230q28 26 45 45q14 11 25.5 20.5t21.5 10.5q62 0 72 -39q0 -41 -4 -48t-10 -13t-12.5 -10t-20.5 -13zM322 1491h-62l225 293h101l225 -293h-59l-215 186zM362 1298v-514h318q27 0 84.5 4.5t97.5 6.5l-6 -54l6 -57l-182 10h-318v-598
q383 0 560 27q-5 -40 -6 -55t6 -68h-740v1395h727l-6 -62q0 -9 2 -25t4 -36q-76 15 -184 22l-205 4h-158z" />
    <glyph glyph-name="ebthsac" unicode="&#x1ebf;" 
d="M1034 1481l-284 -183h-62l230 230q28 26 45 45q4 2 19.5 16t27.5 15q61 0 71 -39q0 -41 -4 -47q-7 -16 -43 -37zM303 1067h-61l225 293h100l226 -293h-60l-215 186zM539 922q-91 0 -183 -74.5t-106 -282.5h545q-4 158 -61 257.5t-195 99.5zM956 528q0 -21 -2 -45
q-208 6 -415 6h-289q-2 -13 -2 -67t23 -123.5t95 -152.5t233 -83t308 142l-2 -107q-174 -121 -334 -121q-159 0 -269 60.5t-171 174.5t-61 264t54 264t160.5 179.5t268.5 65.5t282.5 -117t120.5 -340z" />
    <glyph glyph-name="ebhoahuyen" unicode="&#x1ec0;" 
d="M819 1800h-65l-279 174q-8 6 -23.5 16t-21.5 23q-2 17 -2 49q12 39 74 39q24 -6 47 -30.5t39 -40.5zM322 1491h-62l225 293h101l225 -293h-59l-215 186zM362 1298v-514h318q27 0 84.5 4.5t97.5 6.5l-6 -54l6 -57l-182 10h-318v-598q383 0 560 27q-5 -40 -6 -55t6 -68
h-740v1395h727l-6 -62q0 -9 2 -25t4 -36q-76 15 -184 22l-205 4h-158z" />
    <glyph glyph-name="ebthhuyen" unicode="&#x1ec1;" 
d="M801 1376h-66l-278 174q-38 26 -45 39q-2 17 -2 49q12 39 73 39q17 -4 30 -15t56 -56zM303 1067h-61l225 293h100l226 -293h-60l-215 186zM539 922q-91 0 -183 -74.5t-106 -282.5h545q-4 158 -61 257.5t-195 99.5zM956 528q0 -21 -2 -45q-208 6 -415 6h-289
q-2 -13 -2 -67t23 -123.5t95 -152.5t233 -83t308 142l-2 -107q-174 -121 -334 -121q-159 0 -269 60.5t-171 174.5t-61 264t54 264t160.5 179.5t268.5 65.5t282.5 -117t120.5 -340z" />
    <glyph glyph-name="ebhoahoi" unicode="&#x1ec2;" 
d="M854 1722q19 0 43 4l-23 -32q-6 -2 -48 -2t-84 23.5t-42 55.5t18.5 52t51.5 41l74 47q63 38 63 66t-32 43.5t-85 15.5t-92 -33l-6 45q71 23 138 23t115 -26.5t48 -64.5t-17.5 -59.5t-53.5 -46.5l-68 -47q-44 -26 -54 -37.5t-8 -27.5t22.5 -28t39.5 -12zM322 1491h-62
l225 293h101l225 -293h-59l-215 186zM362 1298v-514h318q27 0 84.5 4.5t97.5 6.5l-6 -54l6 -57l-182 10h-318v-598q383 0 560 27q-5 -40 -6 -55t6 -68h-740v1395h727l-6 -62q0 -9 2 -25t4 -36q-76 15 -184 22l-205 4h-158z" />
    <glyph glyph-name="ebthhoi" unicode="&#x1ec3;" 
d="M837 1298q20 0 42 5l-23 -33q-6 -2 -48 -2t-84 23.5t-42 55.5t18.5 52t51.5 41l73 47q64 37 64 65t-32.5 44t-86.5 16t-90 -33l-6 45q71 23 138 23t115 -25.5t48 -63.5t-17 -59.5t-55 -48.5l-67 -47q-46 -27 -55 -38t-7 -27t22.5 -28t40.5 -12zM303 1067h-61l225 293h100
l226 -293h-60l-215 186zM539 922q-91 0 -183 -74.5t-106 -282.5h545q-4 158 -61 257.5t-195 99.5zM956 528q0 -21 -2 -45q-208 6 -415 6h-289q-2 -13 -2 -67t23 -123.5t95 -152.5t233 -83t308 142l-2 -107q-174 -121 -334 -121q-159 0 -269 60.5t-171 174.5t-61 264t54 264
t160.5 179.5t268.5 65.5t282.5 -117t120.5 -340z" />
    <glyph glyph-name="ebhoanga" unicode="&#x1ec4;" 
d="M688 1985q49 0 86 88h53q-19 -80 -68.5 -133.5t-109.5 -53.5t-93.5 15t-86.5 41q-53 25 -88 26q-72 0 -98 -82h-41q15 79 67.5 129.5t122.5 50.5q47 0 113 -33q65 -33 89 -41t54 -7zM322 1491h-62l225 293h101l225 -293h-59l-215 186zM362 1298v-514h318q27 0 84.5 4.5
t97.5 6.5l-6 -54l6 -57l-182 10h-318v-598q383 0 560 27q-5 -40 -6 -55t6 -68h-740v1395h727l-6 -62q0 -9 2 -25t4 -36q-76 15 -184 22l-205 4h-158z" />
    <glyph glyph-name="ebthnga" unicode="&#x1ec5;" 
d="M362 1544q-72 0 -98 -82h-41q17 79 68.5 129.5t122.5 50.5q45 0 107 -32q96 -49 138 -49t64 30q16 16 33 58h53q-29 -114 -86.5 -150.5t-96.5 -36.5t-61.5 6t-94.5 41q-73 35 -108 35zM303 1067h-61l225 293h100l226 -293h-60l-215 186zM539 922q-91 0 -183 -74.5
t-106 -282.5h545q-4 158 -61 257.5t-195 99.5zM956 528q0 -21 -2 -45q-208 6 -415 6h-289q-2 -13 -2 -67t23 -123.5t95 -152.5t233 -83t308 142l-2 -107q-174 -121 -334 -121q-159 0 -269 60.5t-171 174.5t-61 264t54 264t160.5 179.5t268.5 65.5t282.5 -117t120.5 -340z
" />
    <glyph glyph-name="ebhoanang" unicode="&#x1ec6;" 
d="M621 -232q0 -40 -29.5 -69t-67.5 -29t-67 29t-29 69t29 67.5t67 27.5t67.5 -27.5t29.5 -67.5zM322 1491h-62l225 293h101l225 -293h-59l-215 186zM362 1298v-514h318q27 0 84.5 4.5t97.5 6.5l-6 -54l6 -57l-182 10h-318v-598q383 0 560 27q-5 -40 -6 -55t6 -68h-740v1395
h727l-6 -62q0 -9 2 -25t4 -36q-76 15 -184 22l-205 4h-158z" />
    <glyph glyph-name="ebthnang" unicode="&#x1ec7;" 
d="M612 -226q0 -40 -29 -69t-67 -29t-67 29t-29 69t29 67.5t67 27.5t67 -27.5t29 -67.5zM303 1067h-61l225 293h100l226 -293h-60l-215 186zM539 922q-91 0 -183 -74.5t-106 -282.5h545q-4 158 -61 257.5t-195 99.5zM956 528q0 -21 -2 -45q-208 6 -415 6h-289q-2 -13 -2 -67
t23 -123.5t95 -152.5t233 -83t308 142l-2 -107q-174 -121 -334 -121q-159 0 -269 60.5t-171 174.5t-61 264t54 264t160.5 179.5t268.5 65.5t282.5 -117t120.5 -340z" />
    <glyph glyph-name="ihoahoi" unicode="&#x1ec8;" horiz-adv-x="569" 
d="M391 1784q0 57 -116 57q-56 0 -93 -33l-6 45q65 23 120 23t118 -18t63 -78q0 -32 -17 -54t-54 -47l-68 -47l-32 -19q-32 -19 -32 -42q9 -43 72 -43q11 0 35 4l-23 -33q-6 -2 -48 -2t-84 23.5t-42 55.5t17 51.5t53 41.5l74 47q63 40 63 68zM279 0q-30 0 -84 -6v1401l90 -6
l90 6v-1401q-66 6 -96 6z" />
    <glyph glyph-name="ithhoi" unicode="&#x1ec9;" horiz-adv-x="569" 
d="M338 1165q19 0 43 4l-23 -32q-6 -2 -48 -2t-84 23.5t-42 55.5t18.5 52t51.5 41l74 47q63 38 63 66t-32 43.5t-85 15.5t-92 -33l-6 45q68 22 136 22t116.5 -25.5t48.5 -63.5t-17.5 -60t-53.5 -47l-68 -47q-46 -27 -55 -38t-9 -24q5 -19 25 -31t39 -12zM282 0q-25 0 -79 -6
v979q78 -6 82 -6l82 6v-979q-60 6 -85 6z" />
    <glyph glyph-name="ihoanang" unicode="&#x1eca;" horiz-adv-x="569" 
d="M381 -220q0 -40 -28.5 -68.5t-67.5 -28.5t-68 29t-29 68t29 67t68 28t67.5 -27.5t28.5 -67.5zM279 0q-30 0 -84 -6v1401l90 -6l90 6v-1401q-66 6 -96 6z" />
    <glyph glyph-name="ithnang" unicode="&#x1ecb;" horiz-adv-x="569" 
d="M379 -251q0 -40 -28.5 -68.5t-67.5 -28.5t-68 29t-29 68t29 67t68 28t67.5 -27.5t28.5 -67.5zM385 1273q0 -40 -28.5 -68.5t-66.5 -28.5t-67.5 29t-29.5 68t29.5 67t67.5 28t66.5 -27.5t28.5 -67.5zM282 0q-25 0 -79 -6v979q78 -6 82 -6l82 6v-979q-60 6 -85 6z" />
    <glyph glyph-name="ohoanang" unicode="&#x1ecc;" horiz-adv-x="1706" 
d="M928 -236q0 -40 -29.5 -68t-67.5 -28t-67 29t-29 67t29 67.5t67 29.5t67.5 -28.5t29.5 -68.5zM868 -31q-370 0 -576 199t-206 526q0 164 58 301t216.5 283.5t482.5 146.5q323 0 550 -178.5t227 -544.5q0 -200 -99 -372.5t-278 -266.5t-375 -94zM1419 706q0 100 -10.5 173
t-56 186t-182 203t-287.5 90q-287 0 -441.5 -187.5t-154.5 -491.5t158.5 -473t400.5 -169q146 0 256 63.5t179.5 165t103.5 221t34 219.5z" />
    <glyph glyph-name="othnang" unicode="&#x1ecd;" horiz-adv-x="1139" 
d="M655 -226q0 -40 -28.5 -69t-66.5 -29t-67.5 29t-29.5 69t29.5 67.5t67.5 27.5t66.5 -27.5t28.5 -67.5zM570 922q-102 0 -210 -95t-108 -354q0 -258 104 -345t214 -87t181.5 75t103.5 180.5t32 191.5t-15 159t-50 135.5t-92.5 101t-159.5 38.5zM72 468q0 243 148.5 380
t371.5 137q140 0 247.5 -61t167.5 -174.5t60 -237.5q0 -236 -136 -385.5t-376 -149.5q-133 0 -244 61.5t-175 179t-64 250.5z" />
    <glyph glyph-name="ohoahoi" unicode="&#x1ece;" horiz-adv-x="1706" 
d="M958 1812q0 60 -120 60q-56 0 -88 -33l-7 45q71 23 138 23t115 -26.5t48 -64.5t-17.5 -59.5t-53.5 -46.5l-68 -47q-9 -6 -36 -22.5t-25 -36.5t22 -32.5t39 -12.5t43 4l-22 -33q-6 -2 -48 -2t-84 24t-42 64t69 84l74 47q63 37 63 65zM868 -31q-370 0 -576 199t-206 526
q0 164 58 301t216.5 283.5t482.5 146.5q323 0 550 -178.5t227 -544.5q0 -200 -99 -372.5t-278 -266.5t-375 -94zM1419 706q0 100 -10.5 173t-56 186t-182 203t-287.5 90q-287 0 -441.5 -187.5t-154.5 -491.5t158.5 -473t400.5 -169q146 0 256 63.5t179.5 165t103.5 221
t34 219.5z" />
    <glyph glyph-name="othhoi" unicode="&#x1ecf;" horiz-adv-x="1139" 
d="M622 1118q18 0 44 4l-23 -32q-6 -3 -48 -3t-84 23.5t-42 55.5t18.5 52.5t51.5 41.5l73 47q64 37 64 65t-32 44t-86 16t-91 -33l-6 45q68 22 136 22t116.5 -25t48.5 -63t-17 -60.5t-55 -47.5l-67 -47q-46 -27 -55.5 -38t-7.5 -27t23 -28t39 -12zM570 922q-102 0 -210 -95
t-108 -354q0 -258 104 -345t214 -87t181.5 75t103.5 180.5t32 191.5t-15 159t-50 135.5t-92.5 101t-159.5 38.5zM72 468q0 243 148.5 380t371.5 137q140 0 247.5 -61t167.5 -174.5t60 -237.5q0 -236 -136 -385.5t-376 -149.5q-133 0 -244 61.5t-175 179t-64 250.5z" />
    <glyph glyph-name="obhoasac" unicode="&#x1ed0;" horiz-adv-x="1706" 
d="M1366 1909l-285 -183h-61l229 230q32 30 45 45q6 3 21.5 16.5t25.5 14.5q62 0 72 -39q1 -41 -3 -47t-9 -12t-13 -11t-22 -14zM635 1495h-62l226 293h100l225 -293h-59l-215 186zM868 -31q-370 0 -576 199t-206 526q0 164 58 301t216.5 283.5t482.5 146.5
q323 0 550 -178.5t227 -544.5q0 -200 -99 -372.5t-278 -266.5t-375 -94zM1419 706q0 100 -10.5 173t-56 186t-182 203t-287.5 90q-287 0 -441.5 -187.5t-154.5 -491.5t158.5 -473t400.5 -169q146 0 256 63.5t179.5 165t103.5 221t34 219.5z" />
    <glyph glyph-name="obthsac" unicode="&#x1ed1;" horiz-adv-x="1139" 
d="M1085 1479l-284 -183h-62l230 230q28 26 45 45q4 2 21 16t26 15q61 0 72 -39q0 -42 -5 -47q-7 -16 -43 -37zM354 1065h-61l225 293h100l226 -293h-60l-215 186zM570 922q-102 0 -210 -95t-108 -354q0 -258 104 -345t214 -87t181.5 75t103.5 180.5t32 191.5t-15 159
t-50 135.5t-92.5 101t-159.5 38.5zM72 468q0 243 148.5 380t371.5 137q140 0 247.5 -61t167.5 -174.5t60 -237.5q0 -236 -136 -385.5t-376 -149.5q-133 0 -244 61.5t-175 179t-64 250.5z" />
    <glyph glyph-name="obhoahuyen" unicode="&#x1ed2;" horiz-adv-x="1706" 
d="M1133 1804h-66l-279 174q-8 6 -21.5 15.5t-23.5 23.5q-2 17 -2 49q14 39 74 39q25 -6 86 -71zM635 1495h-62l226 293h100l225 -293h-59l-215 186zM868 -31q-370 0 -576 199t-206 526q0 164 58 301t216.5 283.5t482.5 146.5q323 0 550 -178.5t227 -544.5
q0 -200 -99 -372.5t-278 -266.5t-375 -94zM1419 706q0 100 -10.5 173t-56 186t-182 203t-287.5 90q-287 0 -441.5 -187.5t-154.5 -491.5t158.5 -473t400.5 -169q146 0 256 63.5t179.5 165t103.5 221t34 219.5z" />
    <glyph glyph-name="obthhuyen" unicode="&#x1ed3;" horiz-adv-x="1139" 
d="M852 1374h-66l-278 174q-8 6 -23.5 16t-21.5 23q-2 17 -2 49q12 39 74 39q24 -6 47 -30.5t39 -40.5zM354 1065h-61l225 293h100l226 -293h-60l-215 186zM570 922q-102 0 -210 -95t-108 -354q0 -258 104 -345t214 -87t181.5 75t103.5 180.5t32 191.5t-15 159t-50 135.5
t-92.5 101t-159.5 38.5zM72 468q0 243 148.5 380t371.5 137q140 0 247.5 -61t167.5 -174.5t60 -237.5q0 -236 -136 -385.5t-376 -149.5q-133 0 -244 61.5t-175 179t-64 250.5z" />
    <glyph glyph-name="obhoahoi" unicode="&#x1ed4;" horiz-adv-x="1706" 
d="M1164 1726q16 0 46 5l-22 -33q-6 -2 -48 -2t-84 24t-42 64t69 84l74 47q64 37 64 65t-32.5 44t-86.5 16t-90 -33l-6 45q69 23 136 23t116 -25.5t49 -63.5t-17 -59.5t-55 -48.5l-68 -47q-9 -6 -36 -23t-25 -38q2 -20 22 -32t36 -12zM635 1495h-62l226 293h100l225 -293
h-59l-215 186zM868 -31q-370 0 -576 199t-206 526q0 164 58 301t216.5 283.5t482.5 146.5q323 0 550 -178.5t227 -544.5q0 -200 -99 -372.5t-278 -266.5t-375 -94zM1419 706q0 100 -10.5 173t-56 186t-182 203t-287.5 90q-287 0 -441.5 -187.5t-154.5 -491.5t158.5 -473
t400.5 -169q146 0 256 63.5t179.5 165t103.5 221t34 219.5z" />
    <glyph glyph-name="obthhoi" unicode="&#x1ed5;" horiz-adv-x="1139" 
d="M887 1296q19 0 43 4l-23 -32q-6 -2 -48 -2t-84 23.5t-42 55.5t18.5 52t51.5 41l74 47q63 38 63 66t-33 43.5t-85 15.5t-91 -33l-6 45q71 23 138 23t115 -25.5t48 -63.5t-17 -59.5t-55 -48.5l-67 -47q-46 -27 -55.5 -38t-7.5 -27t23 -28t40 -12zM354 1065h-61l225 293h100
l226 -293h-60l-215 186zM570 922q-102 0 -210 -95t-108 -354q0 -258 104 -345t214 -87t181.5 75t103.5 180.5t32 191.5t-15 159t-50 135.5t-92.5 101t-159.5 38.5zM72 468q0 243 148.5 380t371.5 137q140 0 247.5 -61t167.5 -174.5t60 -237.5q0 -236 -136 -385.5
t-376 -149.5q-133 0 -244 61.5t-175 179t-64 250.5z" />
    <glyph glyph-name="obhoanga" unicode="&#x1ed6;" horiz-adv-x="1706" 
d="M1001 1989q49 0 86 88h54q-29 -114 -86.5 -150.5t-96.5 -36.5t-61.5 6t-94.5 41t-108 35q-72 0 -98 -82h-41q15 79 67 130t123 51q44 -1 107 -33q64 -32 91 -40t58 -9zM635 1495h-62l226 293h100l225 -293h-59l-215 186zM868 -31q-370 0 -576 199t-206 526q0 164 58 301
t216.5 283.5t482.5 146.5q323 0 550 -178.5t227 -544.5q0 -200 -99 -372.5t-278 -266.5t-375 -94zM1419 706q0 100 -10.5 173t-56 186t-182 203t-287.5 90q-287 0 -441.5 -187.5t-154.5 -491.5t158.5 -473t400.5 -169q146 0 256 63.5t179.5 165t103.5 221t34 219.5z" />
    <glyph glyph-name="obthnga" unicode="&#x1ed7;" horiz-adv-x="1139" 
d="M721 1559q49 0 86 88h53q-19 -80 -68.5 -133.5t-113.5 -53.5t-126 31t-87 41t-51 10q-70 0 -99 -82h-41q17 80 69 130t122 50q44 0 108 -32q63 -32 90 -40t58 -9zM354 1065h-61l225 293h100l226 -293h-60l-215 186zM570 922q-102 0 -210 -95t-108 -354q0 -258 104 -345
t214 -87t181.5 75t103.5 180.5t32 191.5t-15 159t-50 135.5t-92.5 101t-159.5 38.5zM72 468q0 243 148.5 380t371.5 137q140 0 247.5 -61t167.5 -174.5t60 -237.5q0 -236 -136 -385.5t-376 -149.5q-133 0 -244 61.5t-175 179t-64 250.5z" />
    <glyph glyph-name="obhoanang" unicode="&#x1ed8;" horiz-adv-x="1706" 
d="M924 -228q0 -40 -29.5 -69t-67.5 -29t-67 29t-29 69t29 67.5t67 27.5t67.5 -27.5t29.5 -67.5zM635 1495h-62l226 293h100l225 -293h-59l-215 186zM868 -31q-370 0 -576 199t-206 526q0 164 58 301t216.5 283.5t482.5 146.5q323 0 550 -178.5t227 -544.5
q0 -200 -99 -372.5t-278 -266.5t-375 -94zM1419 706q0 100 -10.5 173t-56 186t-182 203t-287.5 90q-287 0 -441.5 -187.5t-154.5 -491.5t158.5 -473t400.5 -169q146 0 256 63.5t179.5 165t103.5 221t34 219.5z" />
    <glyph glyph-name="obthnang" unicode="&#x1ed9;" horiz-adv-x="1139" 
d="M664 -228q0 -40 -29.5 -69t-67.5 -29t-67 29t-29 69t29 67.5t67 27.5t67.5 -27.5t29.5 -67.5zM354 1065h-61l225 293h100l226 -293h-60l-215 186zM570 922q-102 0 -210 -95t-108 -354q0 -258 104 -345t214 -87t181.5 75t103.5 180.5t32 191.5t-15 159t-50 135.5
t-92.5 101t-159.5 38.5zM72 468q0 243 148.5 380t371.5 137q140 0 247.5 -61t167.5 -174.5t60 -237.5q0 -236 -136 -385.5t-376 -149.5q-133 0 -244 61.5t-175 179t-64 250.5z" />
    <glyph glyph-name="ochoasac" unicode="&#x1eda;" horiz-adv-x="1706" 
d="M1092 1710l-285 -182h-62l230 229q16 16 25.5 24.5t19.5 18.5q31 31 47 33q63 0 72 -39q1 -42 -5 -52t-42 -32zM840 -31h-2q-341 0 -547.5 199t-206.5 526q0 164 58 301t216.5 283.5t489.5 146.5q330 0 470 -110t191 -189q103 108 103 217q0 84 84 84q23 0 39 -24.5
t16 -64.5t-74 -139.5t-123 -137.5q66 -153 66 -356t-99 -375.5t-277.5 -266.5t-403.5 -94zM1419 706q0 100 -10.5 173t-56 186t-182 203t-287.5 90q-287 0 -441.5 -187.5t-154.5 -491.5t158.5 -473t400.5 -169q146 0 256 63.5t179.5 165t103.5 221t34 219.5z" />
    <glyph glyph-name="octhsac" unicode="&#x1edb;" horiz-adv-x="1167" 
d="M760 1270l-285 -183h-61l229 230q28 26 45 45q6 3 21.5 16.5t25.5 14.5q62 0 72 -39q1 -41 -3 -47t-9 -12t-13 -11t-22 -14zM242 461q0 -246 104 -333t214 -87t181.5 75t103.5 180.5t32 191.5q0 179 -71.5 306.5t-238.5 127.5q-166 0 -245.5 -134.5t-79.5 -326.5zM61 468
q0 241 148.5 379t372.5 138q169 0 283.5 -89t144.5 -187q88 93 88 202q0 84 84 84q23 0 39 -24.5t16 -64.5t-74 -139.5t-123 -137.5q17 -62 17 -152t-33 -182t-136 -205t-343 -113q-133 0 -244.5 62t-175.5 179t-64 250z" />
    <glyph glyph-name="ochoahuyen" unicode="&#x1edc;" horiz-adv-x="1706" 
d="M1073 1534h-65l-279 174q-12 9 -25 18t-20 21q-2 16 -2 49q12 39 74 39q16 -4 29 -14t57 -58zM840 -31h-2q-341 0 -547.5 199t-206.5 526q0 164 58 301t216.5 283.5t489.5 146.5q330 0 470 -110t191 -189q103 108 103 217q0 84 84 84q23 0 39 -24.5t16 -64.5t-74 -139.5
t-123 -137.5q66 -153 66 -356t-99 -375.5t-277.5 -266.5t-403.5 -94zM1419 706q0 100 -10.5 173t-56 186t-182 203t-287.5 90q-287 0 -441.5 -187.5t-154.5 -491.5t158.5 -473t400.5 -169q146 0 256 63.5t179.5 165t103.5 221t34 219.5z" />
    <glyph glyph-name="octhhuyen" unicode="&#x1edd;" horiz-adv-x="1167" 
d="M782 1094h-65l-279 174q-12 9 -25 18t-20 21q-2 16 -2 49q13 39 74 39q22 -6 46 -31t40 -41zM242 461q0 -246 104 -333t214 -87t181.5 75t103.5 180.5t32 191.5q0 179 -71.5 306.5t-238.5 127.5q-166 0 -245.5 -134.5t-79.5 -326.5zM61 468q0 241 148.5 379t372.5 138
q169 0 283.5 -89t144.5 -187q88 93 88 202q0 84 84 84q23 0 39 -24.5t16 -64.5t-74 -139.5t-123 -137.5q17 -62 17 -152t-33 -182t-136 -205t-343 -113q-133 0 -244.5 62t-175.5 179t-64 250z" />
    <glyph glyph-name="ochoahoi" unicode="&#x1ede;" horiz-adv-x="1706" 
d="M956 1812q0 60 -120 60q-56 0 -88 -33l-7 45q71 23 138 23t115 -26.5t48 -64.5t-17.5 -59.5t-53.5 -46.5l-68 -47q-43 -26 -53 -37.5t-8 -26.5t22 -27.5t39 -12.5t43 4l-22 -33q-6 -2 -48 -2t-84 24t-42 64t69 84l74 47q63 37 63 65zM840 -31h-2q-341 0 -547.5 199
t-206.5 526q0 164 58 301t216.5 283.5t489.5 146.5q330 0 470 -110t191 -189q103 108 103 217q0 84 84 84q23 0 39 -24.5t16 -64.5t-74 -139.5t-123 -137.5q66 -153 66 -356t-99 -375.5t-277.5 -266.5t-403.5 -94zM1419 706q0 100 -10.5 173t-56 186t-182 203t-287.5 90
q-287 0 -441.5 -187.5t-154.5 -491.5t158.5 -473t400.5 -169q146 0 256 63.5t179.5 165t103.5 221t34 219.5z" />
    <glyph glyph-name="octhhoi" unicode="&#x1edf;" horiz-adv-x="1167" 
d="M612 1118q18 0 43 4l-22 -32q-6 -3 -48 -3t-84 23.5t-42 64.5t69 85l74 47q64 37 64 65t-32 44t-86 16t-91 -33l-6 45q66 22 134 22t117.5 -25t49.5 -63t-17 -60.5t-55 -47.5l-68 -47q-9 -6 -36.5 -23t-25.5 -38q2 -20 23 -32t39 -12zM242 461q0 -246 104 -333t214 -87
t181.5 75t103.5 180.5t32 191.5q0 179 -71.5 306.5t-238.5 127.5q-166 0 -245.5 -134.5t-79.5 -326.5zM61 468q0 241 148.5 379t372.5 138q169 0 283.5 -89t144.5 -187q88 93 88 202q0 84 84 84q23 0 39 -24.5t16 -64.5t-74 -139.5t-123 -137.5q17 -62 17 -152t-33 -182
t-136 -205t-343 -113q-133 0 -244.5 62t-175.5 179t-64 250z" />
    <glyph glyph-name="ochoanga" unicode="&#x1ee0;" horiz-adv-x="1706" 
d="M696 1610q-71 0 -98 -82h-41q17 78 68.5 129t122.5 51q39 0 108 -34q70 -34 93 -40q23 -8 54 -8t54 31q9 9 33 57h53q-18 -76 -68 -131t-127 -55q-42 0 -73 13t-57 26t-58 28t-64 15zM840 -31h-2q-341 0 -547.5 199t-206.5 526q0 164 58 301t216.5 283.5t489.5 146.5
q330 0 470 -110t191 -189q103 108 103 217q0 84 84 84q23 0 39 -24.5t16 -64.5t-74 -139.5t-123 -137.5q66 -153 66 -356t-99 -375.5t-277.5 -266.5t-403.5 -94zM1419 706q0 100 -10.5 173t-56 186t-182 203t-287.5 90q-287 0 -441.5 -187.5t-154.5 -491.5t158.5 -473
t400.5 -169q146 0 256 63.5t179.5 165t103.5 221t34 219.5z" />
    <glyph glyph-name="octhnga" unicode="&#x1ee1;" horiz-adv-x="1167" 
d="M406 1169q-73 0 -99 -82h-41q17 79 68 130t123 51q41 0 104 -32q100 -50 141 -50q42 0 64 31q16 16 33 57h53q-30 -112 -87 -149.5t-96 -37.5t-61.5 6t-94.5 41q-73 35 -107 35zM242 461q0 -246 104 -333t214 -87t181.5 75t103.5 180.5t32 191.5q0 179 -71.5 306.5
t-238.5 127.5q-166 0 -245.5 -134.5t-79.5 -326.5zM61 468q0 241 148.5 379t372.5 138q169 0 283.5 -89t144.5 -187q88 93 88 202q0 84 84 84q23 0 39 -24.5t16 -64.5t-74 -139.5t-123 -137.5q17 -62 17 -152t-33 -182t-136 -205t-343 -113q-133 0 -244.5 62t-175.5 179
t-64 250z" />
    <glyph glyph-name="ochoanang" unicode="&#x1ee2;" horiz-adv-x="1706" 
d="M926 -236q0 -40 -29.5 -68t-67.5 -28t-67 29t-29 67t29 67.5t67 29.5t67.5 -28.5t29.5 -68.5zM840 -31h-2q-341 0 -547.5 199t-206.5 526q0 164 58 301t216.5 283.5t489.5 146.5q330 0 470 -110t191 -189q103 108 103 217q0 84 84 84q23 0 39 -24.5t16 -64.5t-74 -139.5
t-123 -137.5q66 -153 66 -356t-99 -375.5t-277.5 -266.5t-403.5 -94zM1419 706q0 100 -10.5 173t-56 186t-182 203t-287.5 90q-287 0 -441.5 -187.5t-154.5 -491.5t158.5 -473t400.5 -169q146 0 256 63.5t179.5 165t103.5 221t34 219.5z" />
    <glyph glyph-name="octhnang" unicode="&#x1ee3;" horiz-adv-x="1167" 
d="M645 -226q0 -40 -28.5 -69t-66.5 -29t-67.5 29t-29.5 69t29.5 67.5t67.5 27.5t66.5 -27.5t28.5 -67.5zM242 461q0 -246 104 -333t214 -87t181.5 75t103.5 180.5t32 191.5q0 179 -71.5 306.5t-238.5 127.5q-166 0 -245.5 -134.5t-79.5 -326.5zM61 468q0 241 148.5 379
t372.5 138q169 0 283.5 -89t144.5 -187q88 93 88 202q0 84 84 84q23 0 39 -24.5t16 -64.5t-74 -139.5t-123 -137.5q17 -62 17 -152t-33 -182t-136 -205t-343 -113q-133 0 -244.5 62t-175.5 179t-64 250z" />
    <glyph glyph-name="uhoanang" unicode="&#x1ee4;" horiz-adv-x="1593" 
d="M893 -236q0 -40 -28.5 -68t-67.5 -28t-68 29t-29 67t29 67.5t68 29.5t67.5 -28.5t28.5 -68.5zM373 610q0 -281 100 -414t343 -133q242 0 347 150.5t105 417.5v764q54 -6 57 -6l57 6v-815q0 -198 -73 -335.5t-208.5 -206.5t-316.5 -69q-285 0 -444 144q-88 79 -116.5 195
t-30.5 267v820l90 -6l90 6v-785z" />
    <glyph glyph-name="uthnang" unicode="&#x1ee5;" horiz-adv-x="1139" 
d="M651 -216q0 -40 -28.5 -68.5t-66.5 -28.5t-67.5 29t-29.5 68t29.5 67t67.5 28t66.5 -27.5t28.5 -67.5zM884 0q-25 0 -79 -6v176q-101 -193 -326 -193q-172 0 -255 94t-83 300v602q78 -6 82 -6l82 6v-553q0 -226 78.5 -284t172.5 -58t171.5 68t77.5 262v565q78 -6 82 -6
l82 6v-979q-60 6 -85 6z" />
    <glyph glyph-name="uhoahoi" unicode="&#x1ee6;" horiz-adv-x="1593" 
d="M893 1784q0 58 -118 57q-56 0 -91 -33l-6 45q65 23 120 23t118 -18t63 -78q0 -30 -16.5 -52t-55.5 -49l-67 -47l-32 -19q-32 -19 -32 -42q7 -43 72 -43q9 0 35 4l-23 -33q-6 -2 -48 -2t-84 23.5t-42 55.5t17 51.5t53 41.5l73 47q64 40 64 68zM373 610q0 -281 100 -414
t343 -133q242 0 347 150.5t105 417.5v764q54 -6 57 -6l57 6v-815q0 -198 -73 -335.5t-208.5 -206.5t-316.5 -69q-285 0 -444 144q-88 79 -116.5 195t-30.5 267v820l90 -6l90 6v-785z" />
    <glyph glyph-name="uthhoi" unicode="&#x1ee7;" horiz-adv-x="1139" 
d="M662 1362q0 58 -119 57q-57 0 -90 -33l-7 46q68 22 122 22t117 -17.5t63 -78.5q0 -30 -16.5 -52t-55.5 -49l-68 -47q-15 -10 -39.5 -24t-22.5 -35t22.5 -33t39.5 -12t43 4l-22 -33q-6 -2 -48 -2t-84 23.5t-42 65.5t69 83l74 47q64 40 64 68zM884 0q-25 0 -79 -6v176
q-101 -193 -326 -193q-172 0 -255 94t-83 300v602q78 -6 82 -6l82 6v-553q0 -226 78.5 -284t172.5 -58t171.5 68t77.5 262v565q78 -6 82 -6l82 6v-979q-60 6 -85 6z" />
    <glyph glyph-name="uchoasac" unicode="&#x1ee8;" horiz-adv-x="1593" 
d="M1090 1690l-285 -183h-62l230 230q28 26 45 45l18 14q18 15 29 16q61 0 72 -38q0 -40 -4 -48t-11 -14.5t-12.5 -9.5t-19.5 -12zM373 610q0 -281 100 -414t343 -133q242 0 347 150.5t105 417.5v764q54 -6 57 -6l57 6v-285q88 93 88 203q0 84 84 84q24 0 40 -24.5t16 -64.5
t-84 -135.5t-144 -142.5v-450q0 -198 -73 -335.5t-208.5 -206.5t-316.5 -69q-285 0 -444 144q-88 79 -116.5 195t-30.5 267v820l90 -6l90 6v-785z" />
    <glyph glyph-name="ucthsac" unicode="&#x1ee9;" horiz-adv-x="1139" 
d="M838 1284l-285 -182h-61l229 229q16 16 25.5 24.5t19.5 18.5q31 31 47 33q63 0 72 -39q1 -42 -5 -52t-42 -32zM1057 889q0 84 84 84q23 0 39 -24.5t16 -64.5t-85 -137t-142 -141v-612q-60 6 -85 6t-79 -6v176q-101 -193 -326 -193q-172 0 -255 94t-83 300v602
q78 -6 82 -6l82 6v-553q0 -226 78.5 -284t172.5 -58t171.5 68t77.5 262v565q78 -6 82 -6l82 6v-287q88 95 88 203z" />
    <glyph glyph-name="uchoahuyen" unicode="&#x1eea;" horiz-adv-x="1593" 
d="M979 1524h-66l-278 174q-39 27 -45 39q-2 16 -2 49q13 39 74 39q16 -4 29 -14t57 -58zM373 610q0 -281 100 -414t343 -133q242 0 347 150.5t105 417.5v764q54 -6 57 -6l57 6v-285q88 93 88 203q0 84 84 84q24 0 40 -24.5t16 -64.5t-84 -135.5t-144 -142.5v-450
q0 -198 -73 -335.5t-208.5 -206.5t-316.5 -69q-285 0 -444 144q-88 79 -116.5 195t-30.5 267v820l90 -6l90 6v-785z" />
    <glyph glyph-name="ucthhuyen" unicode="&#x1eeb;" horiz-adv-x="1139" 
d="M655 1108h-65l-279 174q-12 9 -25 18t-20 21q-2 16 -2 49q12 39 74 39q16 -4 29 -14t57 -58zM1057 889q0 84 84 84q23 0 39 -24.5t16 -64.5t-85 -137t-142 -141v-612q-60 6 -85 6t-79 -6v176q-101 -193 -326 -193q-172 0 -255 94t-83 300v602q78 -6 82 -6l82 6v-553
q0 -226 78.5 -284t172.5 -58t171.5 68t77.5 262v565q78 -6 82 -6l82 6v-287q88 95 88 203z" />
    <glyph glyph-name="uchoahoi" unicode="&#x1eec;" horiz-adv-x="1593" 
d="M893 1784q0 58 -118 57q-56 0 -91 -33l-6 45q65 23 120 23t118 -18t63 -78q0 -30 -16.5 -52t-55.5 -49l-67 -47l-32 -19q-32 -19 -32 -42q7 -43 72 -43q9 0 35 4l-23 -33q-6 -2 -48 -2t-84 23.5t-42 55.5t17 51.5t53 41.5l73 47q64 40 64 68zM373 610q0 -281 100 -414
t343 -133q242 0 347 150.5t105 417.5v764q54 -6 57 -6l57 6v-285q88 93 88 203q0 84 84 84q24 0 40 -24.5t16 -64.5t-84 -135.5t-144 -142.5v-450q0 -198 -73 -335.5t-208.5 -206.5t-316.5 -69q-285 0 -444 144q-88 79 -116.5 195t-30.5 267v820l90 -6l90 6v-785z" />
    <glyph glyph-name="ucthhoi" unicode="&#x1eed;" horiz-adv-x="1139" 
d="M662 1386q0 60 -120 60q-56 0 -89 -33l-7 45q72 23 138 23t115 -25.5t49 -63.5t-17 -59.5t-55 -48.5l-68 -47q-9 -6 -36.5 -22.5t-25.5 -36.5t22.5 -32.5t39.5 -12.5t43 4l-22 -33q-6 -2 -48 -2t-84 24t-42 64t69 84l74 47q64 37 64 65zM1057 889q0 84 84 84
q23 0 39 -24.5t16 -64.5t-85 -137t-142 -141v-612q-60 6 -85 6t-79 -6v176q-101 -193 -326 -193q-172 0 -255 94t-83 300v602q78 -6 82 -6l82 6v-553q0 -226 78.5 -284t172.5 -58t171.5 68t77.5 262v565q78 -6 82 -6l82 6v-287q88 95 88 203z" />
    <glyph glyph-name="uchoanga" unicode="&#x1eee;" horiz-adv-x="1593" 
d="M633 1579q-72 0 -98 -82h-41q15 77 67.5 128.5t122.5 51.5q43 0 127 -41t121 -41q38 0 61 31q13 12 33 57h53q-18 -79 -68 -132.5t-110 -53.5t-111 23.5t-88 41t-69 17.5zM373 610q0 -281 100 -414t343 -133q242 0 347 150.5t105 417.5v764q54 -6 57 -6l57 6v-285
q88 93 88 203q0 84 84 84q24 0 40 -24.5t16 -64.5t-84 -135.5t-144 -142.5v-450q0 -198 -73 -335.5t-208.5 -206.5t-316.5 -69q-285 0 -444 144q-88 79 -116.5 195t-30.5 267v820l90 -6l90 6v-785z" />
    <glyph glyph-name="ucthnga" unicode="&#x1eef;" horiz-adv-x="1139" 
d="M729 1200q47 0 86 88h53q-18 -79 -68 -132.5t-110 -53.5t-90 13t-56 26t-58 28t-64 15q-71 0 -98 -82h-41q15 77 67.5 128.5t122.5 51.5q42 0 111 -34q70 -34 92 -40q22 -8 53 -8zM1057 889q0 84 84 84q23 0 39 -24.5t16 -64.5t-85 -137t-142 -141v-612q-60 6 -85 6
t-79 -6v176q-101 -193 -326 -193q-172 0 -255 94t-83 300v602q78 -6 82 -6l82 6v-553q0 -226 78.5 -284t172.5 -58t171.5 68t77.5 262v565q78 -6 82 -6l82 6v-287q88 95 88 203z" />
    <glyph glyph-name="uchoanang" unicode="&#x1ef0;" horiz-adv-x="1593" 
d="M893 -236q0 -40 -28.5 -68t-67.5 -28t-68 29t-29 67t29 67.5t68 29.5t67.5 -28.5t28.5 -68.5zM373 610q0 -281 100 -414t343 -133q242 0 347 150.5t105 417.5v764q54 -6 57 -6l57 6v-285q88 93 88 203q0 84 84 84q24 0 40 -24.5t16 -64.5t-84 -135.5t-144 -142.5v-450
q0 -198 -73 -335.5t-208.5 -206.5t-316.5 -69q-285 0 -444 144q-88 79 -116.5 195t-30.5 267v820l90 -6l90 6v-785z" />
    <glyph glyph-name="ucthnang" unicode="&#x1ef1;" horiz-adv-x="1139" 
d="M682 -220q0 -40 -28.5 -68.5t-67.5 -28.5t-68 29t-29 68t29 67t68 28t67.5 -27.5t28.5 -67.5zM1057 889q0 84 84 84q23 0 39 -24.5t16 -64.5t-85 -137t-142 -141v-612q-60 6 -85 6t-79 -6v176q-101 -193 -326 -193q-172 0 -255 94t-83 300v602q78 -6 82 -6l82 6v-553
q0 -226 78.5 -284t172.5 -58t171.5 68t77.5 262v565q78 -6 82 -6l82 6v-287q88 95 88 203z" />
    <glyph glyph-name="yhoahuyen" unicode="&#x1ef2;" horiz-adv-x="1251" 
d="M786 1503h-65l-279 174q-8 6 -21.5 15.5t-23.5 23.5q-2 17 -2 49q12 39 74 39q15 -4 23 -10t63 -61zM627 0q-30 0 -84 -6v590l-502 811q114 -6 115 -6l112 6q100 -194 229.5 -417.5t159.5 -268.5q54 61 392 686q78 -6 85 -6t26.5 2t47.5 4q-79 -102 -145 -205l-225 -363
q-65 -98 -115 -204v-629q-66 6 -96 6z" />
    <glyph glyph-name="ythhuyen" unicode="&#x1ef3;" 
d="M684 1092h-66l-278 174q-12 9 -25 18t-20 21q-2 16 -2 49q13 39 74 39q22 -6 46 -31t40 -41zM928 967q8 0 25.5 2t39.5 4q-79 -175 -295 -650.5t-366 -852.5q-54 6 -70 6t-24 -1t-19.5 -2t-25.5 -3q204 400 274 532l-414 971q96 -6 99 -6l96 6q112 -346 305 -760
q124 254 307 760q60 -6 68 -6z" />
    <glyph glyph-name="yhoanang" unicode="&#x1ef4;" horiz-adv-x="1251" 
d="M731 -230q0 -40 -28.5 -69t-66.5 -29t-67.5 29t-29.5 69t29.5 67.5t67.5 27.5t66.5 -27.5t28.5 -67.5zM627 0q-30 0 -84 -6v590l-502 811q114 -6 115 -6l112 6q100 -194 229.5 -417.5t159.5 -268.5q54 61 392 686q78 -6 85 -6t26.5 2t47.5 4q-79 -102 -145 -205
l-225 -363q-65 -98 -115 -204v-629q-66 6 -96 6z" />
    <glyph glyph-name="ythnang" unicode="&#x1ef5;" 
d="M762 -427q0 -40 -28.5 -68.5t-67.5 -28.5t-68 29t-29 68t29 67t68 28t67.5 -27.5t28.5 -67.5zM928 967q8 0 25.5 2t39.5 4q-79 -175 -295 -650.5t-366 -852.5q-54 6 -70 6t-24 -1t-19.5 -2t-25.5 -3q204 400 274 532l-414 971q96 -6 99 -6l96 6q112 -346 305 -760
q124 254 307 760q60 -6 68 -6z" />
    <glyph glyph-name="yhoahoi" unicode="&#x1ef6;" horiz-adv-x="1251" 
d="M731 1784q0 57 -116 57q-56 0 -93 -33l-6 45q65 23 120 23t118 -18t63 -78q0 -32 -16.5 -53t-55.5 -48l-67 -47l-32 -19q-32 -19 -32 -42q7 -43 72 -43q11 0 35 4l-23 -33q-6 -2 -48 -2t-84 23.5t-42 55.5t17 51.5t53 41.5l74 47q63 40 63 68zM627 0q-30 0 -84 -6v590
l-502 811q114 -6 115 -6l112 6q100 -194 229.5 -417.5t159.5 -268.5q54 61 392 686q78 -6 85 -6t26.5 2t47.5 4q-79 -102 -145 -205l-225 -363q-65 -98 -115 -204v-629q-66 6 -96 6z" />
    <glyph glyph-name="ythhoi" unicode="&#x1ef7;" 
d="M629 1362q0 58 -119 57q-57 0 -90 -33l-6 46q68 22 121 22t116.5 -17.5t63.5 -78.5q0 -30 -16.5 -52t-55.5 -49l-68 -47q-15 -10 -39 -24t-24 -37q7 -43 72 -43q10 0 34 4l-22 -33q-6 -2 -48 -2t-84 23.5t-42 55.5t17 51.5t53 41.5l73 47q64 40 64 68zM928 967
q8 0 25.5 2t39.5 4q-79 -175 -295 -650.5t-366 -852.5q-54 6 -70 6t-24 -1t-19.5 -2t-25.5 -3q204 400 274 532l-414 971q96 -6 99 -6l96 6q112 -346 305 -760q124 254 307 760q60 -6 68 -6z" />
    <glyph glyph-name="yhoanga" unicode="&#x1ef8;" horiz-adv-x="1251" 
d="M471 1579q-72 0 -98 -82h-41q15 77 67.5 128.5t122.5 51.5q47 0 129 -41q81 -41 119 -41t61 31q13 12 33 57h54q-18 -77 -68.5 -131.5t-126.5 -54.5q-44 0 -95 23.5t-88 41t-69 17.5zM627 0q-30 0 -84 -6v590l-502 811q114 -6 115 -6l112 6q100 -194 229.5 -417.5
t159.5 -268.5q54 61 392 686q78 -6 85 -6t26.5 2t47.5 4q-79 -102 -145 -205l-225 -363q-65 -98 -115 -204v-629q-66 6 -96 6z" />
    <glyph glyph-name="ythnga" unicode="&#x1ef9;" 
d="M737 1184q49 0 86 88h54q-30 -112 -87 -149.5t-96 -37.5t-61.5 6t-94.5 41t-108 35q-72 0 -98 -82h-41q15 79 67 130t123 51q44 0 107 -32q64 -32 91 -42q27 -8 58 -8zM928 967q8 0 25.5 2t39.5 4q-79 -175 -295 -650.5t-366 -852.5q-54 6 -70 6t-24 -1t-19.5 -2
t-25.5 -3q204 400 274 532l-414 971q96 -6 99 -6l96 6q112 -346 305 -760q124 254 307 760q60 -6 68 -6z" />
    <glyph glyph-name="emdash" unicode="&#x2013;" 
d="M1034 403h-1034v99h1034v-99z" />
    <glyph glyph-name="endash" unicode="&#x2014;" horiz-adv-x="2048" 
d="M0 403v99h2048v-99h-2048z" />
    <glyph glyph-name="quoteleft" unicode="&#x2018;" horiz-adv-x="569" 
d="M228 840q-36 0 -61.5 20.5t-25.5 52.5t11 53.5t34 57.5l242 401l35 -14l-144 -455q-18 -55 -36.5 -85.5t-54.5 -30.5z" />
    <glyph glyph-name="quoteright" unicode="&#x2019;" horiz-adv-x="569" 
d="M343 1425q36 0 60.5 -20.5t24.5 -46.5q0 -47 -45 -117l-242 -401l-35 14l144 455q16 51 36.5 83.5t56.5 32.5z" />
    <glyph glyph-name="quotesinglbase" unicode="&#x201a;" horiz-adv-x="569" 
d="M338 242q36 0 61 -20.5t25 -46.5t-7.5 -48.5t-37.5 -69.5l-242 -401l-35 14l144 455q16 51 36 84t56 33z" />
    <glyph glyph-name="quotedblleft" unicode="&#x201c;" horiz-adv-x="909" 
d="M220 840q-36 0 -61.5 20.5t-25.5 52.5t11 53.5t34 57.5l242 401l35 -14l-144 -455q-17 -52 -36 -84t-55 -32zM568 840q-36 0 -61.5 20.5t-25.5 52.5t11 53.5t34 57.5l242 401l35 -14l-144 -455q-18 -55 -36.5 -85.5t-54.5 -30.5z" />
    <glyph glyph-name="quotedblright" unicode="&#x201d;" horiz-adv-x="909" 
d="M691 1425q36 0 60.5 -20.5t24.5 -51.5t-11 -53.5t-34 -58.5l-242 -401l-34 14l143 455q16 51 36.5 83.5t56.5 32.5zM343 1425q36 0 60.5 -20.5t24.5 -46.5q0 -47 -45 -117l-242 -401l-35 14l144 455q16 51 36.5 83.5t56.5 32.5z" />
    <glyph glyph-name="quotedblbase" unicode="&#x201e;" horiz-adv-x="909" 
d="M686 242q36 0 61 -20t25 -52t-11 -54.5t-34 -58.5l-242 -401l-34 14l143 455q16 51 36 84t56 33zM338 242q36 0 61 -20.5t25 -46.5t-7.5 -48.5t-37.5 -69.5l-242 -401l-35 14l144 455q16 51 36 84t56 33z" />
    <glyph glyph-name="dagger" unicode="&#x2020;" 
d="M512 0q-18 0 -72 -6v815q-68 0 -356 -10q6 51 6 68t-6 65l356 -10v473q66 -6 72 -6l72 6v-473q63 0 356 10l-6 -66q0 -1 6 -67q-293 10 -356 10v-815q-54 6 -72 6z" />
    <glyph glyph-name="daggerdbl" unicode="&#x2021;" 
d="M512 0q-18 0 -72 -6v383q-38 0 -356 -10q6 51 6 68t-6 65l356 -11v410q-38 0 -356 -10q6 51 6 68t-6 65q342 -10 356 -10v383q66 -6 72 -6l72 6v-383q46 0 356 10l-6 -66q0 -1 6 -67q-318 10 -356 10v-410l356 11l-6 -66q0 -1 6 -67q-318 10 -356 10v-383q-54 6 -72 6z
" />
    <glyph glyph-name="bullet" unicode="&#x2022;" horiz-adv-x="1241" 
d="M624 1047q94 0 174 -47t125.5 -127.5t45.5 -174.5t-45.5 -174t-125.5 -127t-174 -47t-173.5 46.5t-127.5 127.5t-51 174q3 93 51 174.5t127.5 128t173.5 46.5z" />
    <glyph glyph-name="ellipsis" unicode="&#x2026;" horiz-adv-x="2048" 
d="M1583 100q0 50 37.5 86.5t79.5 36.5t85.5 -27.5t43.5 -85.5q0 -59 -35.5 -96t-85.5 -37t-87.5 36.5t-37.5 86.5zM901 100q0 50 37.5 86.5t79.5 36.5t85.5 -27.5t43.5 -85.5q0 -59 -35.5 -96t-85.5 -37t-87.5 36.5t-37.5 86.5zM219 100q0 50 37.5 86.5t79.5 36.5
t85.5 -27.5t43.5 -85.5q0 -59 -35.5 -96t-85.5 -37t-87.5 36.5t-37.5 86.5z" />
    <glyph glyph-name="perthousand" unicode="&#x2030;" horiz-adv-x="2048" 
d="M1726 582q-93 0 -122 -91.5t-29 -205.5t29 -189.5t117 -75.5t118.5 88t30.5 200t-25.5 193t-118.5 81zM1436 303q0 88 35.5 161.5t102.5 117t157 43.5q135 0 206.5 -91.5t71.5 -230.5q0 -194 -99 -260t-192 -66q-141 0 -211.5 90.5t-70.5 235.5zM1057 20q151 0 151 285
q0 114 -26 195.5t-118 81.5t-121.5 -91.5t-29.5 -204.5t30 -189.5t114 -76.5zM774 298q0 141 81 234t215 93t207 -92.5t73 -230.5t-79 -231.5t-217 -93.5t-209 90t-71 231zM323 -63q-7 0 -13 -0.5t-11 -1.5t-11 -1.5t-12 -1.5l793 1493q32 -4 50 -4t46 4l-792 -1493
q-43 5 -50 5zM393 1331q-93 0 -122 -91.5t-29 -215.5q0 -254 143 -254q91 0 121.5 87.5t30.5 199.5t-25.5 193t-118.5 81zM104 1052q0 91 35.5 164t102 115.5t146.5 42.5q146 0 218 -88.5t72 -232.5t-81 -235t-193 -91q-113 0 -176.5 42.5t-93.5 117t-30 165.5z" />
    <glyph glyph-name="guilsinglleft" unicode="&#x2039;" horiz-adv-x="682" 
d="M420 70l-246 389l258 379q33 -40 76 -54l-229 -323l219 -338q-49 -15 -78 -53z" />
    <glyph glyph-name="guilsinglright" unicode="&#x203a;" horiz-adv-x="682" 
d="M262 838l246 -389l-258 -379q-35 41 -76 53l229 323l-219 338q50 17 78 54z" />
    <glyph glyph-name="trademark" unicode="&#x2122;" horiz-adv-x="1946" 
d="M422 569q-14 0 -53 -6v774q-104 0 -267 -14v72h627v-72q-142 14 -254 14v-774q-39 6 -53 6zM963 563q-45 7 -86 0q41 249 76.5 520.5t39.5 311.5h31q210 -414 344 -637l350 637h25q8 -66 32.5 -290t67.5 -542q-42 6 -57 6t-57 -6q-40 470 -64 627q-231 -416 -317 -612
h-13l-67 137q-62 128 -107.5 213t-76.5 144l-62 118q-55 -514 -59 -627z" />
    <glyph glyph-name="absachoa" unicode="&#xf006;" horiz-adv-x="0" 
d="M-184 1890l-285 -182h-61l229 229q16 16 25.5 24.5t30.5 29.5t36 22q63 0 72 -39q0 -40 -4 -48t-11.5 -14.5t-18.5 -13t-13 -8.5z" />
    <glyph glyph-name="sac" unicode="&#xf008;" horiz-adv-x="682" 
d="M584 1290l-285 -182h-61l229 229q16 16 25.5 24.5t30.5 29.5t36 22q63 0 72 -39q1 -42 -5 -52t-42 -32z" />
    <glyph glyph-name="aasacth" unicode="&#xf009;" horiz-adv-x="0" 
d="M-195 1577l-284 -182h-62l230 229q12 11 22.5 22.5t18.5 17.5t23.5 20.5t27.5 15.5q61 0 72 -39q0 -42 -5 -47q-7 -16 -43 -37z" />
    <glyph glyph-name="asacth" unicode="&#xf00a;" horiz-adv-x="0" 
d="M-338 1280l-285 -182h-61l229 229q32 30 45 45q6 3 21 16.5t27 14.5q62 0 71 -39q1 -41 -3 -47t-9 -12t-13 -11t-22 -14z" />
    <glyph glyph-name="abhuyenhoa" unicode="&#xf00b;" horiz-adv-x="0" 
d="M-397 1806h-66l-278 174q-38 26 -45 39q-2 17 -2 49q12 39 73 39q17 -4 30 -15t56 -56z" />
    <glyph glyph-name="huyen" unicode="&#xf00d;" horiz-adv-x="682" 
d="M492 1090h-66l-279 174q-12 9 -24.5 17.5t-20.5 21.5q-2 16 -2 49q15 39 74 39q16 -4 30 -15t56 -57z" />
    <glyph glyph-name="aahuyenth" unicode="&#xf00e;" horiz-adv-x="0" 
d="M-408 1411h-65l-279 174q-39 29 -45 39q-2 16 -2 49q12 39 74 39q16 -4 26 -12t60 -60z" />
    <glyph glyph-name="ahuyenth" unicode="&#xf00f;" horiz-adv-x="0" 
d="M-346 1083h-66l-278 174q-38 26 -45 39q-2 17 -2 50q13 38 73 38q17 -4 27 -12t59 -59z" />
    <glyph glyph-name="abhoihoa" unicode="&#xf010;" horiz-adv-x="0" 
d="M-319 1964q0 58 -117 57q-55 0 -92 -32l-7 45q67 22 121 22t117.5 -17.5t63.5 -78.5q0 -53 -72 -100l-68 -48q-15 -10 -39 -24t-22 -35t22 -33t39 -12t43 4l-22 -33q-6 -2 -48 -2t-84 23.5t-42 65.5t69 83l74 47q64 40 64 68z" />
    <glyph glyph-name="ahoihoa" unicode="&#xf011;" horiz-adv-x="0" 
d="M-619 1548q18 0 44 4l-23 -32q-6 -2 -48 -2t-84 23t-42 55t18.5 52.5t51.5 41.5l73 47q64 37 64 65t-32.5 44t-86.5 16t-90 -33l-6 45q68 22 135 22t116.5 -25t49.5 -63t-17 -59.5t-55 -48.5l-67 -47q-46 -27 -55 -38t-7 -27t22.5 -28t38.5 -12z" />
    <glyph glyph-name="hoi" unicode="&#xf012;" horiz-adv-x="682" 
d="M307 1323q-54 0 -90 -33l-6 45q65 23 120 23t118 -18t63 -78q0 -30 -16.5 -52t-55.5 -49l-67 -47l-32 -19q-32 -19 -32 -42q7 -43 72 -43q9 0 35 4l-23 -33q-6 -2 -48 -2t-84 23.5t-42 55.5t18.5 52t51.5 41l73 47q64 38 64 66t-32.5 43.5t-86.5 15.5z" />
    <glyph glyph-name="aahoith" unicode="&#xf013;" horiz-adv-x="0" 
d="M-401 1690q-1 60 -121 59q-56 0 -88 -33l-6 45q64 23 119 23t118.5 -17.5t63.5 -78.5q0 -30 -16.5 -52t-55.5 -49l-68 -47q-9 -6 -36 -22.5t-27 -38.5q7 -43 72 -43q10 0 34 4l-22 -33q-6 -2 -48 -2t-84 23.5t-42 63.5t69 85l74 47q64 38 64 66z" />
    <glyph glyph-name="ahoith" unicode="&#xf014;" horiz-adv-x="0" 
d="M-516 1118q19 0 43 4l-23 -32q-6 -3 -48 -3t-84 23.5t-42 55.5t18.5 52.5t51.5 41.5l74 47q63 38 63 66t-32 43.5t-85 15.5t-92 -33l-6 45q68 22 136 22t116.5 -26t48.5 -64t-17 -59.5t-55 -46.5l-67 -47q-46 -27 -55 -38t-9 -24q5 -19 25 -31t39 -12z" />
    <glyph glyph-name="abngahoa" unicode="&#xf015;" horiz-adv-x="0" 
d="M-498 1970q47 0 86 88h54q-18 -76 -68 -131t-127 -55q-42 0 -72.5 13t-56.5 26t-58.5 28t-64.5 15q-71 0 -98 -82h-41q15 77 67.5 128.5t122.5 51.5q42 0 111 -34t91 -40q22 -8 54 -8z" />
    <glyph glyph-name="abngahoa" unicode="&#xf02f;" horiz-adv-x="0" 
d="M-498 1970q47 0 86 88h54q-18 -76 -68 -131t-127 -55q-42 0 -72.5 13t-56.5 26t-58.5 28t-64.5 15q-71 0 -98 -82h-41q15 77 67.5 128.5t122.5 51.5q42 0 111 -34t91 -40q22 -8 54 -8z" />
    <glyph glyph-name="abngahoa" unicode="&#xf02d;" horiz-adv-x="0" 
d="M-498 1970q47 0 86 88h54q-18 -76 -68 -131t-127 -55q-42 0 -72.5 13t-56.5 26t-58.5 28t-64.5 15q-71 0 -98 -82h-41q15 77 67.5 128.5t122.5 51.5q42 0 111 -34t91 -40q22 -8 54 -8z" />
    <glyph glyph-name="aangath" unicode="&#xf018;" horiz-adv-x="0" 
d="M-344 1544q47 0 86 88h53q-18 -79 -68 -132.5t-110 -53.5t-89.5 13t-55.5 26t-58.5 28t-64.5 15q-70 0 -99 -82h-41q17 78 69 129t122 51q40 0 110 -34t92 -40q22 -8 54 -8z" />
    <glyph glyph-name="angath" unicode="&#xf019;" horiz-adv-x="0" 
d="M-416 1186q49 0 86 88h54q-30 -112 -87 -149.5t-96 -37.5t-61.5 6t-94.5 41t-108 35q-72 0 -98 -82h-41q15 79 67 130t123 51q44 0 107 -32q64 -32 91 -42q27 -8 58 -8z" />
    <glyph glyph-name="angath" unicode="&#xf01b;" horiz-adv-x="0" 
d="M-416 1186q49 0 86 88h54q-30 -112 -87 -149.5t-96 -37.5t-61.5 6t-94.5 41t-108 35q-72 0 -98 -82h-41q15 79 67 130t123 51q44 0 107 -32q64 -32 91 -42q27 -8 58 -8z" />
    <glyph glyph-name="angath" unicode="&#xf01a;" horiz-adv-x="0" 
d="M-416 1186q49 0 86 88h54q-30 -112 -87 -149.5t-96 -37.5t-61.5 6t-94.5 41t-108 35q-72 0 -98 -82h-41q15 79 67 130t123 51q44 0 107 -32q64 -32 91 -42q27 -8 58 -8z" />
    <glyph glyph-name="nga" unicode="&#xf01d;" horiz-adv-x="682" 
d="M162 1223q-68 0 -99 -82h-40q15 77 67.5 128.5t122.5 51.5q40 0 125 -41q86 -41 124 -41t60 31q13 12 33 57h53q-18 -79 -68 -132.5t-110 -53.5t-90 13t-56 26t-58 28t-64 15z" />
    <glyph glyph-name="anangth" unicode="&#xf023;" horiz-adv-x="0" 
d="M-463 -238q0 -40 -28.5 -68t-66.5 -28t-67.5 29t-29.5 67t29.5 67.5t67.5 29.5t66.5 -28.5t28.5 -68.5z" />
    <glyph glyph-name="anangth" unicode="&#xf02c;" horiz-adv-x="0" 
d="M-463 -238q0 -40 -28.5 -68t-66.5 -28t-67.5 29t-29.5 67t29.5 67.5t67.5 29.5t66.5 -28.5t28.5 -68.5z" />
    <glyph glyph-name="anangth" unicode="&#xf028;" horiz-adv-x="0" 
d="M-463 -238q0 -40 -28.5 -68t-66.5 -28t-67.5 29t-29.5 67t29.5 67.5t67.5 29.5t66.5 -28.5t28.5 -68.5z" />
    <glyph glyph-name="anangth" unicode="&#xf027;" horiz-adv-x="0" 
d="M-463 -238q0 -40 -28.5 -68t-66.5 -28t-67.5 29t-29.5 67t29.5 67.5t67.5 29.5t66.5 -28.5t28.5 -68.5z" />
    <glyph glyph-name="anangth" unicode="&#xf026;" horiz-adv-x="0" 
d="M-463 -238q0 -40 -28.5 -68t-66.5 -28t-67.5 29t-29.5 67t29.5 67.5t67.5 29.5t66.5 -28.5t28.5 -68.5z" />
    <glyph glyph-name="anangth" unicode="&#xf025;" horiz-adv-x="0" 
d="M-463 -238q0 -40 -28.5 -68t-66.5 -28t-67.5 29t-29.5 67t29.5 67.5t67.5 29.5t66.5 -28.5t28.5 -68.5z" />
    <glyph glyph-name="anangth" unicode="&#xf024;" horiz-adv-x="0" 
d="M-463 -238q0 -40 -28.5 -68t-66.5 -28t-67.5 29t-29.5 67t29.5 67.5t67.5 29.5t66.5 -28.5t28.5 -68.5z" />
    <glyph glyph-name="nang" unicode="&#xf02a;" horiz-adv-x="569" 
d="M449 1136q0 -40 -29.5 -69t-67.5 -29t-67 29t-29 69t29 67.5t67 27.5t67.5 -27.5t29.5 -67.5z" />
    <glyph glyph-name="lslash" horiz-adv-x="569" 
d="M282 0q-25 0 -79 -6v764l-183 -103v103l183 102v672q78 -6 82 -6l82 6v-569l192 108v-102l-192 -109v-866q-60 6 -85 6z" />
    <glyph glyph-name="dotaccent" horiz-adv-x="682" 
d="M340 1309q46 0 74 -27.5t28 -75.5t-27 -75t-74 -27t-75 28t-28 74t28 74.5t74 28.5z" />
    <glyph glyph-name="hungarumlaut" horiz-adv-x="682" 
d="M952 1360q0 -18 -8 -25q-7 -15 -22 -25t-29 -20l-322 -200h-69l256 256q13 13 24 23t27 28q9 6 25.5 20.5t29.5 16.5q69 0 82 -43q6 -13 6 -31zM643 1360q0 -18 -8 -25q-7 -15 -22 -25t-29 -20l-322 -200h-69l256 256q35 35 47 46q13 11 28.5 25.5t30.5 16.5q69 0 82 -43
q6 -13 6 -31z" />
    <glyph glyph-name="fi" horiz-adv-x="1139" 
d="M989 1324q0 -40 -28.5 -68.5t-66.5 -28.5t-67.5 29t-29.5 68t29.5 67t67.5 28t66.5 -27.5t28.5 -67.5zM871.5 0q-24.5 0 -78.5 -6v979q78 -6 81 -6l82 6v-979q-60 6 -84.5 6zM280 10q-25 0 -79 -6v891h-142q4 12 4 39t-4 39h142l4 16q21 203 117.5 374t271.5 171
q27 0 41 -2q-8 -57 -8 -164l-13 -8l-41 20q-27 11 -71 11q-168 0 -168 -203q0 -85 26 -215h209q-4 -20 -4 -35t4 -43h-204v-891q-60 6 -85 6z" />
    <glyph glyph-name="aa" horiz-adv-x="682" 
d="M297 1124q-110 0 -175 81t-65 204l52 2q12 -82 67 -132t135 -50q171 0 203 182h51q-21 -287 -268 -287z" />
    <glyph glyph-name="ab" horiz-adv-x="682" 
d="M102 1090h-61l225 292h101l225 -292h-60l-215 186z" />
    <glyph glyph-name="abth" 
d="M293 1067h-62l226 293h100l225 -293h-59l-215 186zM682 205v299l-72 -15q-163 -29 -255.5 -69.5t-92.5 -163.5q0 -96 52.5 -144.5t148.5 -48.5q38 0 86 24t68 44t42.5 40.5t22.5 33.5zM514 985q332 0 332 -344v-475q0 -74 14.5 -88.5t38.5 -14.5t62 9v-45
q-59 -27 -127 -27q-131 4 -146 125l-18 -19q-129 -129 -303 -129q-112 0 -192.5 70t-80.5 179t51.5 169t126.5 83.5t186 41.5t152 30t60.5 36t19.5 73q0 115 -62.5 177.5t-183.5 62.5t-174.5 -56.5t-62.5 -84.5h-23v114q165 113 330 113z" />
    <glyph glyph-name="abhoa" horiz-adv-x="1366" 
d="M471 1495h-61l225 293h100l226 -293h-60l-215 186zM872 633l-227 524l-223 -524h450zM1227 0q-28 0 -109 -6q-104 301 -215 553h-520q-151 -378 -203 -553q-54 6 -74 6t-27.5 -1t-19.5 -2t-26 -3l639 1431h47l614 -1431q-78 6 -106 6z" />
    <glyph glyph-name="ebth" 
d="M303 1067h-61l225 293h100l226 -293h-60l-215 186zM539 922q-91 0 -183 -74.5t-106 -282.5h545q-4 158 -61 257.5t-195 99.5zM956 528q0 -21 -2 -45q-208 6 -415 6h-289q-2 -13 -2 -67t23 -123.5t95 -152.5t233 -83t308 142l-2 -107q-174 -121 -334 -121
q-159 0 -269 60.5t-171 174.5t-61 264t54 264t160.5 179.5t268.5 65.5t282.5 -117t120.5 -340z" />
    <glyph glyph-name="ebhoa" 
d="M322 1491h-62l225 293h101l225 -293h-59l-215 186zM362 1298v-514h318q27 0 84.5 4.5t97.5 6.5l-6 -54l6 -57l-182 10h-318v-598q383 0 560 27q-5 -40 -6 -55t6 -68h-740v1395h727l-6 -62q0 -9 2 -25t4 -36q-76 15 -184 22l-205 4h-158z" />
    <glyph glyph-name="obth" horiz-adv-x="1139" 
d="M354 1065h-61l225 293h100l226 -293h-60l-215 186zM570 922q-102 0 -210 -95t-108 -354q0 -258 104 -345t214 -87t181.5 75t103.5 180.5t32 191.5t-15 159t-50 135.5t-92.5 101t-159.5 38.5zM72 468q0 243 148.5 380t371.5 137q140 0 247.5 -61t167.5 -174.5t60 -237.5
q0 -236 -136 -385.5t-376 -149.5q-133 0 -244 61.5t-175 179t-64 250.5z" />
    <glyph glyph-name="obhoa" horiz-adv-x="1706" 
d="M635 1495h-62l226 293h100l225 -293h-59l-215 186zM868 -31q-370 0 -576 199t-206 526q0 164 58 301t216.5 283.5t482.5 146.5q323 0 550 -178.5t227 -544.5q0 -200 -99 -372.5t-278 -266.5t-375 -94zM1419 706q0 100 -10.5 173t-56 186t-182 203t-287.5 90
q-287 0 -441.5 -187.5t-154.5 -491.5t158.5 -473t400.5 -169q146 0 256 63.5t179.5 165t103.5 221t34 219.5z" />
    <glyph glyph-name="athsac" 
d="M696 1270l-284 -183h-62l230 230q12 11 23 23t19 18t23 20t27 15q61 0 71 -39q0 -41 -4 -47q-7 -16 -43 -37zM682 205v299l-72 -15q-163 -29 -255.5 -69.5t-92.5 -163.5q0 -96 52.5 -144.5t148.5 -48.5q38 0 86 24t68 44t42.5 40.5t22.5 33.5zM514 985q332 0 332 -344
v-475q0 -74 14.5 -88.5t38.5 -14.5t62 9v-45q-59 -27 -127 -27q-131 4 -146 125l-18 -19q-129 -129 -303 -129q-112 0 -192.5 70t-80.5 179t51.5 169t126.5 83.5t186 41.5t152 30t60.5 36t19.5 73q0 115 -62.5 177.5t-183.5 62.5t-174.5 -56.5t-62.5 -84.5h-23v114
q165 113 330 113z" />
    <glyph glyph-name="athhuyen" 
d="M709 1094h-66l-278 174q-12 9 -25 17.5t-21 21.5q-2 16 -2 49q15 39 74 39q17 -4 32 -17t54 -55zM682 205v299l-72 -15q-163 -29 -255.5 -69.5t-92.5 -163.5q0 -96 52.5 -144.5t148.5 -48.5q38 0 86 24t68 44t42.5 40.5t22.5 33.5zM514 985q332 0 332 -344v-475
q0 -74 14.5 -88.5t38.5 -14.5t62 9v-45q-59 -27 -127 -27q-131 4 -146 125l-18 -19q-129 -129 -303 -129q-112 0 -192.5 70t-80.5 179t51.5 169t126.5 83.5t186 41.5t152 30t60.5 36t19.5 73q0 115 -62.5 177.5t-183.5 62.5t-174.5 -56.5t-62.5 -84.5h-23v114
q165 113 330 113z" />
    <glyph glyph-name="athnga" 
d="M680 1186q49 0 86 88h53q-19 -80 -68.5 -133.5t-109.5 -53.5t-93.5 15.5t-86.5 41.5t-88 25q-70 0 -99 -82h-41q17 80 68.5 130.5t122.5 50.5q40 0 105 -32q66 -32 93 -42q27 -8 58 -8zM682 205v299l-72 -15q-163 -29 -255.5 -69.5t-92.5 -163.5q0 -96 52.5 -144.5
t148.5 -48.5q38 0 86 24t68 44t42.5 40.5t22.5 33.5zM514 985q332 0 332 -344v-475q0 -74 14.5 -88.5t38.5 -14.5t62 9v-45q-59 -27 -127 -27q-131 4 -146 125l-18 -19q-129 -129 -303 -129q-112 0 -192.5 70t-80.5 179t51.5 169t126.5 83.5t186 41.5t152 30t60.5 36
t19.5 73q0 115 -62.5 177.5t-183.5 62.5t-174.5 -56.5t-62.5 -84.5h-23v114q165 113 330 113z" />
    <glyph glyph-name="ahoasac" horiz-adv-x="1366" 
d="M872 1720l-284 -182h-62q230 229 266 265t56 40q61 0 72 -39q0 -42 -5 -50t-11.5 -13.5t-14.5 -10t-17 -10.5zM872 633l-227 524l-223 -524h450zM1227 0q-28 0 -109 -6q-104 301 -215 553h-520q-151 -378 -203 -553q-54 6 -74 6t-27.5 -1t-19.5 -2t-26 -3l639 1431h47
l614 -1431q-78 6 -106 6z" />
    <glyph glyph-name="ahoahuyen" horiz-adv-x="1366" 
d="M874 1554h-65l-279 175q-12 9 -25 18t-20 20q-2 17 -2 50q14 38 74 38q25 -6 86 -71zM872 633l-227 524l-223 -524h450zM1227 0q-28 0 -109 -6q-104 301 -215 553h-520q-151 -378 -203 -553q-54 6 -74 6t-27.5 -1t-19.5 -2t-26 -3l639 1431h47l614 -1431q-78 6 -106 6z
" />
    <glyph glyph-name="ahoanga" horiz-adv-x="1366" 
d="M528 1610q-71 0 -98 -82h-41q17 78 68.5 129t122.5 51q39 0 108 -34q101 -48 140 -48q38 0 61 31q9 9 33 57h53q-18 -76 -68 -131t-127 -55q-42 0 -73 13t-57 26t-58 28t-64 15zM872 633l-227 524l-223 -524h450zM1227 0q-28 0 -109 -6q-104 301 -215 553h-520
q-151 -378 -203 -553q-54 6 -74 6t-27.5 -1t-19.5 -2t-26 -3l639 1431h47l614 -1431q-78 6 -106 6z" />
    <glyph glyph-name="ethsac" 
d="M723 1260l-285 -183h-61l229 230q35 33 45 45q6 3 22 16t25 14q63 0 72 -39q0 -47 -10 -57t-16.5 -13.5t-20.5 -12.5zM539 922q-91 0 -183 -74.5t-106 -282.5h545q-4 158 -61 257.5t-195 99.5zM956 528q0 -21 -2 -45q-208 6 -415 6h-289q-2 -13 -2 -67t23 -123.5
t95 -152.5t233 -83t308 142l-2 -107q-174 -121 -334 -121q-159 0 -269 60.5t-171 174.5t-61 264t54 264t160.5 179.5t268.5 65.5t282.5 -117t120.5 -340z" />
    <glyph glyph-name="ethhuyen" 
d="M735 1083h-65l-279 174q-8 6 -23.5 16.5t-21.5 22.5q-2 17 -2 50q13 38 74 38q24 -6 47 -30.5t39 -40.5zM539 922q-91 0 -183 -74.5t-106 -282.5h545q-4 158 -61 257.5t-195 99.5zM956 528q0 -21 -2 -45q-208 6 -415 6h-289q-2 -13 -2 -67t23 -123.5t95 -152.5t233 -83
t308 142l-2 -107q-174 -121 -334 -121q-159 0 -269 60.5t-171 174.5t-61 264t54 264t160.5 179.5t268.5 65.5t282.5 -117t120.5 -340z" />
    <glyph glyph-name="ehoasac" 
d="M772 1679l-285 -182h-61l229 229q39 40 45 44t21.5 17.5t26.5 14.5q62 0 71 -39q-1 -41 -5 -49t-42 -35zM362 1298v-514h318q27 0 84.5 4.5t97.5 6.5l-6 -54l6 -57l-182 10h-318v-598q383 0 560 27q-5 -40 -6 -55t6 -68h-740v1395h727l-6 -62q0 -9 2 -25t4 -36
q-76 15 -184 22l-205 4h-158z" />
    <glyph glyph-name="ehoahuyen" 
d="M713 1503h-66l-278 174q-38 25 -45 39q-2 17 -2 49q12 39 73 39q17 -4 30 -15t56 -56zM362 1298v-514h318q27 0 84.5 4.5t97.5 6.5l-6 -54l6 -57l-182 10h-318v-598q383 0 560 27q-5 -40 -6 -55t6 -68h-740v1395h727l-6 -62q0 -9 2 -25t4 -36q-76 15 -184 22l-205 4h-158
z" />
    <glyph glyph-name="othsac" horiz-adv-x="1139" 
d="M770 1270l-285 -183h-61l229 230q32 30 45 45q6 3 21.5 16.5t25.5 14.5q62 0 72 -39q1 -41 -3 -47t-9 -12t-13 -11t-22 -14zM570 922q-102 0 -210 -95t-108 -354q0 -258 104 -345t214 -87t181.5 75t103.5 180.5t32 191.5t-15 159t-50 135.5t-92.5 101t-159.5 38.5z
M72 468q0 243 148.5 380t371.5 137q140 0 247.5 -61t167.5 -174.5t60 -237.5q0 -236 -136 -385.5t-376 -149.5q-133 0 -244 61.5t-175 179t-64 250.5z" />
    <glyph glyph-name="othhuyen" horiz-adv-x="1139" 
d="M793 1094h-66l-278 174q-12 9 -25 17.5t-21 21.5q-2 16 -2 49q15 39 74 39q16 -4 30 -15t56 -57zM570 922q-102 0 -210 -95t-108 -354q0 -258 104 -345t214 -87t181.5 75t103.5 180.5t32 191.5t-15 159t-50 135.5t-92.5 101t-159.5 38.5zM72 468q0 243 148.5 380
t371.5 137q140 0 247.5 -61t167.5 -174.5t60 -237.5q0 -236 -136 -385.5t-376 -149.5q-133 0 -244 61.5t-175 179t-64 250.5z" />
    <glyph glyph-name="othnga" horiz-adv-x="1139" 
d="M723 1186q49 0 86 88h53q-19 -80 -68.5 -133.5t-109.5 -53.5t-93.5 15.5t-86.5 41.5t-88 25q-70 0 -99 -82h-41q17 80 68.5 130.5t122.5 50.5q40 0 105 -32q66 -32 93 -42q27 -8 58 -8zM570 922q-102 0 -210 -95t-108 -354q0 -258 104 -345t214 -87t181.5 75t103.5 180.5
t32 191.5t-15 159t-50 135.5t-92.5 101t-159.5 38.5zM72 468q0 243 148.5 380t371.5 137q140 0 247.5 -61t167.5 -174.5t60 -237.5q0 -236 -136 -385.5t-376 -149.5q-133 0 -244 61.5t-175 179t-64 250.5z" />
    <glyph glyph-name="ohoasac" horiz-adv-x="1706" 
d="M1094 1710l-285 -182h-61l229 229q16 16 25.5 24.5t19.5 18.5q31 31 47 33q63 0 72 -39q1 -42 -5 -52t-42 -32zM868 -31q-370 0 -576 199t-206 526q0 164 58 301t216.5 283.5t482.5 146.5q323 0 550 -178.5t227 -544.5q0 -200 -99 -372.5t-278 -266.5t-375 -94zM1419 706
q0 100 -10.5 173t-56 186t-182 203t-287.5 90q-287 0 -441.5 -187.5t-154.5 -491.5t158.5 -473t400.5 -169q146 0 256 63.5t179.5 165t103.5 221t34 219.5z" />
    <glyph glyph-name="ohoahuyen" horiz-adv-x="1706" 
d="M1075 1534h-65l-279 174q-12 9 -25 18t-20 21q-2 16 -2 49q12 39 74 39q16 -4 29 -14t57 -58zM868 -31q-370 0 -576 199t-206 526q0 164 58 301t216.5 283.5t482.5 146.5q323 0 550 -178.5t227 -544.5q0 -200 -99 -372.5t-278 -266.5t-375 -94zM1419 706q0 100 -10.5 173
t-56 186t-182 203t-287.5 90q-287 0 -441.5 -187.5t-154.5 -491.5t158.5 -473t400.5 -169q146 0 256 63.5t179.5 165t103.5 221t34 219.5z" />
    <glyph glyph-name="ohoanga" horiz-adv-x="1706" 
d="M698 1610q-71 0 -98 -82h-41q17 78 68.5 129t122.5 51q39 0 108 -34q101 -48 140 -48q38 0 61 31q9 9 33 57h53q-18 -76 -68 -131t-127 -55q-42 0 -73 13t-57 26t-58 28t-64 15zM868 -31q-370 0 -576 199t-206 526q0 164 58 301t216.5 283.5t482.5 146.5
q323 0 550 -178.5t227 -544.5q0 -200 -99 -372.5t-278 -266.5t-375 -94zM1419 706q0 100 -10.5 173t-56 186t-182 203t-287.5 90q-287 0 -441.5 -187.5t-154.5 -491.5t158.5 -473t400.5 -169q146 0 256 63.5t179.5 165t103.5 221t34 219.5z" />
    <glyph glyph-name="ithsac" horiz-adv-x="569" 
d="M506 1307l-285 -183h-61l229 230q35 33 45 45q6 3 22.5 16.5t24.5 14.5q62 0 72 -39q0 -48 -10 -58t-16.5 -13.5t-20.5 -12.5zM282 0q-25 0 -79 -6v979q78 -6 82 -6l82 6v-979q-60 6 -85 6z" />
    <glyph glyph-name="ithhuyen" horiz-adv-x="569" 
d="M498 1110h-66l-278 174q-12 9 -25 18t-20 21q-3 16 -3 49q14 39 74 39q17 -5 27 -13t59 -59zM282 0q-25 0 -79 -6v979q78 -6 82 -6l82 6v-979q-60 6 -85 6z" />
    <glyph glyph-name="ihoasac" horiz-adv-x="569" 
d="M506 1690l-285 -183h-61l229 230q35 33 45 45q6 3 22 16t25 14q62 0 72 -38q0 -48 -10 -58t-16.5 -13.5t-20.5 -12.5zM279 0q-30 0 -84 -6v1401l90 -6l90 6v-1401q-66 6 -96 6z" />
    <glyph glyph-name="ihoahuyen" horiz-adv-x="569" 
d="M498 1524h-66l-278 174q-39 27 -45 39q-3 16 -3 49q15 39 74 39q17 -5 27 -13t59 -59zM279 0q-30 0 -84 -6v1401l90 -6l90 6v-1401q-66 6 -96 6z" />
    <glyph glyph-name="uthsac" horiz-adv-x="1139" 
d="M838 1268l-285 -183h-61l229 230q28 26 45 45q10 8 23 19t24 12q62 0 72 -39q0 -41 -4 -48t-10 -13t-12.5 -10t-20.5 -13zM884 0q-25 0 -79 -6v176q-101 -193 -326 -193q-172 0 -255 94t-83 300v602q78 -6 82 -6l82 6v-553q0 -226 78.5 -284t172.5 -58t171.5 68t77.5 262
v565q78 -6 82 -6l82 6v-979q-60 6 -85 6z" />
    <glyph glyph-name="uthhuyen" horiz-adv-x="1139" 
d="M748 1102h-66l-279 174q-12 9 -24.5 17.5t-20.5 21.5q-2 16 -2 49q14 39 74 39q16 -5 26 -13t60 -59zM884 0q-25 0 -79 -6v176q-101 -193 -326 -193q-172 0 -255 94t-83 300v602q78 -6 82 -6l82 6v-553q0 -226 78.5 -284t172.5 -58t171.5 68t77.5 262v565q78 -6 82 -6
l82 6v-979q-60 6 -85 6z" />
    <glyph glyph-name="uhoasac" horiz-adv-x="1593" 
d="M1090 1690l-285 -183h-62l230 230q28 26 45 45l18 14q18 15 29 16q61 0 72 -38q0 -40 -4 -48t-11 -14.5t-12.5 -9.5t-19.5 -12zM373 610q0 -281 100 -414t343 -133q242 0 347 150.5t105 417.5v764q54 -6 57 -6l57 6v-815q0 -198 -73 -335.5t-208.5 -206.5t-316.5 -69
q-285 0 -444 144q-88 79 -116.5 195t-30.5 267v820l90 -6l90 6v-785z" />
    <glyph glyph-name="uhoahuyen" horiz-adv-x="1593" 
d="M979 1524h-66l-278 174q-39 27 -45 39q-2 16 -2 49q13 39 74 39q16 -4 29 -14t57 -58zM373 610q0 -281 100 -414t343 -133q242 0 347 150.5t105 417.5v764q54 -6 57 -6l57 6v-815q0 -198 -73 -335.5t-208.5 -206.5t-316.5 -69q-285 0 -444 144q-88 79 -116.5 195
t-30.5 267v820l90 -6l90 6v-785z" />
    <glyph glyph-name="ythsac" 
d="M836 1268l-285 -183h-62l230 230q28 26 45 45q10 8 23 19t24 12q62 0 72 -39q0 -41 -4 -48t-10 -13t-12.5 -10t-20.5 -13zM928 967q8 0 25.5 2t39.5 4q-79 -175 -295 -650.5t-366 -852.5q-54 6 -70 6t-24 -1t-19.5 -2t-25.5 -3q204 400 274 532l-414 971q96 -6 99 -6
l96 6q112 -346 305 -760q124 254 307 760q60 -6 68 -6z" />
    <glyph glyph-name="yhoasac" horiz-adv-x="1251" 
d="M887 1700l-285 -182h-61l229 229q28 26 45 45q10 8 23 19t24 12q62 0 72 -39q0 -41 -4 -47t-8.5 -12t-12.5 -11t-22 -14zM627 0q-30 0 -84 -6v590l-502 811q114 -6 115 -6l112 6q100 -194 229.5 -417.5t159.5 -268.5q54 61 392 686q78 -6 85 -6t26.5 2t47.5 4
q-79 -102 -145 -205l-225 -363q-65 -98 -115 -204v-629q-66 6 -96 6z" />
    <glyph glyph-name="aasachoa" horiz-adv-x="0" 
d="M-399 2017l-285 -182h-61l229 229q16 16 25.5 24.5t30.5 29.5t36 22q63 0 72 -39q0 -41 -4 -49t-11.5 -14t-18.5 -12.5t-13 -8.5z" />
    <glyph glyph-name="aahuyenhoa" horiz-adv-x="0" 
d="M-592 1831h-65l-279 174q-12 9 -25 18t-20 21q-2 16 -2 49q12 39 74 39q16 -4 29 -14t57 -58z" />
    <glyph glyph-name="aahoihoa" horiz-adv-x="0" 
d="M-555 2122q0 57 -118 57q-56 0 -91 -33l-6 45q65 23 120 23t118 -18t63 -78q0 -30 -16.5 -52t-55.5 -49l-67 -47l-32 -19q-32 -19 -32 -42q7 -43 72 -43q9 0 35 4l-23 -33q-6 -2 -48 -2t-84 23.5t-42 55.5t18.5 52t51.5 41l74 47q63 40 63 68z" />
    <glyph glyph-name="aangahoa" horiz-adv-x="0" 
d="M-795 1958q-71 0 -98 -82h-41q17 78 68.5 129t122.5 51q39 0 104 -32q103 -50 142 -50q40 0 63 31q9 9 33 57h53q-18 -76 -68 -131t-127 -55q-42 0 -72.5 13t-56.5 26t-58.5 28t-64.5 15z" />
    <glyph glyph-name="cth" horiz-adv-x="0" 
d="M-518 1073q-110 0 -175 81t-65 204l51 2q14 -83 68 -132.5t135 -49.5q170 0 203 182h51q-21 -287 -268 -287z" />
    <glyph glyph-name="csacth" horiz-adv-x="0" 
d="M-221 1593l-285 -182h-61l229 229q16 16 23.5 23t21.5 23q6 3 22 16t25 14q63 0 72 -39q0 -41 -4 -49t-43 -35zM-518 1073q-110 0 -175 81t-65 204l51 2q14 -83 68 -132.5t135 -49.5q170 0 203 182h51q-21 -287 -268 -287z" />
    <glyph glyph-name="chuyenth" horiz-adv-x="0" 
d="M-434 1397h-66l-278 174q-39 27 -45 39q-2 16 -2 49q13 39 73 39q17 -4 27 -12t59 -60zM-518 1073q-110 0 -175 81t-65 204l51 2q14 -83 68 -132.5t135 -49.5q170 0 203 182h51q-21 -287 -268 -287z" />
    <glyph glyph-name="choith" horiz-adv-x="0" 
d="M-397 1708q0 58 -117 57q-55 0 -92 -32l-6 45q68 22 121 22t116.5 -17.5t63.5 -78.5q0 -53 -72 -100l-68 -48q-15 -10 -39 -24t-24 -37q7 -43 72 -43q10 0 34 4l-22 -33q-6 -2 -48 -2t-84 23.5t-42 63.5t69 85l74 47q64 40 64 68zM-518 1073q-110 0 -175 81t-65 204l51 2
q14 -83 68 -132.5t135 -49.5q170 0 203 182h51q-21 -287 -268 -287z" />
    <glyph glyph-name="cngath" horiz-adv-x="0" 
d="M-657 1544q-70 0 -99 -82h-41q17 79 68.5 129.5t122.5 50.5q45 0 107 -32q96 -49 138 -49t64 30q16 16 33 58h53q-19 -80 -68.5 -133.5t-113.5 -53.5t-126 31t-87 41t-51 10zM-518 1073q-110 0 -175 81t-65 204l51 2q14 -83 68 -132.5t135 -49.5q170 0 203 182h51
q-21 -287 -268 -287z" />
    <glyph glyph-name="cnangth" horiz-adv-x="0" 
d="M-438 -222q0 -40 -29.5 -68.5t-67.5 -28.5t-67 29t-29 68t29 67t67 28t67.5 -27.5t29.5 -67.5zM-518 1073q-110 0 -175 81t-65 204l51 2q14 -83 68 -132.5t135 -49.5q170 0 203 182h51q-21 -287 -268 -287z" />
    <glyph glyph-name="choa" horiz-adv-x="0" 
d="M-682 1513q-73 0 -156.5 56.5t-83.5 228.5l52 2q12 -82 67 -132t135 -50q172 0 203 182h51q-21 -287 -268 -287z" />
    <glyph glyph-name="csachoa" horiz-adv-x="0" 
d="M-385 2034l-285 -183h-61l229 230q35 33 45 45q6 3 22.5 16.5t24.5 14.5q62 0 72 -39q0 -41 -4 -47t-8.5 -12t-12.5 -11t-22 -14zM-682 1513q-73 0 -156.5 56.5t-83.5 228.5l52 2q12 -82 67 -132t135 -50q172 0 203 182h51q-21 -287 -268 -287z" />
    <glyph glyph-name="chuyenhoa" horiz-adv-x="0" 
d="M-598 1837h-66l-278 174q-12 9 -25 18t-20 21q-2 16 -2 49q12 39 74 39q16 -4 29 -14t57 -58zM-682 1513q-73 0 -156.5 56.5t-83.5 228.5l52 2q12 -82 67 -132t135 -50q172 0 203 182h51q-21 -287 -268 -287z" />
    <glyph glyph-name="choihoa" horiz-adv-x="0" 
d="M-615 1892q18 0 44 4l-23 -32q-6 -2 -48 -2t-84 23.5t-42 55.5t18.5 52t51.5 41l73 47q64 37 64 65t-32.5 44t-86.5 16t-90 -33l-6 45q71 23 138 23t115 -25.5t48 -63.5t-17 -59.5t-55 -48.5l-67 -47q-46 -27 -55 -38t-7 -27t22.5 -28t38.5 -12zM-682 1513
q-73 0 -156.5 56.5t-83.5 228.5l52 2q12 -82 67 -132t135 -50q172 0 203 182h51q-21 -287 -268 -287z" />
    <glyph glyph-name="cngahoa" horiz-adv-x="0" 
d="M-821 1985q-68 0 -99 -82h-41q17 78 69 129t122 51q38 0 125 -41t124 -41q38 0 60 31q13 12 33 57h53q-18 -79 -68 -132.5t-110 -53.5t-89.5 13t-55.5 26t-58.5 28t-64.5 15zM-682 1513q-73 0 -156.5 56.5t-83.5 228.5l52 2q12 -82 67 -132t135 -50q172 0 203 182h51
q-21 -287 -268 -287z" />
    <glyph glyph-name="cnanghoa" horiz-adv-x="0" 
d="M-643 -232q0 -40 -28.5 -69t-67.5 -29t-68 29t-29 69t29 67.5t68 27.5t67.5 -27.5t28.5 -67.5zM-682 1513q-73 0 -156.5 56.5t-83.5 228.5l52 2q12 -82 67 -132t135 -50q172 0 203 182h51q-21 -287 -268 -287z" />
    <glyph glyph-name="bth" horiz-adv-x="0" 
d="M-791 1069h-61l225 293h101l225 -293h-59l-215 186z" />
    <glyph glyph-name="bsacth" horiz-adv-x="0" 
d="M-59 1483l-285 -183h-62l230 230q28 26 45 45q10 8 23 19t24 12q62 0 72 -39q0 -41 -4 -48t-10 -13t-12.5 -10t-20.5 -13zM-791 1069h-61l225 293h101l225 -293h-59l-215 186z" />
    <glyph glyph-name="bhuyenth" horiz-adv-x="0" 
d="M-293 1378h-65l-279 174q-8 6 -23.5 16t-21.5 23q-2 17 -2 49q12 39 74 39q24 -6 47 -30.5t39 -40.5zM-791 1069h-61l225 293h101l225 -293h-59l-215 186z" />
    <glyph glyph-name="bhoith" horiz-adv-x="0" 
d="M-261 1300q16 0 46 5l-23 -33q-6 -2 -48 -2t-84 23.5t-42 55.5t18.5 52t51.5 41l74 47q63 38 63 66t-32 43.5t-85 15.5t-92 -33l-6 45q71 23 138 23t115 -26.5t48 -64.5t-17.5 -59.5t-53.5 -46.5l-68 -47q-46 -27 -55 -38t-9 -24q5 -19 25 -31t36 -12zM-791 1069h-61
l225 293h101l225 -293h-59l-215 186z" />
    <glyph glyph-name="bngath" horiz-adv-x="0" 
d="M-424 1563q49 0 86 88h53q-19 -80 -68.5 -133.5t-109.5 -53.5t-93.5 15t-86.5 41t-88 26q-72 0 -98 -82h-41q15 79 67 130t123 51q45 1 112 -33q66 -34 90 -42t54 -7zM-791 1069h-61l225 293h101l225 -293h-59l-215 186z" />
    <glyph glyph-name="bnangth" horiz-adv-x="0" 
d="M-481 -224q0 -40 -29.5 -69t-67.5 -29t-67 29t-29 69t29 67.5t67 27.5t67.5 -27.5t29.5 -67.5zM-791 1069h-61l225 293h101l225 -293h-59l-215 186z" />
    <glyph glyph-name="bhoa" horiz-adv-x="0" 
d="M-1077 1499h-62l226 293h100l225 -293h-59l-215 187z" />
    <glyph glyph-name="bsachoa" horiz-adv-x="0" 
d="M-346 1913l-285 -182h-61l229 229q32 30 45 45q6 3 21.5 16.5t25.5 14.5q62 0 72 -39q1 -41 -3 -47t-9 -12t-13 -11t-22 -14zM-1077 1499h-62l226 293h100l225 -293h-59l-215 187z" />
    <glyph glyph-name="bhuyenhoa" horiz-adv-x="0" 
d="M-580 1808h-65l-279 174q-8 6 -21.5 15.5t-23.5 23.5q-2 17 -2 50q13 38 74 38q15 -4 23 -10t63 -61zM-1077 1499h-62l226 293h100l225 -293h-59l-215 187z" />
    <glyph glyph-name="bhoihoa" horiz-adv-x="0" 
d="M-492 1984q0 60 -120 60q-56 0 -88 -33l-7 45q71 23 138 23t115 -26.5t48 -64.5t-17.5 -59.5t-53.5 -46.5l-68 -47q-9 -6 -36 -22.5t-25 -36.5t22 -32.5t39 -12.5t43 4l-22 -33q-6 -2 -48 -2t-84 24t-42 64t69 84l74 47q63 37 63 65zM-1077 1499h-62l226 293h100
l225 -293h-59l-215 187z" />
    <glyph glyph-name="bngahoa" horiz-adv-x="0" 
d="M-711 1993q49 0 86 88h54q-30 -112 -87 -149.5t-96 -37.5t-61.5 6t-94.5 41t-108 35q-72 0 -98 -82h-41q15 79 67 130t109 51q57 -1 121 -33t91 -40t58 -9zM-1077 1499h-62l226 293h100l225 -293h-59l-215 187z" />
    <glyph glyph-name="bnanghoa" horiz-adv-x="0" 
d="M-778 -224q0 -40 -28.5 -69t-67.5 -29t-68 29t-29 69t29 67.5t68 27.5t67.5 -27.5t28.5 -67.5zM-1077 1499h-62l226 293h100l225 -293h-59l-215 187z" />
    <glyph glyph-name="nonbreakingspace" horiz-adv-x="1366" 
 />
  </font>
</defs>
</svg>
