<?xml version="1.0" encoding="utf-8"?>
<!-- Generator: Adobe Illustrator 19.0.0, SVG Export Plug-In . SVG Version: 6.00 Build 0)  -->
<svg version="1.1" id="Layer_1" xmlns="http://www.w3.org/2000/svg" xmlns:xlink="http://www.w3.org/1999/xlink" x="0px" y="0px"
	 viewBox="0 0 948.5 468" style="enable-background:new 0 0 948.5 468;" xml:space="preserve">
<style type="text/css">
	.st0{fill:#FFFFFF;}
	.st1{fill:#E53328;}
	.st2{fill:#80BA27;}
	.st3{fill:#007C32;}
</style>
<g>
	<path class="st0" d="M301.4,261.1c-1.4-3.3-3.8-8.9-3.8-8.9l-5.5-11.6c0,0-61.5-131.3-61.7-131.5c-0.5-1.1-1.1-2-1.7-2.8
		c-1.4-2.4-3.9-3.8-6.5-3.8c-0.1,0-33.5,0-33.5,0c-4.2,0-9.2,4.2-6.8,9.7c1.4,3.3,28.2,60.4,28.2,60.4l-37.8,0
		c-3.8,0-6.9,3.1-6.9,6.9l0,26.8c0,3.8,3.1,6.9,6.9,6.9l56.7,0l23.5,50.3c0.1,0.3,0.3,0.6,0.5,0.8c0.5,1.1,1.1,2,1.7,2.8
		c1.4,2.4,3.9,3.8,6.5,3.8c0.1,0,0.1,0,0.2,0h1h5.4l27,0C298.8,270.8,303.7,266.6,301.4,261.1z"/>
	<path class="st0" d="M344.7,270.2l-32.3,0c-1.5,0-2.7-0.5-3.7-1.6c-1-1.1-1.5-2.4-1.5-3.9l0-157.3c0-1.5,0.5-2.8,1.5-3.9
		c1-1.1,2.2-1.6,3.7-1.6l67.1,0c8.4,0,16.1,1.5,23.1,4.5c7.1,3,13.1,7.2,18,12.5c5,5.4,8.9,11.7,11.7,19.1
		c2.8,7.4,4.2,15.5,4.2,24.4c0,4.9-0.5,9.8-1.6,14.6c-1.1,4.8-2.6,9.4-4.6,13.7c-2,4.3-4.4,8.2-7.1,11.6c-2.7,3.5-5.8,6.3-9.3,8.6
		c-1.2,0.9-1.9,2-2.3,3.3c-0.4,1.3-0.1,2.6,0.8,3.8c5.5,7.7,11.2,15.6,17.3,23.7c6,8.1,11.4,15.6,16.2,22.3c0.9,1.2,1.1,2.6,0.6,4
		c-0.4,1.5-1.4,2.2-2.8,2.2l-40.2,0c-1.4,0-3-0.4-4.6-1.3c-1.7-0.8-2.9-1.9-3.8-3.1c-4.6-6.4-9.1-13-13.6-19.5
		c-4.5-6.6-9-13.3-13.4-20c-0.9-1.2-2.1-2.3-3.7-3.1c-1.6-0.8-3.1-1.3-4.5-1.3h-4.7c-1.4,0-2.6,0.5-3.7,1.6c-1,1.1-1.5,2.4-1.5,3.9
		l0,37.3c0,1.5-0.5,2.8-1.5,3.9C347.4,269.7,346.2,270.2,344.7,270.2z M355.1,179.6l22.8,0c1.7,0,3.5-0.3,5.4-1
		c1.9-0.7,3.6-1.8,5.2-3.2c1.6-1.5,2.9-3.3,3.9-5.4c1-2.1,1.5-4.7,1.5-7.6c0-1.5-0.3-3.3-0.8-5.4c-0.5-2.1-1.4-4.1-2.6-6
		c-1.2-1.9-2.9-3.5-4.9-4.8c-2.1-1.3-4.6-2-7.6-2l-22.8,0c-1.4,0-2.6,0.5-3.6,1.6c-1,1.1-1.5,2.4-1.5,3.9l0,24.4
		c0,1.5,0.5,2.8,1.5,3.9C352.4,179.1,353.7,179.6,355.1,179.6z"/>
	<path class="st0" d="M611.1,225.6c-4.2,7.2-8.8,13.7-13.8,19.6c-5,5.9-10.7,10.9-17,15c-6.3,4.1-13.2,7.3-20.8,9.6
		c-7.6,2.3-16.1,3.4-25.3,3.4c-11.5,0-22.3-2.3-32.4-6.9c-10.1-4.6-18.9-10.8-26.4-18.6c-7.6-7.8-13.5-17-17.8-27.6
		c-4.3-10.6-6.5-21.8-6.5-33.8c0-12,2.2-23.2,6.5-33.8c4.3-10.6,10.3-19.8,17.8-27.6c7.6-7.8,16.4-14,26.5-18.6
		c10.1-4.6,20.9-6.9,32.4-6.9c9.5,0,18.1,1.2,25.7,3.4c7.6,2.3,14.5,5.5,20.7,9.7c6.2,4.1,11.8,9.2,16.7,15.1
		c5,5.9,9.5,12.4,13.7,19.4c0.7,1.2,0.9,2.5,0.4,3.9c-0.4,1.4-1.3,2.4-2.6,3l-30.7,12.9c-1.4,0.6-2.9,0.6-4.3,0
		c-1.4-0.6-2.5-1.5-3.2-2.8c-4.2-7-9.2-12.5-15.1-16.2c-5.9-3.8-13-5.6-21.4-5.6c-5.5,0-10.6,1.2-15.4,3.7c-4.8,2.5-9,5.7-12.6,9.8
		c-3.6,4.1-6.4,8.8-8.4,14.2c-2,5.4-3,10.9-3,16.6c0,5.8,1,11.4,3,16.7c2,5.3,4.8,10,8.4,13.9c3.6,4,7.8,7.2,12.6,9.7
		c4.8,2.5,10,3.7,15.4,3.7c7.9,0,15.1-2,21.5-6.1c6.4-4.1,11.5-9.3,15.2-15.7c0.7-1.2,1.8-2.1,3.1-2.8c1.4-0.6,2.8-0.6,4.2,0
		l30.7,12.9c1.3,0.6,2.2,1.6,2.6,2.9C612,222.9,611.9,224.2,611.1,225.6z"/>
	<path class="st0" d="M670.1,149.7l0,9.7c0,1.5,0.5,2.8,1.5,3.9c1,1.1,2.2,1.6,3.7,1.6l58.5,0c1.4,0,2.7,0.5,3.7,1.6
		c1,1.1,1.5,2.4,1.5,3.9v31.7c0,1.5-0.5,2.8-1.5,3.9c-1,1.1-2.2,1.6-3.7,1.6l-58.5,0c-1.4,0-2.7,0.5-3.7,1.6c-1,1.1-1.5,2.4-1.5,3.9
		l0,8.7c0,1.5,0.5,2.8,1.5,3.9c1,1.1,2.2,1.6,3.7,1.6l67.1,0c1.4,0,2.7,0.5,3.7,1.6c1,1.1,1.5,2.4,1.5,3.9l0,31.7
		c0,1.5-0.5,2.8-1.5,3.9c-1,1.1-2.2,1.6-3.7,1.6l-109.9,0c-1.4,0-2.7-0.5-3.7-1.6c-1-1.1-1.5-2.4-1.5-3.9l0-157.3
		c0-1.5,0.5-2.8,1.5-3.9c1-1.1,2.2-1.6,3.7-1.6l109.9,0c1.4,0,2.7,0.5,3.7,1.6c1,1.1,1.5,2.4,1.5,3.9l0,31.3c0,1.5-0.5,2.8-1.5,3.9
		c-1,1.1-2.2,1.6-3.7,1.6l-67.1,0c-1.4,0-2.7,0.5-3.7,1.6C670.6,146.9,670.1,148.2,670.1,149.7z"/>
	<path class="st0" d="M788.3,212.3c7.8,5.4,15.5,9.6,23.1,12.6c7.6,3.1,14.8,4.6,21.4,4.6c6.3,0,11.2-1,14.5-2.9
		c3.3-1.9,5-4.8,5-8.6c0-2-0.7-3.6-2.2-4.7c-1.4-1.2-3.4-2.1-5.7-2.9c-2.4-0.8-5.2-1.4-8.3-1.8c-3.2-0.5-6.4-1.1-9.7-1.8
		c-3.2-0.6-6.9-1.3-11.1-2.2c-4.2-0.8-8.6-2.1-13.1-3.7c-4.5-1.6-8.9-3.6-13.3-6.1c-4.4-2.5-8.3-5.6-11.8-9.4
		c-3.5-3.8-6.2-8.4-8.3-13.7c-2.1-5.3-3.1-11.5-3.1-18.7c0-10.6,1.9-19.3,5.8-26.2c3.9-6.9,8.8-12.4,14.8-16.4
		c6-4.1,12.6-6.9,20-8.5c7.3-1.6,14.5-2.4,21.4-2.4c12.1,0,22.9,1.9,32.5,5.6c9.6,3.8,18.7,9.2,27.5,16.4c1.1,1.1,1.8,2.4,1.9,3.9
		c0.1,1.5-0.2,2.9-1.1,4.1L871.7,155c-0.9,1.2-2,2-3.5,2.3c-1.4,0.3-2.7,0-3.9-0.9c-7.3-4.9-14.2-8.4-20.5-10.5
		c-6.3-2.1-12.2-3.1-17.5-3.1c-1.6,0-3.4,0-5.5,0.1c-2.1,0.1-4.1,0.4-5.9,0.9c-1.9,0.5-3.4,1.4-4.6,2.6c-1.2,1.2-1.8,2.9-1.8,5.1
		c0,2.1,1.5,4.1,4.5,5.8c3,1.7,6.5,3.1,10.4,4.4c3.9,1.2,7.6,2.2,11.2,2.9c3.6,0.7,5.9,1.1,6.9,1.3c5.2,1.1,10.9,2.6,17.1,4.7
		c6.2,2.1,12,5.1,17.4,9.2c5.4,4.1,9.9,9.4,13.6,15.9c3.7,6.5,5.5,14.7,5.5,24.5c0,9.2-1.5,17.1-4.5,23.8c-3,6.7-7.2,12.2-12.6,16.4
		c-5.4,4.3-11.9,7.5-19.4,9.5c-7.6,2.1-15.9,3.1-25.2,3.1c-7.5,0-14.5-0.7-20.9-2c-6.5-1.3-12.5-3.1-18.1-5.4
		c-5.6-2.3-10.8-5-15.7-8.2c-4.8-3.1-9.2-6.5-13.3-10c-1.2-0.9-1.8-2.2-1.9-3.8c-0.1-1.6,0.2-3,1.1-4.3l16.6-25.5
		c0.9-1.2,2-2,3.5-2.3C785.9,211.3,787.2,211.5,788.3,212.3z"/>
	<path class="st0" d="M351.6,334.2v9.5c0,1.5,0.5,2.8,1.5,3.8c1,1.1,2.2,1.6,3.6,1.6l57.7,0c1.4,0,2.6,0.5,3.6,1.6
		c1,1.1,1.5,2.4,1.5,3.9l0,31.8c0,1.5-0.5,2.8-1.5,3.9c-1,1.1-2.2,1.6-3.6,1.6l-57.7,0c-1.4,0-2.6,0.5-3.6,1.6
		c-1,1.1-1.5,2.3-1.5,3.9l0,50.3c0,1.5-0.5,2.8-1.5,3.9c-1,1.1-2.2,1.6-3.6,1.6l-32.1,0c-1.4,0-2.6-0.5-3.6-1.6
		c-1-1.1-1.5-2.3-1.5-3.9l0-155.6c0-1.5,0.5-2.8,1.5-3.9c1-1.1,2.2-1.6,3.6-1.6l108.5,0c1.4,0,2.6,0.5,3.6,1.6
		c1,1.1,1.5,2.4,1.5,3.9l0,31.3c0,1.5-0.5,2.8-1.5,3.9c-1,1.1-2.2,1.6-3.6,1.6l-66.2,0c-1.4,0-2.6,0.5-3.6,1.6
		C352.1,331.4,351.6,332.7,351.6,334.2z"/>
	<path class="st0" d="M489.4,453l-32,0c-1.4,0-2.7-0.5-3.7-1.6c-1-1.1-1.5-2.3-1.5-3.9l0-155.6c0-1.5,0.5-2.8,1.5-3.9
		c1-1.1,2.2-1.6,3.6-1.6l66.4,0c8.3,0,15.9,1.5,22.9,4.4c7,3,12.9,7.1,17.8,12.4c4.9,5.3,8.8,11.6,11.5,18.9
		c2.8,7.3,4.2,15.3,4.2,24.1c0,4.9-0.5,9.7-1.6,14.4c-1.1,4.8-2.6,9.3-4.6,13.5c-2,4.2-4.3,8.1-7.1,11.5c-2.7,3.4-5.8,6.3-9.2,8.5
		c-1.1,0.9-1.9,2-2.2,3.3c-0.4,1.3-0.1,2.5,0.8,3.8c5.4,7.6,11.1,15.4,17.1,23.4c6,8,11.3,15.4,16,22.1c0.9,1.2,1.1,2.5,0.6,4
		c-0.4,1.4-1.4,2.2-2.8,2.2l-39.7,0c-1.4,0-3-0.4-4.6-1.2c-1.6-0.8-2.9-1.9-3.7-3.1c-4.5-6.4-9-12.8-13.5-19.3
		c-4.5-6.5-8.9-13.1-13.3-19.8c-0.9-1.2-2.1-2.2-3.6-3.1c-1.6-0.8-3-1.3-4.5-1.3h-4.7c-1.4,0-2.6,0.5-3.6,1.6
		c-1,1.1-1.5,2.3-1.5,3.9l0,36.9c0,1.5-0.5,2.8-1.5,3.9C492,452.5,490.8,453,489.4,453z M499.7,363.3h22.5c1.7,0,3.5-0.3,5.3-1
		c1.8-0.7,3.5-1.7,5.1-3.2c1.6-1.4,2.8-3.2,3.8-5.3c1-2.1,1.5-4.6,1.5-7.5c0-1.5-0.2-3.3-0.7-5.3c-0.5-2-1.3-4-2.5-5.9
		c-1.2-1.9-2.8-3.5-4.9-4.8c-2.1-1.3-4.6-1.9-7.5-1.9h-22.5c-1.4,0-2.6,0.5-3.6,1.6c-1,1.1-1.5,2.4-1.5,3.9l0,24.1
		c0,1.5,0.5,2.8,1.5,3.9C497,362.8,498.2,363.3,499.7,363.3z"/>
	<path class="st0" d="M602.6,291.6c0-1.5,0.5-2.8,1.5-3.9c1-1.1,2.2-1.6,3.6-1.6l32.1,0c1.4,0,2.6,0.5,3.6,1.6
		c1,1.1,1.5,2.4,1.5,3.9l0,92.1c0,5.9,0.9,10.8,2.7,14.7c1.8,3.9,4,6.9,6.7,9.1c2.6,2.2,5.5,3.8,8.5,4.7c3,0.9,5.7,1.4,8.1,1.4
		c2.4,0,5.1-0.4,8.1-1.4c3-0.9,5.8-2.5,8.4-4.7c2.6-2.2,4.8-5.2,6.5-9.1c1.8-3.9,2.7-8.8,2.7-14.7l0-92.1c0-1.5,0.5-2.8,1.5-3.9
		c1-1.1,2.2-1.6,3.6-1.6l32.1,0c1.4,0,2.6,0.5,3.6,1.6c1,1.1,1.5,2.4,1.5,3.9l0,92.1c0,10.8-1.6,20.5-4.8,29.3
		c-3.2,8.8-7.8,16.3-13.8,22.5c-6,6.2-13.2,11-21.5,14.4c-8.4,3.4-17.7,5.1-27.9,5.1c-10.2,0-19.6-1.7-27.9-5.1
		c-8.4-3.4-15.6-8.2-21.5-14.4c-6-6.2-10.6-13.7-13.9-22.5c-3.3-8.8-4.9-18.6-4.9-29.3L602.6,291.6z"/>
	<path class="st0" d="M932.4,328l-29.9,0c-1.4,0-2.6,0.5-3.6,1.6c-1,1.1-1.5,2.4-1.5,3.9l0,113.7c0,1.5-0.5,2.8-1.4,3.9
		c-0.9,1.1-2.2,1.6-3.7,1.6l-32,0c-1.4,0-2.6-0.5-3.6-1.6c-1-1.1-1.5-2.4-1.5-3.9l0-113.7c0-1.5-0.5-2.8-1.4-3.9
		c-0.9-1.1-2.2-1.6-3.7-1.6l-30.3,0c-1.4,0-2.6-0.5-3.6-1.6c-1-1.1-1.5-2.3-1.5-3.9l0-30.9c0-1.5,0.5-2.8,1.5-3.9
		c1-1.1,2.2-1.6,3.6-1.6l112.8,0c1.6,0,2.8,0.5,3.7,1.6c0.9,1.1,1.4,2.4,1.4,3.9l0,30.9c0,1.5-0.5,2.8-1.4,3.9
		C935.2,327.4,933.9,328,932.4,328z"/>
	<path class="st1" d="M175.5,260.1c-1.4-3.3-3.8-8.9-3.8-8.9l-5.5-11.6L154,213.5l-0.1,0l-17.6-37.7c-0.8-2-2.7-3.4-5-3.4
		c-0.1,0-0.3,0-0.4,0h-23.9c-4.2,0-7.6,3.4-7.6,7.6l0,25c0,4.2,3.4,7.6,7.6,7.6l14.8,0c-7,6.8-16.6,11-27.1,11
		c-21.5,0-39-17.5-39-39c0-20.7,17-37.9,37.7-38.8c0,0,0.2,0,0.4,0c2,0,3.7-1.1,4.7-2.7c0.8-1.2,1.1-2.8,1.1-4.2l0.3-35
		c-0.1-1.5-0.6-2.8-1.8-3.7c-1.7-1.4-4.2-1.4-5.7-1.3c-4.7,0.3-8.5,0.8-12.3,1.6c-40.2,6.9-70.8,41.9-70.8,84.1
		c0,47.2,38.2,85.4,85.4,85.4c11.6,0,22.6-2.3,32.6-6.5c0.7,1.4,1.1,2.3,1.2,2.4c1.4,2.4,3.9,3.8,6.6,3.8c0.1,0,33.5,0,33.5,0
		C172.9,269.8,177.8,265.7,175.5,260.1z"/>
	<path class="st2" d="M58.6,48.3c-8.2-15.7-7.3-31.7,0.5-35.3c9.1-4.2,21.2,5.1,27.9,21.6c6.7,16.4-0.2,36.5-0.2,36.5
		S67.2,64.7,58.6,48.3z"/>
	<path class="st3" d="M101.4,54.4c6.9-14.2,20.1-21.1,26.6-17.2c6.5,3.9,6.5,16.8-1.7,30.3c-8.2,13.5-26.2,19.2-26.2,19.2
		S94.2,69.2,101.4,54.4z"/>
	<g>
		<path class="st0" d="M794.3,451.8l-34.1,0c-1.7,0-3-0.5-3.9-1.6c-1-1.1-1.5-2.3-1.5-3.9l0-154.8c0-1.5,0.5-2.8,1.5-3.9
			c1-1.1,2.3-1.6,3.9-1.6l34.1,0c1.5,0,2.8,0.5,3.8,1.6c1.1,1.1,1.6,2.3,1.6,3.9l0,154.8c0,1.5-0.5,2.8-1.6,3.9
			C797.1,451.3,795.8,451.8,794.3,451.8z"/>
	</g>
</g>
</svg>
